<svg width="599" height="149" viewBox="0 0 599 149" fill="none" xmlns="http://www.w3.org/2000/svg">
<g filter="url(#filter0_dd_182_34)">
<path d="M60.3821 30.0188C54.7402 30.0188 50.1585 34.6005 50.1585 40.2424C50.1585 45.8843 54.7402 50.4659 60.3821 50.4659C66.0239 50.4659 70.6056 45.8843 70.6056 40.2424C70.6056 34.6005 66.0239 30.0188 60.3821 30.0188ZM64.4715 66.4828C64.4715 64.2236 62.6413 62.3934 60.3821 62.3934C58.1228 62.3934 56.2926 64.2236 56.2926 66.4828C56.2926 68.7421 58.1228 70.5723 60.3821 70.5723C62.6413 70.5723 64.4715 68.7421 64.4715 66.4828ZM50.1585 92.7359C50.1585 98.3778 54.7402 102.959 60.3821 102.959C66.0239 102.959 70.6056 98.3778 70.6056 92.7359C70.6056 87.094 66.0239 82.5124 60.3821 82.5124C54.7275 82.5124 50.1585 87.0814 50.1585 92.7359ZM76.399 66.4828C76.399 72.1247 80.9806 76.7064 86.6225 76.7064C92.2644 76.7064 96.8461 72.1247 96.8461 66.4828C96.8461 60.841 92.2644 56.2593 86.6225 56.2593C80.9806 56.2593 76.399 60.841 76.399 66.4828ZM23.9054 66.4828C23.9054 72.1247 28.4871 76.7064 34.129 76.7064C39.7709 76.7064 44.3525 72.1247 44.3525 66.4828C44.3525 60.841 39.7709 56.2593 34.129 56.2593C28.4871 56.2593 23.9054 60.841 23.9054 66.4828ZM120.638 114.332C116.851 106.09 108.559 100.7 99.484 100.612C94.7256 100.536 90.1187 101.95 86.1681 104.6C86.1429 104.613 86.1303 104.626 86.105 104.638C78.4942 109.775 69.5959 112.501 60.3821 112.501C35.0125 112.501 14.3761 91.865 14.3761 66.4955C14.3761 41.1259 35.0125 20.4895 60.3821 20.4895C85.7516 20.4895 106.388 41.1259 106.388 66.4955C106.388 74.283 104.406 81.9696 100.67 88.7348C99.85 90.2116 100.393 92.0796 101.869 92.9C103.346 93.7204 105.214 93.1777 106.035 91.7009C110.276 84.027 112.522 75.318 112.522 66.4955C112.522 37.7433 89.1342 14.3553 60.3821 14.3553C31.6299 14.3553 8.24194 37.7433 8.24194 66.4955C8.24194 95.2476 31.6299 118.636 60.3821 118.636C70.7444 118.636 80.7534 115.594 89.3362 109.851C89.3614 109.838 89.3993 109.826 89.4245 109.8C92.378 107.768 95.8363 106.759 99.4335 106.746C106.136 106.809 112.27 110.798 115.072 116.894C115.589 118.017 116.7 118.686 117.861 118.686C118.29 118.686 118.719 118.598 119.136 118.408C120.676 117.689 121.345 115.871 120.638 114.332Z" fill="#CC6DCC"/>
</g>
<g filter="url(#filter1_ddd_182_34)">
<path d="M155.339 26.5547V25.8047C155.091 25.8047 154.859 25.9274 154.719 26.1325C154.579 26.3376 154.55 26.5985 154.641 26.8294L155.339 26.5547ZM165.8 26.5547L166.5 26.2871C166.39 25.9966 166.111 25.8047 165.8 25.8047V26.5547ZM187.778 84.0898L187.077 84.3575C187.188 84.6482 187.467 84.8401 187.778 84.8398C188.09 84.8396 188.368 84.6473 188.479 84.3564L187.778 84.0898ZM209.655 26.5547V25.8047C209.344 25.8047 209.065 25.9971 208.954 26.2881L209.655 26.5547ZM220.116 26.5547L220.814 26.8294C220.905 26.5985 220.876 26.3376 220.736 26.1325C220.596 25.9274 220.364 25.8047 220.116 25.8047V26.5547ZM192.556 96.5625V97.3125C192.864 97.3125 193.141 97.124 193.254 96.8372L192.556 96.5625ZM182.899 96.5625L182.202 96.8372C182.314 97.124 182.591 97.3125 182.899 97.3125V96.5625ZM155.339 26.5547V27.3047H165.8V26.5547V25.8047H155.339V26.5547ZM165.8 26.5547L165.099 26.8223L187.077 84.3575L187.778 84.0898L188.479 83.8222L166.5 26.2871L165.8 26.5547ZM187.778 84.0898L188.479 84.3564L210.356 26.8213L209.655 26.5547L208.954 26.2881L187.077 83.8233L187.778 84.0898ZM209.655 26.5547V27.3047H220.116V26.5547V25.8047H209.655V26.5547ZM220.116 26.5547L219.418 26.28L191.858 96.2878L192.556 96.5625L193.254 96.8372L220.814 26.8294L220.116 26.5547ZM192.556 96.5625V95.8125H182.899V96.5625V97.3125H192.556V96.5625ZM182.899 96.5625L183.597 96.2878L156.037 26.28L155.339 26.5547L154.641 26.8294L182.202 96.8372L182.899 96.5625ZM225.648 26.5547V25.8047C225.234 25.8047 224.898 26.1405 224.898 26.5547H225.648ZM270.862 26.5547H271.612C271.612 26.1405 271.276 25.8047 270.862 25.8047V26.5547ZM270.862 35.3057V36.0557C271.276 36.0557 271.612 35.7199 271.612 35.3057H270.862ZM235.707 35.3057V34.5557C235.293 34.5557 234.957 34.8914 234.957 35.3057H235.707ZM235.707 55.9258H234.957C234.957 56.34 235.293 56.6758 235.707 56.6758V55.9258ZM262.312 55.9258H263.062C263.062 55.5116 262.726 55.1758 262.312 55.1758V55.9258ZM262.312 64.375V65.125C262.726 65.125 263.062 64.7892 263.062 64.375H262.312ZM235.707 64.375V63.625C235.293 63.625 234.957 63.9608 234.957 64.375H235.707ZM235.707 87.7109H234.957C234.957 88.1252 235.293 88.4609 235.707 88.4609V87.7109ZM270.862 87.7109H271.612C271.612 87.2967 271.276 86.9609 270.862 86.9609V87.7109ZM270.862 96.5625V97.3125C271.276 97.3125 271.612 96.9767 271.612 96.5625H270.862ZM225.648 96.5625H224.898C224.898 96.9767 225.234 97.3125 225.648 97.3125V96.5625ZM225.648 26.5547V27.3047H270.862V26.5547V25.8047H225.648V26.5547ZM270.862 26.5547H270.112V35.3057H270.862H271.612V26.5547H270.862ZM270.862 35.3057V34.5557H235.707V35.3057V36.0557H270.862V35.3057ZM235.707 35.3057H234.957V55.9258H235.707H236.457V35.3057H235.707ZM235.707 55.9258V56.6758H262.312V55.9258V55.1758H235.707V55.9258ZM262.312 55.9258H261.562V64.375H262.312H263.062V55.9258H262.312ZM262.312 64.375V63.625H235.707V64.375V65.125H262.312V64.375ZM235.707 64.375H234.957V87.7109H235.707H236.457V64.375H235.707ZM235.707 87.7109V88.4609H270.862V87.7109V86.9609H235.707V87.7109ZM270.862 87.7109H270.112V96.5625H270.862H271.612V87.7109H270.862ZM270.862 96.5625V95.8125H225.648V96.5625V97.3125H270.862V96.5625ZM225.648 96.5625H226.398V26.5547H225.648H224.898V96.5625H225.648ZM286.604 26.5547V25.8047C286.189 25.8047 285.854 26.1405 285.854 26.5547H286.604ZM332.068 38.3232L332.745 38.0005L332.743 37.9948L332.068 38.3232ZM332.672 57.1831L331.974 56.9094L331.97 56.9177L332.672 57.1831ZM328.699 63.5703L328.158 63.0503L328.158 63.0507L328.699 63.5703ZM315.12 70.3096L314.982 69.5722C314.77 69.6117 314.585 69.7406 314.475 69.9261C314.365 70.1116 314.34 70.3356 314.406 70.5409L315.12 70.3096ZM327.24 85.498L327.576 84.8272L327.569 84.8241L327.24 85.498ZM331.968 87.0068L331.928 87.7558C331.934 87.7561 331.939 87.7563 331.944 87.7565L331.968 87.0068ZM336.494 86.8057H337.244C337.244 86.5771 337.14 86.361 336.961 86.2187C336.782 86.0764 336.548 86.0235 336.326 86.0749L336.494 86.8057ZM336.494 96.5625V97.3125C336.908 97.3125 337.244 96.9767 337.244 96.5625H336.494ZM314.969 88.5156L315.502 87.9886L315.499 87.9853L314.969 88.5156ZM305.564 70.9131L306.295 70.7467C306.218 70.4053 305.914 70.1631 305.564 70.1631V70.9131ZM296.662 70.9131V70.1631C296.248 70.1631 295.912 70.4989 295.912 70.9131H296.662ZM296.662 96.5625V97.3125C297.076 97.3125 297.412 96.9767 297.412 96.5625H296.662ZM286.604 96.5625H285.854C285.854 96.9767 286.189 97.3125 286.604 97.3125V96.5625ZM314.466 35.6074L314.242 36.3233L314.243 36.3235L314.466 35.6074ZM296.662 34.6016V33.8516C296.248 33.8516 295.912 34.1873 295.912 34.6016H296.662ZM296.662 62.8662H295.912C295.912 63.2804 296.248 63.6162 296.662 63.6162V62.8662ZM286.604 26.5547V27.3047H306.469V26.5547V25.8047H286.604V26.5547ZM306.469 26.5547V27.3047C319.592 27.3047 327.757 31.1852 331.394 38.6517L332.068 38.3232L332.743 37.9948C328.736 29.7699 319.834 25.8047 306.469 25.8047V26.5547ZM332.068 38.3232L331.391 38.646C332.712 41.416 333.38 44.5557 333.38 48.0801H334.13H334.88C334.88 44.3623 334.174 40.9975 332.745 38.0005L332.068 38.3232ZM334.13 48.0801H333.38C333.38 51.6045 332.902 54.54 331.974 56.9095L332.672 57.1831L333.37 57.4568C334.386 54.864 334.88 51.7308 334.88 48.0801H334.13ZM332.672 57.1831L331.97 56.9177C331.065 59.3112 329.793 61.3518 328.158 63.0503L328.699 63.5703L329.239 64.0903C331.025 62.2348 332.401 60.0173 333.373 57.4485L332.672 57.1831ZM328.699 63.5703L328.158 63.0507C325.004 66.3333 320.632 68.5211 314.982 69.5722L315.12 70.3096L315.257 71.0469C321.141 69.9522 325.822 67.6472 329.24 64.0899L328.699 63.5703ZM315.12 70.3096L314.406 70.5409C316.835 78.0322 320.99 83.281 326.911 86.172L327.24 85.498L327.569 84.8241C322.091 82.1493 318.165 77.2725 315.833 70.0783L315.12 70.3096ZM327.24 85.498L326.905 86.1689C328.823 87.1278 330.506 87.6809 331.928 87.7558L331.968 87.0068L332.007 86.2579C330.882 86.1986 329.413 85.7459 327.576 84.8272L327.24 85.498ZM331.968 87.0068L331.944 87.7565C334.09 87.8235 335.687 87.7618 336.663 87.5365L336.494 86.8057L336.326 86.0749C335.558 86.2519 334.137 86.3243 331.991 86.2572L331.968 87.0068ZM336.494 86.8057H335.744V96.5625H336.494H337.244V86.8057H336.494ZM336.494 96.5625V95.8125H334.231V96.5625V97.3125H336.494V96.5625ZM334.231 96.5625V95.8125C326.887 95.8125 320.659 93.2104 315.502 87.9886L314.969 88.5156L314.435 89.0426C319.874 94.55 326.487 97.3125 334.231 97.3125V96.5625ZM314.969 88.5156L315.499 87.9853C310.949 83.4347 307.877 77.6978 306.295 70.7467L305.564 70.9131L304.833 71.0795C306.47 78.2775 309.668 84.2756 314.438 89.046L314.969 88.5156ZM305.564 70.9131V70.1631H296.662V70.9131V71.6631H305.564V70.9131ZM296.662 70.9131H295.912V96.5625H296.662H297.412V70.9131H296.662ZM296.662 96.5625V95.8125H286.604V96.5625V97.3125H296.662V96.5625ZM286.604 96.5625H287.354V26.5547H286.604H285.854V96.5625H286.604ZM305.815 62.8662V63.6162C311.957 63.6162 316.653 62.433 319.764 59.93L319.294 59.3457L318.824 58.7614C316.101 60.9524 311.812 62.1162 305.815 62.1162V62.8662ZM319.294 59.3457L319.764 59.93C322.912 57.3974 324.419 53.4919 324.419 48.3818H323.669H322.919C322.919 53.1963 321.51 56.5999 318.824 58.7614L319.294 59.3457ZM323.669 48.3818H324.419C324.419 44.9629 323.624 42.0824 321.977 39.796C320.328 37.5077 317.876 35.8842 314.689 34.8914L314.466 35.6074L314.243 36.3235C317.191 37.2418 319.341 38.703 320.76 40.6728C322.181 42.6445 322.919 45.1956 322.919 48.3818H323.669ZM314.466 35.6074L314.69 34.8916C312.451 34.1919 309.772 33.8516 306.67 33.8516V34.6016V35.3516C309.671 35.3516 312.189 35.6818 314.242 36.3233L314.466 35.6074ZM306.67 34.6016V33.8516H296.662V34.6016V35.3516H306.67V34.6016ZM296.662 34.6016H295.912V62.8662H296.662H297.412V34.6016H296.662ZM296.662 62.8662V63.6162H305.815V62.8662V62.1162H296.662V62.8662ZM363.099 35.4062H363.849C363.849 34.992 363.513 34.6562 363.099 34.6562V35.4062ZM342.026 35.4062H341.276C341.276 35.8205 341.612 36.1562 342.026 36.1562V35.4062ZM342.026 26.5547V25.8047C341.612 25.8047 341.276 26.1405 341.276 26.5547H342.026ZM394.231 26.5547H394.981C394.981 26.1405 394.645 25.8047 394.231 25.8047V26.5547ZM394.231 35.4062V36.1562C394.645 36.1562 394.981 35.8205 394.981 35.4062H394.231ZM373.158 35.4062V34.6562C372.744 34.6562 372.408 34.992 372.408 35.4062H373.158ZM373.158 96.5625V97.3125C373.572 97.3125 373.908 96.9767 373.908 96.5625H373.158ZM363.099 96.5625H362.349C362.349 96.9767 362.685 97.3125 363.099 97.3125V96.5625ZM363.099 35.4062V34.6562H342.026V35.4062V36.1562H363.099V35.4062ZM342.026 35.4062H342.776V26.5547H342.026H341.276V35.4062H342.026ZM342.026 26.5547V27.3047H394.231V26.5547V25.8047H342.026V26.5547ZM394.231 26.5547H393.481V35.4062H394.231H394.981V26.5547H394.231ZM394.231 35.4062V34.6562H373.158V35.4062V36.1562H394.231V35.4062ZM373.158 35.4062H372.408V96.5625H373.158H373.908V35.4062H373.158ZM373.158 96.5625V95.8125H363.099V96.5625V97.3125H373.158V96.5625ZM363.099 96.5625H363.849V35.4062H363.099H362.349V96.5625H363.099ZM406.2 26.5547V25.8047C405.786 25.8047 405.45 26.1405 405.45 26.5547H406.2ZM416.259 26.5547H417.009C417.009 26.1405 416.673 25.8047 416.259 25.8047V26.5547ZM416.259 96.5625V97.3125C416.673 97.3125 417.009 96.9767 417.009 96.5625H416.259ZM406.2 96.5625H405.45C405.45 96.9767 405.786 97.3125 406.2 97.3125V96.5625ZM406.2 26.5547V27.3047H416.259V26.5547V25.8047H406.2V26.5547ZM416.259 26.5547H415.509V96.5625H416.259H417.009V26.5547H416.259ZM416.259 96.5625V95.8125H406.2V96.5625V97.3125H416.259V96.5625ZM406.2 96.5625H406.95V26.5547H406.2H405.45V96.5625H406.2ZM484.356 95.8584L484.545 96.5841C484.875 96.498 485.106 96.1997 485.106 95.8584H484.356ZM452.822 95.0034L452.574 95.7111L452.575 95.7117L452.822 95.0034ZM441.204 88.0127L441.72 87.4685L441.716 87.4642L441.204 88.0127ZM436.175 41.2402L436.801 41.6527L436.802 41.6511L436.175 41.2402ZM458.756 26.957L458.614 26.2207L458.608 26.2218L458.756 26.957ZM481.941 26.7056H482.691C482.691 26.3295 482.413 26.0115 482.04 25.9621L481.941 26.7056ZM481.941 36.3618L481.756 37.0884C481.98 37.1458 482.218 37.0963 482.401 36.9542C482.584 36.8122 482.691 36.5935 482.691 36.3618H481.941ZM447.943 42.2461L448.468 42.7824L448.474 42.7764L447.943 42.2461ZM447.843 80.4185L447.286 80.9214L447.287 80.9219L447.843 80.4185ZM474.297 88.1636L474.367 88.9103C474.753 88.8739 475.047 88.5505 475.047 88.1636H474.297ZM474.297 62.3633V61.6133C473.883 61.6133 473.547 61.9491 473.547 62.3633H474.297ZM484.356 62.3633H485.106C485.106 61.9491 484.77 61.6133 484.356 61.6133V62.3633ZM484.356 95.8584L484.166 95.1327C480.397 96.1158 475.372 96.6172 469.066 96.6172V97.3672V98.1172C475.434 98.1172 480.602 97.6127 484.545 96.5841L484.356 95.8584ZM469.066 97.3672V96.6172C462.822 96.6172 457.495 95.8362 453.068 94.2951L452.822 95.0034L452.575 95.7117C457.201 97.3223 462.704 98.1172 469.066 98.1172V97.3672ZM452.822 95.0034L453.07 94.2957C448.671 92.7526 444.891 90.4759 441.72 87.4685L441.204 88.0127L440.688 88.5569C444.022 91.7188 447.987 94.1025 452.574 95.7111L452.822 95.0034ZM441.204 88.0127L441.716 87.4642C434.926 81.1315 431.493 72.2959 431.493 60.8545H430.743H429.993C429.993 72.6149 433.534 81.8847 440.693 88.5612L441.204 88.0127ZM430.743 60.8545H431.493C431.493 53.4009 433.272 47.0113 436.801 41.6527L436.175 41.2402L435.548 40.8277C431.835 46.4666 429.993 53.1531 429.993 60.8545H430.743ZM436.175 41.2402L436.802 41.6511C441.57 34.3691 448.908 29.7048 458.904 27.6923L458.756 26.957L458.608 26.2218C448.286 28.2998 440.57 33.1576 435.547 40.8294L436.175 41.2402ZM458.756 26.957L458.899 27.6934C461.955 27.1019 465.726 26.8018 470.223 26.8018V26.0518V25.3018C465.667 25.3018 461.794 25.6052 458.614 26.2207L458.756 26.957ZM470.223 26.0518V26.8018C474.728 26.8018 478.599 27.0188 481.843 27.4491L481.941 26.7056L482.04 25.9621C478.712 25.5206 474.772 25.3018 470.223 25.3018V26.0518ZM481.941 26.7056H481.191V36.3618H481.941H482.691V26.7056H481.941ZM481.941 36.3618L482.127 35.6352C479.153 34.8743 474.955 34.5054 469.569 34.5054V35.2554V36.0054C474.913 36.0054 478.963 36.374 481.756 37.0884L481.941 36.3618ZM469.569 35.2554V34.5054C464.189 34.5054 459.722 35.1134 456.193 36.3587L456.443 37.0659L456.693 37.7732C460.004 36.6044 464.287 36.0054 469.569 36.0054V35.2554ZM456.443 37.0659L456.193 36.3587C452.683 37.5977 449.749 39.3796 447.413 41.7158L447.943 42.2461L448.474 42.7764C450.63 40.6197 453.363 38.9482 456.693 37.7732L456.443 37.0659ZM447.943 42.2461L447.419 41.7098C442.745 46.2794 440.454 52.6978 440.454 60.8545H441.204H441.954C441.954 52.9845 444.156 46.9973 448.468 42.7824L447.943 42.2461ZM441.204 60.8545H440.454C440.454 69.1423 442.709 75.858 447.286 80.9214L447.843 80.4185L448.399 79.9155C444.126 75.1886 441.954 68.8616 441.954 60.8545H441.204ZM447.843 80.4185L447.287 80.9219C452.291 86.447 459.405 89.165 468.513 89.165V88.415V87.665C459.717 87.665 453.051 85.052 448.399 79.915L447.843 80.4185ZM468.513 88.415V89.165C470.612 89.165 472.563 89.0804 474.367 88.9103L474.297 88.1636L474.226 87.4169C472.476 87.582 470.572 87.665 468.513 87.665V88.415ZM474.297 88.1636H475.047V62.3633H474.297H473.547V88.1636H474.297ZM474.297 62.3633V63.1133H484.356V62.3633V61.6133H474.297V62.3633ZM484.356 62.3633H483.606V95.8584H484.356H485.106V62.3633H484.356ZM507.591 35.5068L507.045 34.9922L507.043 34.9945L507.591 35.5068ZM555.319 35.5068L554.77 36.0185L554.771 36.0188L555.319 35.5068ZM555.319 87.7109L554.773 87.1962L554.772 87.198L555.319 87.7109ZM507.591 87.7109L507.045 88.2257L507.047 88.2269L507.591 87.7109ZM513.928 80.5693L513.326 81.0174L513.329 81.0205L513.928 80.5693ZM548.982 80.5693L548.381 80.12L548.381 80.1205L548.982 80.5693ZM548.982 42.6484L548.379 43.0938L548.379 43.0939L548.982 42.6484ZM513.928 42.6484L514.529 43.0965L514.531 43.0938L513.928 42.6484ZM498.287 61.6592H499.037C499.037 56.2693 499.847 51.414 501.454 47.0838L500.751 46.8228L500.048 46.5617C498.37 51.0831 497.537 56.1187 497.537 61.6592H498.287ZM500.751 46.8228L501.454 47.0838C503.066 42.7414 505.296 39.0574 508.139 36.0192L507.591 35.5068L507.043 34.9945C504.051 38.1926 501.722 42.0526 500.048 46.5617L500.751 46.8228ZM507.591 35.5068L508.136 36.0215C514.116 29.6823 521.874 26.5 531.48 26.5V25.75V25C521.505 25 513.337 28.3223 507.045 34.9922L507.591 35.5068ZM531.48 25.75V26.5C541.12 26.5 548.859 29.6827 554.77 36.0185L555.319 35.5068L555.867 34.9952C549.641 28.3219 541.488 25 531.48 25V25.75ZM555.319 35.5068L554.771 36.0188C560.785 42.4584 563.823 50.9796 563.823 61.6592H564.573H565.323C565.323 50.6793 562.191 41.7656 555.867 34.9949L555.319 35.5068ZM564.573 61.6592H563.823C563.823 72.3391 560.785 80.8248 554.773 87.1962L555.319 87.7109L555.864 88.2257C562.191 81.5209 565.323 72.6388 565.323 61.6592H564.573ZM555.319 87.7109L554.772 87.198C548.896 93.4657 541.157 96.6172 531.48 96.6172V97.3672V98.1172C541.518 98.1172 549.672 94.8312 555.866 88.2239L555.319 87.7109ZM531.48 97.3672V96.6172C521.838 96.6172 514.08 93.4662 508.135 87.195L507.591 87.7109L507.047 88.2269C513.306 94.8307 521.475 98.1172 531.48 98.1172V97.3672ZM507.591 87.7109L508.136 87.1961C502.09 80.7901 499.037 72.3036 499.037 61.6592H498.287H497.537C497.537 72.6072 500.686 81.4886 507.045 88.2257L507.591 87.7109ZM508.345 61.6089H507.595C507.595 69.3775 509.488 75.8651 513.326 81.0174L513.928 80.5693L514.529 80.1213C510.924 75.2821 509.095 69.1294 509.095 61.6089H508.345ZM513.928 80.5693L513.329 81.0205C517.674 86.7908 523.755 89.668 531.48 89.668V88.918V88.168C524.184 88.168 518.564 85.4794 514.527 80.1182L513.928 80.5693ZM531.48 88.918V89.668C539.205 89.668 545.271 86.7906 549.583 81.0182L548.982 80.5693L548.381 80.1205C544.378 85.4796 538.776 88.168 531.48 88.168V88.918ZM548.982 80.5693L549.582 81.0187C553.389 75.9316 555.264 69.4762 555.264 61.7095H554.514H553.764C553.764 69.2318 551.951 75.3496 548.381 80.12L548.982 80.5693ZM554.514 61.7095H555.264C555.264 53.8769 553.39 47.3562 549.585 42.203L548.982 42.6484L548.379 43.0939C551.951 47.9322 553.764 54.1188 553.764 61.7095H554.514ZM548.982 42.6484L549.585 42.203C545.275 36.363 539.208 33.4492 531.48 33.4492V34.1992V34.9492C538.773 34.9492 544.374 37.6683 548.379 43.0938L548.982 42.6484ZM531.48 34.1992V33.4492C523.719 33.4492 517.636 36.362 513.324 42.203L513.928 42.6484L514.531 43.0938C518.535 37.6692 524.153 34.9492 531.48 34.9492V34.1992ZM513.928 42.6484L513.326 42.2004C509.488 47.3527 507.595 53.8403 507.595 61.6089H508.345H509.095C509.095 54.0884 510.924 47.9357 514.529 43.0965L513.928 42.6484Z" fill="#CC00CC"/>
<path d="M155.339 26.5547V25.8047C155.091 25.8047 154.859 25.9274 154.719 26.1325C154.579 26.3376 154.55 26.5985 154.641 26.8294L155.339 26.5547ZM165.8 26.5547L166.5 26.2871C166.39 25.9966 166.111 25.8047 165.8 25.8047V26.5547ZM187.778 84.0898L187.077 84.3575C187.188 84.6482 187.467 84.8401 187.778 84.8398C188.09 84.8396 188.368 84.6473 188.479 84.3564L187.778 84.0898ZM209.655 26.5547V25.8047C209.344 25.8047 209.065 25.9971 208.954 26.2881L209.655 26.5547ZM220.116 26.5547L220.814 26.8294C220.905 26.5985 220.876 26.3376 220.736 26.1325C220.596 25.9274 220.364 25.8047 220.116 25.8047V26.5547ZM192.556 96.5625V97.3125C192.864 97.3125 193.141 97.124 193.254 96.8372L192.556 96.5625ZM182.899 96.5625L182.202 96.8372C182.314 97.124 182.591 97.3125 182.899 97.3125V96.5625ZM155.339 26.5547V27.3047H165.8V26.5547V25.8047H155.339V26.5547ZM165.8 26.5547L165.099 26.8223L187.077 84.3575L187.778 84.0898L188.479 83.8222L166.5 26.2871L165.8 26.5547ZM187.778 84.0898L188.479 84.3564L210.356 26.8213L209.655 26.5547L208.954 26.2881L187.077 83.8233L187.778 84.0898ZM209.655 26.5547V27.3047H220.116V26.5547V25.8047H209.655V26.5547ZM220.116 26.5547L219.418 26.28L191.858 96.2878L192.556 96.5625L193.254 96.8372L220.814 26.8294L220.116 26.5547ZM192.556 96.5625V95.8125H182.899V96.5625V97.3125H192.556V96.5625ZM182.899 96.5625L183.597 96.2878L156.037 26.28L155.339 26.5547L154.641 26.8294L182.202 96.8372L182.899 96.5625ZM225.648 26.5547V25.8047C225.234 25.8047 224.898 26.1405 224.898 26.5547H225.648ZM270.862 26.5547H271.612C271.612 26.1405 271.276 25.8047 270.862 25.8047V26.5547ZM270.862 35.3057V36.0557C271.276 36.0557 271.612 35.7199 271.612 35.3057H270.862ZM235.707 35.3057V34.5557C235.293 34.5557 234.957 34.8914 234.957 35.3057H235.707ZM235.707 55.9258H234.957C234.957 56.34 235.293 56.6758 235.707 56.6758V55.9258ZM262.312 55.9258H263.062C263.062 55.5116 262.726 55.1758 262.312 55.1758V55.9258ZM262.312 64.375V65.125C262.726 65.125 263.062 64.7892 263.062 64.375H262.312ZM235.707 64.375V63.625C235.293 63.625 234.957 63.9608 234.957 64.375H235.707ZM235.707 87.7109H234.957C234.957 88.1252 235.293 88.4609 235.707 88.4609V87.7109ZM270.862 87.7109H271.612C271.612 87.2967 271.276 86.9609 270.862 86.9609V87.7109ZM270.862 96.5625V97.3125C271.276 97.3125 271.612 96.9767 271.612 96.5625H270.862ZM225.648 96.5625H224.898C224.898 96.9767 225.234 97.3125 225.648 97.3125V96.5625ZM225.648 26.5547V27.3047H270.862V26.5547V25.8047H225.648V26.5547ZM270.862 26.5547H270.112V35.3057H270.862H271.612V26.5547H270.862ZM270.862 35.3057V34.5557H235.707V35.3057V36.0557H270.862V35.3057ZM235.707 35.3057H234.957V55.9258H235.707H236.457V35.3057H235.707ZM235.707 55.9258V56.6758H262.312V55.9258V55.1758H235.707V55.9258ZM262.312 55.9258H261.562V64.375H262.312H263.062V55.9258H262.312ZM262.312 64.375V63.625H235.707V64.375V65.125H262.312V64.375ZM235.707 64.375H234.957V87.7109H235.707H236.457V64.375H235.707ZM235.707 87.7109V88.4609H270.862V87.7109V86.9609H235.707V87.7109ZM270.862 87.7109H270.112V96.5625H270.862H271.612V87.7109H270.862ZM270.862 96.5625V95.8125H225.648V96.5625V97.3125H270.862V96.5625ZM225.648 96.5625H226.398V26.5547H225.648H224.898V96.5625H225.648ZM286.604 26.5547V25.8047C286.189 25.8047 285.854 26.1405 285.854 26.5547H286.604ZM332.068 38.3232L332.745 38.0005L332.743 37.9948L332.068 38.3232ZM332.672 57.1831L331.974 56.9094L331.97 56.9177L332.672 57.1831ZM328.699 63.5703L328.158 63.0503L328.158 63.0507L328.699 63.5703ZM315.12 70.3096L314.982 69.5722C314.77 69.6117 314.585 69.7406 314.475 69.9261C314.365 70.1116 314.34 70.3356 314.406 70.5409L315.12 70.3096ZM327.24 85.498L327.576 84.8272L327.569 84.8241L327.24 85.498ZM331.968 87.0068L331.928 87.7558C331.934 87.7561 331.939 87.7563 331.944 87.7565L331.968 87.0068ZM336.494 86.8057H337.244C337.244 86.5771 337.14 86.361 336.961 86.2187C336.782 86.0764 336.548 86.0235 336.326 86.0749L336.494 86.8057ZM336.494 96.5625V97.3125C336.908 97.3125 337.244 96.9767 337.244 96.5625H336.494ZM314.969 88.5156L315.502 87.9886L315.499 87.9853L314.969 88.5156ZM305.564 70.9131L306.295 70.7467C306.218 70.4053 305.914 70.1631 305.564 70.1631V70.9131ZM296.662 70.9131V70.1631C296.248 70.1631 295.912 70.4989 295.912 70.9131H296.662ZM296.662 96.5625V97.3125C297.076 97.3125 297.412 96.9767 297.412 96.5625H296.662ZM286.604 96.5625H285.854C285.854 96.9767 286.189 97.3125 286.604 97.3125V96.5625ZM314.466 35.6074L314.242 36.3233L314.243 36.3235L314.466 35.6074ZM296.662 34.6016V33.8516C296.248 33.8516 295.912 34.1873 295.912 34.6016H296.662ZM296.662 62.8662H295.912C295.912 63.2804 296.248 63.6162 296.662 63.6162V62.8662ZM286.604 26.5547V27.3047H306.469V26.5547V25.8047H286.604V26.5547ZM306.469 26.5547V27.3047C319.592 27.3047 327.757 31.1852 331.394 38.6517L332.068 38.3232L332.743 37.9948C328.736 29.7699 319.834 25.8047 306.469 25.8047V26.5547ZM332.068 38.3232L331.391 38.646C332.712 41.416 333.38 44.5557 333.38 48.0801H334.13H334.88C334.88 44.3623 334.174 40.9975 332.745 38.0005L332.068 38.3232ZM334.13 48.0801H333.38C333.38 51.6045 332.902 54.54 331.974 56.9095L332.672 57.1831L333.37 57.4568C334.386 54.864 334.88 51.7308 334.88 48.0801H334.13ZM332.672 57.1831L331.97 56.9177C331.065 59.3112 329.793 61.3518 328.158 63.0503L328.699 63.5703L329.239 64.0903C331.025 62.2348 332.401 60.0173 333.373 57.4485L332.672 57.1831ZM328.699 63.5703L328.158 63.0507C325.004 66.3333 320.632 68.5211 314.982 69.5722L315.12 70.3096L315.257 71.0469C321.141 69.9522 325.822 67.6472 329.24 64.0899L328.699 63.5703ZM315.12 70.3096L314.406 70.5409C316.835 78.0322 320.99 83.281 326.911 86.172L327.24 85.498L327.569 84.8241C322.091 82.1493 318.165 77.2725 315.833 70.0783L315.12 70.3096ZM327.24 85.498L326.905 86.1689C328.823 87.1278 330.506 87.6809 331.928 87.7558L331.968 87.0068L332.007 86.2579C330.882 86.1986 329.413 85.7459 327.576 84.8272L327.24 85.498ZM331.968 87.0068L331.944 87.7565C334.09 87.8235 335.687 87.7618 336.663 87.5365L336.494 86.8057L336.326 86.0749C335.558 86.2519 334.137 86.3243 331.991 86.2572L331.968 87.0068ZM336.494 86.8057H335.744V96.5625H336.494H337.244V86.8057H336.494ZM336.494 96.5625V95.8125H334.231V96.5625V97.3125H336.494V96.5625ZM334.231 96.5625V95.8125C326.887 95.8125 320.659 93.2104 315.502 87.9886L314.969 88.5156L314.435 89.0426C319.874 94.55 326.487 97.3125 334.231 97.3125V96.5625ZM314.969 88.5156L315.499 87.9853C310.949 83.4347 307.877 77.6978 306.295 70.7467L305.564 70.9131L304.833 71.0795C306.47 78.2775 309.668 84.2756 314.438 89.046L314.969 88.5156ZM305.564 70.9131V70.1631H296.662V70.9131V71.6631H305.564V70.9131ZM296.662 70.9131H295.912V96.5625H296.662H297.412V70.9131H296.662ZM296.662 96.5625V95.8125H286.604V96.5625V97.3125H296.662V96.5625ZM286.604 96.5625H287.354V26.5547H286.604H285.854V96.5625H286.604ZM305.815 62.8662V63.6162C311.957 63.6162 316.653 62.433 319.764 59.93L319.294 59.3457L318.824 58.7614C316.101 60.9524 311.812 62.1162 305.815 62.1162V62.8662ZM319.294 59.3457L319.764 59.93C322.912 57.3974 324.419 53.4919 324.419 48.3818H323.669H322.919C322.919 53.1963 321.51 56.5999 318.824 58.7614L319.294 59.3457ZM323.669 48.3818H324.419C324.419 44.9629 323.624 42.0824 321.977 39.796C320.328 37.5077 317.876 35.8842 314.689 34.8914L314.466 35.6074L314.243 36.3235C317.191 37.2418 319.341 38.703 320.76 40.6728C322.181 42.6445 322.919 45.1956 322.919 48.3818H323.669ZM314.466 35.6074L314.69 34.8916C312.451 34.1919 309.772 33.8516 306.67 33.8516V34.6016V35.3516C309.671 35.3516 312.189 35.6818 314.242 36.3233L314.466 35.6074ZM306.67 34.6016V33.8516H296.662V34.6016V35.3516H306.67V34.6016ZM296.662 34.6016H295.912V62.8662H296.662H297.412V34.6016H296.662ZM296.662 62.8662V63.6162H305.815V62.8662V62.1162H296.662V62.8662ZM363.099 35.4062H363.849C363.849 34.992 363.513 34.6562 363.099 34.6562V35.4062ZM342.026 35.4062H341.276C341.276 35.8205 341.612 36.1562 342.026 36.1562V35.4062ZM342.026 26.5547V25.8047C341.612 25.8047 341.276 26.1405 341.276 26.5547H342.026ZM394.231 26.5547H394.981C394.981 26.1405 394.645 25.8047 394.231 25.8047V26.5547ZM394.231 35.4062V36.1562C394.645 36.1562 394.981 35.8205 394.981 35.4062H394.231ZM373.158 35.4062V34.6562C372.744 34.6562 372.408 34.992 372.408 35.4062H373.158ZM373.158 96.5625V97.3125C373.572 97.3125 373.908 96.9767 373.908 96.5625H373.158ZM363.099 96.5625H362.349C362.349 96.9767 362.685 97.3125 363.099 97.3125V96.5625ZM363.099 35.4062V34.6562H342.026V35.4062V36.1562H363.099V35.4062ZM342.026 35.4062H342.776V26.5547H342.026H341.276V35.4062H342.026ZM342.026 26.5547V27.3047H394.231V26.5547V25.8047H342.026V26.5547ZM394.231 26.5547H393.481V35.4062H394.231H394.981V26.5547H394.231ZM394.231 35.4062V34.6562H373.158V35.4062V36.1562H394.231V35.4062ZM373.158 35.4062H372.408V96.5625H373.158H373.908V35.4062H373.158ZM373.158 96.5625V95.8125H363.099V96.5625V97.3125H373.158V96.5625ZM363.099 96.5625H363.849V35.4062H363.099H362.349V96.5625H363.099ZM406.2 26.5547V25.8047C405.786 25.8047 405.45 26.1405 405.45 26.5547H406.2ZM416.259 26.5547H417.009C417.009 26.1405 416.673 25.8047 416.259 25.8047V26.5547ZM416.259 96.5625V97.3125C416.673 97.3125 417.009 96.9767 417.009 96.5625H416.259ZM406.2 96.5625H405.45C405.45 96.9767 405.786 97.3125 406.2 97.3125V96.5625ZM406.2 26.5547V27.3047H416.259V26.5547V25.8047H406.2V26.5547ZM416.259 26.5547H415.509V96.5625H416.259H417.009V26.5547H416.259ZM416.259 96.5625V95.8125H406.2V96.5625V97.3125H416.259V96.5625ZM406.2 96.5625H406.95V26.5547H406.2H405.45V96.5625H406.2ZM484.356 95.8584L484.545 96.5841C484.875 96.498 485.106 96.1997 485.106 95.8584H484.356ZM452.822 95.0034L452.574 95.7111L452.575 95.7117L452.822 95.0034ZM441.204 88.0127L441.72 87.4685L441.716 87.4642L441.204 88.0127ZM436.175 41.2402L436.801 41.6527L436.802 41.6511L436.175 41.2402ZM458.756 26.957L458.614 26.2207L458.608 26.2218L458.756 26.957ZM481.941 26.7056H482.691C482.691 26.3295 482.413 26.0115 482.04 25.9621L481.941 26.7056ZM481.941 36.3618L481.756 37.0884C481.98 37.1458 482.218 37.0963 482.401 36.9542C482.584 36.8122 482.691 36.5935 482.691 36.3618H481.941ZM447.943 42.2461L448.468 42.7824L448.474 42.7764L447.943 42.2461ZM447.843 80.4185L447.286 80.9214L447.287 80.9219L447.843 80.4185ZM474.297 88.1636L474.367 88.9103C474.753 88.8739 475.047 88.5505 475.047 88.1636H474.297ZM474.297 62.3633V61.6133C473.883 61.6133 473.547 61.9491 473.547 62.3633H474.297ZM484.356 62.3633H485.106C485.106 61.9491 484.77 61.6133 484.356 61.6133V62.3633ZM484.356 95.8584L484.166 95.1327C480.397 96.1158 475.372 96.6172 469.066 96.6172V97.3672V98.1172C475.434 98.1172 480.602 97.6127 484.545 96.5841L484.356 95.8584ZM469.066 97.3672V96.6172C462.822 96.6172 457.495 95.8362 453.068 94.2951L452.822 95.0034L452.575 95.7117C457.201 97.3223 462.704 98.1172 469.066 98.1172V97.3672ZM452.822 95.0034L453.07 94.2957C448.671 92.7526 444.891 90.4759 441.72 87.4685L441.204 88.0127L440.688 88.5569C444.022 91.7188 447.987 94.1025 452.574 95.7111L452.822 95.0034ZM441.204 88.0127L441.716 87.4642C434.926 81.1315 431.493 72.2959 431.493 60.8545H430.743H429.993C429.993 72.6149 433.534 81.8847 440.693 88.5612L441.204 88.0127ZM430.743 60.8545H431.493C431.493 53.4009 433.272 47.0113 436.801 41.6527L436.175 41.2402L435.548 40.8277C431.835 46.4666 429.993 53.1531 429.993 60.8545H430.743ZM436.175 41.2402L436.802 41.6511C441.57 34.3691 448.908 29.7048 458.904 27.6923L458.756 26.957L458.608 26.2218C448.286 28.2998 440.57 33.1576 435.547 40.8294L436.175 41.2402ZM458.756 26.957L458.899 27.6934C461.955 27.1019 465.726 26.8018 470.223 26.8018V26.0518V25.3018C465.667 25.3018 461.794 25.6052 458.614 26.2207L458.756 26.957ZM470.223 26.0518V26.8018C474.728 26.8018 478.599 27.0188 481.843 27.4491L481.941 26.7056L482.04 25.9621C478.712 25.5206 474.772 25.3018 470.223 25.3018V26.0518ZM481.941 26.7056H481.191V36.3618H481.941H482.691V26.7056H481.941ZM481.941 36.3618L482.127 35.6352C479.153 34.8743 474.955 34.5054 469.569 34.5054V35.2554V36.0054C474.913 36.0054 478.963 36.374 481.756 37.0884L481.941 36.3618ZM469.569 35.2554V34.5054C464.189 34.5054 459.722 35.1134 456.193 36.3587L456.443 37.0659L456.693 37.7732C460.004 36.6044 464.287 36.0054 469.569 36.0054V35.2554ZM456.443 37.0659L456.193 36.3587C452.683 37.5977 449.749 39.3796 447.413 41.7158L447.943 42.2461L448.474 42.7764C450.63 40.6197 453.363 38.9482 456.693 37.7732L456.443 37.0659ZM447.943 42.2461L447.419 41.7098C442.745 46.2794 440.454 52.6978 440.454 60.8545H441.204H441.954C441.954 52.9845 444.156 46.9973 448.468 42.7824L447.943 42.2461ZM441.204 60.8545H440.454C440.454 69.1423 442.709 75.858 447.286 80.9214L447.843 80.4185L448.399 79.9155C444.126 75.1886 441.954 68.8616 441.954 60.8545H441.204ZM447.843 80.4185L447.287 80.9219C452.291 86.447 459.405 89.165 468.513 89.165V88.415V87.665C459.717 87.665 453.051 85.052 448.399 79.915L447.843 80.4185ZM468.513 88.415V89.165C470.612 89.165 472.563 89.0804 474.367 88.9103L474.297 88.1636L474.226 87.4169C472.476 87.582 470.572 87.665 468.513 87.665V88.415ZM474.297 88.1636H475.047V62.3633H474.297H473.547V88.1636H474.297ZM474.297 62.3633V63.1133H484.356V62.3633V61.6133H474.297V62.3633ZM484.356 62.3633H483.606V95.8584H484.356H485.106V62.3633H484.356ZM507.591 35.5068L507.045 34.9922L507.043 34.9945L507.591 35.5068ZM555.319 35.5068L554.77 36.0185L554.771 36.0188L555.319 35.5068ZM555.319 87.7109L554.773 87.1962L554.772 87.198L555.319 87.7109ZM507.591 87.7109L507.045 88.2257L507.047 88.2269L507.591 87.7109ZM513.928 80.5693L513.326 81.0174L513.329 81.0205L513.928 80.5693ZM548.982 80.5693L548.381 80.12L548.381 80.1205L548.982 80.5693ZM548.982 42.6484L548.379 43.0938L548.379 43.0939L548.982 42.6484ZM513.928 42.6484L514.529 43.0965L514.531 43.0938L513.928 42.6484ZM498.287 61.6592H499.037C499.037 56.2693 499.847 51.414 501.454 47.0838L500.751 46.8228L500.048 46.5617C498.37 51.0831 497.537 56.1187 497.537 61.6592H498.287ZM500.751 46.8228L501.454 47.0838C503.066 42.7414 505.296 39.0574 508.139 36.0192L507.591 35.5068L507.043 34.9945C504.051 38.1926 501.722 42.0526 500.048 46.5617L500.751 46.8228ZM507.591 35.5068L508.136 36.0215C514.116 29.6823 521.874 26.5 531.48 26.5V25.75V25C521.505 25 513.337 28.3223 507.045 34.9922L507.591 35.5068ZM531.48 25.75V26.5C541.12 26.5 548.859 29.6827 554.77 36.0185L555.319 35.5068L555.867 34.9952C549.641 28.3219 541.488 25 531.48 25V25.75ZM555.319 35.5068L554.771 36.0188C560.785 42.4584 563.823 50.9796 563.823 61.6592H564.573H565.323C565.323 50.6793 562.191 41.7656 555.867 34.9949L555.319 35.5068ZM564.573 61.6592H563.823C563.823 72.3391 560.785 80.8248 554.773 87.1962L555.319 87.7109L555.864 88.2257C562.191 81.5209 565.323 72.6388 565.323 61.6592H564.573ZM555.319 87.7109L554.772 87.198C548.896 93.4657 541.157 96.6172 531.48 96.6172V97.3672V98.1172C541.518 98.1172 549.672 94.8312 555.866 88.2239L555.319 87.7109ZM531.48 97.3672V96.6172C521.838 96.6172 514.08 93.4662 508.135 87.195L507.591 87.7109L507.047 88.2269C513.306 94.8307 521.475 98.1172 531.48 98.1172V97.3672ZM507.591 87.7109L508.136 87.1961C502.09 80.7901 499.037 72.3036 499.037 61.6592H498.287H497.537C497.537 72.6072 500.686 81.4886 507.045 88.2257L507.591 87.7109ZM508.345 61.6089H507.595C507.595 69.3775 509.488 75.8651 513.326 81.0174L513.928 80.5693L514.529 80.1213C510.924 75.2821 509.095 69.1294 509.095 61.6089H508.345ZM513.928 80.5693L513.329 81.0205C517.674 86.7908 523.755 89.668 531.48 89.668V88.918V88.168C524.184 88.168 518.564 85.4794 514.527 80.1182L513.928 80.5693ZM531.48 88.918V89.668C539.205 89.668 545.271 86.7906 549.583 81.0182L548.982 80.5693L548.381 80.1205C544.378 85.4796 538.776 88.168 531.48 88.168V88.918ZM548.982 80.5693L549.582 81.0187C553.389 75.9316 555.264 69.4762 555.264 61.7095H554.514H553.764C553.764 69.2318 551.951 75.3496 548.381 80.12L548.982 80.5693ZM554.514 61.7095H555.264C555.264 53.8769 553.39 47.3562 549.585 42.203L548.982 42.6484L548.379 43.0939C551.951 47.9322 553.764 54.1188 553.764 61.7095H554.514ZM548.982 42.6484L549.585 42.203C545.275 36.363 539.208 33.4492 531.48 33.4492V34.1992V34.9492C538.773 34.9492 544.374 37.6683 548.379 43.0938L548.982 42.6484ZM531.48 34.1992V33.4492C523.719 33.4492 517.636 36.362 513.324 42.203L513.928 42.6484L514.531 43.0938C518.535 37.6692 524.153 34.9492 531.48 34.9492V34.1992ZM513.928 42.6484L513.326 42.2004C509.488 47.3527 507.595 53.8403 507.595 61.6089H508.345H509.095C509.095 54.0884 510.924 47.9357 514.529 43.0965L513.928 42.6484Z" fill="#FF66FF" fill-opacity="0.8"/>
</g>
<g filter="url(#filter2_ddd_182_34)">
<path d="M155.339 26.5547V25.8047C155.091 25.8047 154.859 25.9274 154.719 26.1325C154.579 26.3376 154.55 26.5985 154.641 26.8294L155.339 26.5547ZM165.8 26.5547L166.5 26.2871C166.39 25.9966 166.111 25.8047 165.8 25.8047V26.5547ZM187.778 84.0898L187.077 84.3575C187.188 84.6482 187.467 84.8401 187.778 84.8398C188.09 84.8396 188.368 84.6473 188.479 84.3564L187.778 84.0898ZM209.655 26.5547V25.8047C209.344 25.8047 209.065 25.9971 208.954 26.2881L209.655 26.5547ZM220.116 26.5547L220.814 26.8294C220.905 26.5985 220.876 26.3376 220.736 26.1325C220.596 25.9274 220.364 25.8047 220.116 25.8047V26.5547ZM192.556 96.5625V97.3125C192.864 97.3125 193.141 97.124 193.254 96.8372L192.556 96.5625ZM182.899 96.5625L182.202 96.8372C182.314 97.124 182.591 97.3125 182.899 97.3125V96.5625ZM155.339 26.5547V27.3047H165.8V26.5547V25.8047H155.339V26.5547ZM165.8 26.5547L165.099 26.8223L187.077 84.3575L187.778 84.0898L188.479 83.8222L166.5 26.2871L165.8 26.5547ZM187.778 84.0898L188.479 84.3564L210.356 26.8213L209.655 26.5547L208.954 26.2881L187.077 83.8233L187.778 84.0898ZM209.655 26.5547V27.3047H220.116V26.5547V25.8047H209.655V26.5547ZM220.116 26.5547L219.418 26.28L191.858 96.2878L192.556 96.5625L193.254 96.8372L220.814 26.8294L220.116 26.5547ZM192.556 96.5625V95.8125H182.899V96.5625V97.3125H192.556V96.5625ZM182.899 96.5625L183.597 96.2878L156.037 26.28L155.339 26.5547L154.641 26.8294L182.202 96.8372L182.899 96.5625ZM225.648 26.5547V25.8047C225.234 25.8047 224.898 26.1405 224.898 26.5547H225.648ZM270.862 26.5547H271.612C271.612 26.1405 271.276 25.8047 270.862 25.8047V26.5547ZM270.862 35.3057V36.0557C271.276 36.0557 271.612 35.7199 271.612 35.3057H270.862ZM235.707 35.3057V34.5557C235.293 34.5557 234.957 34.8914 234.957 35.3057H235.707ZM235.707 55.9258H234.957C234.957 56.34 235.293 56.6758 235.707 56.6758V55.9258ZM262.312 55.9258H263.062C263.062 55.5116 262.726 55.1758 262.312 55.1758V55.9258ZM262.312 64.375V65.125C262.726 65.125 263.062 64.7892 263.062 64.375H262.312ZM235.707 64.375V63.625C235.293 63.625 234.957 63.9608 234.957 64.375H235.707ZM235.707 87.7109H234.957C234.957 88.1252 235.293 88.4609 235.707 88.4609V87.7109ZM270.862 87.7109H271.612C271.612 87.2967 271.276 86.9609 270.862 86.9609V87.7109ZM270.862 96.5625V97.3125C271.276 97.3125 271.612 96.9767 271.612 96.5625H270.862ZM225.648 96.5625H224.898C224.898 96.9767 225.234 97.3125 225.648 97.3125V96.5625ZM225.648 26.5547V27.3047H270.862V26.5547V25.8047H225.648V26.5547ZM270.862 26.5547H270.112V35.3057H270.862H271.612V26.5547H270.862ZM270.862 35.3057V34.5557H235.707V35.3057V36.0557H270.862V35.3057ZM235.707 35.3057H234.957V55.9258H235.707H236.457V35.3057H235.707ZM235.707 55.9258V56.6758H262.312V55.9258V55.1758H235.707V55.9258ZM262.312 55.9258H261.562V64.375H262.312H263.062V55.9258H262.312ZM262.312 64.375V63.625H235.707V64.375V65.125H262.312V64.375ZM235.707 64.375H234.957V87.7109H235.707H236.457V64.375H235.707ZM235.707 87.7109V88.4609H270.862V87.7109V86.9609H235.707V87.7109ZM270.862 87.7109H270.112V96.5625H270.862H271.612V87.7109H270.862ZM270.862 96.5625V95.8125H225.648V96.5625V97.3125H270.862V96.5625ZM225.648 96.5625H226.398V26.5547H225.648H224.898V96.5625H225.648ZM286.604 26.5547V25.8047C286.189 25.8047 285.854 26.1405 285.854 26.5547H286.604ZM332.068 38.3232L332.745 38.0005L332.743 37.9948L332.068 38.3232ZM332.672 57.1831L331.974 56.9094L331.97 56.9177L332.672 57.1831ZM328.699 63.5703L328.158 63.0503L328.158 63.0507L328.699 63.5703ZM315.12 70.3096L314.982 69.5722C314.77 69.6117 314.585 69.7406 314.475 69.9261C314.365 70.1116 314.34 70.3356 314.406 70.5409L315.12 70.3096ZM327.24 85.498L327.576 84.8272L327.569 84.8241L327.24 85.498ZM331.968 87.0068L331.928 87.7558C331.934 87.7561 331.939 87.7563 331.944 87.7565L331.968 87.0068ZM336.494 86.8057H337.244C337.244 86.5771 337.14 86.361 336.961 86.2187C336.782 86.0764 336.548 86.0235 336.326 86.0749L336.494 86.8057ZM336.494 96.5625V97.3125C336.908 97.3125 337.244 96.9767 337.244 96.5625H336.494ZM314.969 88.5156L315.502 87.9886L315.499 87.9853L314.969 88.5156ZM305.564 70.9131L306.295 70.7467C306.218 70.4053 305.914 70.1631 305.564 70.1631V70.9131ZM296.662 70.9131V70.1631C296.248 70.1631 295.912 70.4989 295.912 70.9131H296.662ZM296.662 96.5625V97.3125C297.076 97.3125 297.412 96.9767 297.412 96.5625H296.662ZM286.604 96.5625H285.854C285.854 96.9767 286.189 97.3125 286.604 97.3125V96.5625ZM314.466 35.6074L314.242 36.3233L314.243 36.3235L314.466 35.6074ZM296.662 34.6016V33.8516C296.248 33.8516 295.912 34.1873 295.912 34.6016H296.662ZM296.662 62.8662H295.912C295.912 63.2804 296.248 63.6162 296.662 63.6162V62.8662ZM286.604 26.5547V27.3047H306.469V26.5547V25.8047H286.604V26.5547ZM306.469 26.5547V27.3047C319.592 27.3047 327.757 31.1852 331.394 38.6517L332.068 38.3232L332.743 37.9948C328.736 29.7699 319.834 25.8047 306.469 25.8047V26.5547ZM332.068 38.3232L331.391 38.646C332.712 41.416 333.38 44.5557 333.38 48.0801H334.13H334.88C334.88 44.3623 334.174 40.9975 332.745 38.0005L332.068 38.3232ZM334.13 48.0801H333.38C333.38 51.6045 332.902 54.54 331.974 56.9095L332.672 57.1831L333.37 57.4568C334.386 54.864 334.88 51.7308 334.88 48.0801H334.13ZM332.672 57.1831L331.97 56.9177C331.065 59.3112 329.793 61.3518 328.158 63.0503L328.699 63.5703L329.239 64.0903C331.025 62.2348 332.401 60.0173 333.373 57.4485L332.672 57.1831ZM328.699 63.5703L328.158 63.0507C325.004 66.3333 320.632 68.5211 314.982 69.5722L315.12 70.3096L315.257 71.0469C321.141 69.9522 325.822 67.6472 329.24 64.0899L328.699 63.5703ZM315.12 70.3096L314.406 70.5409C316.835 78.0322 320.99 83.281 326.911 86.172L327.24 85.498L327.569 84.8241C322.091 82.1493 318.165 77.2725 315.833 70.0783L315.12 70.3096ZM327.24 85.498L326.905 86.1689C328.823 87.1278 330.506 87.6809 331.928 87.7558L331.968 87.0068L332.007 86.2579C330.882 86.1986 329.413 85.7459 327.576 84.8272L327.24 85.498ZM331.968 87.0068L331.944 87.7565C334.09 87.8235 335.687 87.7618 336.663 87.5365L336.494 86.8057L336.326 86.0749C335.558 86.2519 334.137 86.3243 331.991 86.2572L331.968 87.0068ZM336.494 86.8057H335.744V96.5625H336.494H337.244V86.8057H336.494ZM336.494 96.5625V95.8125H334.231V96.5625V97.3125H336.494V96.5625ZM334.231 96.5625V95.8125C326.887 95.8125 320.659 93.2104 315.502 87.9886L314.969 88.5156L314.435 89.0426C319.874 94.55 326.487 97.3125 334.231 97.3125V96.5625ZM314.969 88.5156L315.499 87.9853C310.949 83.4347 307.877 77.6978 306.295 70.7467L305.564 70.9131L304.833 71.0795C306.47 78.2775 309.668 84.2756 314.438 89.046L314.969 88.5156ZM305.564 70.9131V70.1631H296.662V70.9131V71.6631H305.564V70.9131ZM296.662 70.9131H295.912V96.5625H296.662H297.412V70.9131H296.662ZM296.662 96.5625V95.8125H286.604V96.5625V97.3125H296.662V96.5625ZM286.604 96.5625H287.354V26.5547H286.604H285.854V96.5625H286.604ZM305.815 62.8662V63.6162C311.957 63.6162 316.653 62.433 319.764 59.93L319.294 59.3457L318.824 58.7614C316.101 60.9524 311.812 62.1162 305.815 62.1162V62.8662ZM319.294 59.3457L319.764 59.93C322.912 57.3974 324.419 53.4919 324.419 48.3818H323.669H322.919C322.919 53.1963 321.51 56.5999 318.824 58.7614L319.294 59.3457ZM323.669 48.3818H324.419C324.419 44.9629 323.624 42.0824 321.977 39.796C320.328 37.5077 317.876 35.8842 314.689 34.8914L314.466 35.6074L314.243 36.3235C317.191 37.2418 319.341 38.703 320.76 40.6728C322.181 42.6445 322.919 45.1956 322.919 48.3818H323.669ZM314.466 35.6074L314.69 34.8916C312.451 34.1919 309.772 33.8516 306.67 33.8516V34.6016V35.3516C309.671 35.3516 312.189 35.6818 314.242 36.3233L314.466 35.6074ZM306.67 34.6016V33.8516H296.662V34.6016V35.3516H306.67V34.6016ZM296.662 34.6016H295.912V62.8662H296.662H297.412V34.6016H296.662ZM296.662 62.8662V63.6162H305.815V62.8662V62.1162H296.662V62.8662ZM363.099 35.4062H363.849C363.849 34.992 363.513 34.6562 363.099 34.6562V35.4062ZM342.026 35.4062H341.276C341.276 35.8205 341.612 36.1562 342.026 36.1562V35.4062ZM342.026 26.5547V25.8047C341.612 25.8047 341.276 26.1405 341.276 26.5547H342.026ZM394.231 26.5547H394.981C394.981 26.1405 394.645 25.8047 394.231 25.8047V26.5547ZM394.231 35.4062V36.1562C394.645 36.1562 394.981 35.8205 394.981 35.4062H394.231ZM373.158 35.4062V34.6562C372.744 34.6562 372.408 34.992 372.408 35.4062H373.158ZM373.158 96.5625V97.3125C373.572 97.3125 373.908 96.9767 373.908 96.5625H373.158ZM363.099 96.5625H362.349C362.349 96.9767 362.685 97.3125 363.099 97.3125V96.5625ZM363.099 35.4062V34.6562H342.026V35.4062V36.1562H363.099V35.4062ZM342.026 35.4062H342.776V26.5547H342.026H341.276V35.4062H342.026ZM342.026 26.5547V27.3047H394.231V26.5547V25.8047H342.026V26.5547ZM394.231 26.5547H393.481V35.4062H394.231H394.981V26.5547H394.231ZM394.231 35.4062V34.6562H373.158V35.4062V36.1562H394.231V35.4062ZM373.158 35.4062H372.408V96.5625H373.158H373.908V35.4062H373.158ZM373.158 96.5625V95.8125H363.099V96.5625V97.3125H373.158V96.5625ZM363.099 96.5625H363.849V35.4062H363.099H362.349V96.5625H363.099ZM406.2 26.5547V25.8047C405.786 25.8047 405.45 26.1405 405.45 26.5547H406.2ZM416.259 26.5547H417.009C417.009 26.1405 416.673 25.8047 416.259 25.8047V26.5547ZM416.259 96.5625V97.3125C416.673 97.3125 417.009 96.9767 417.009 96.5625H416.259ZM406.2 96.5625H405.45C405.45 96.9767 405.786 97.3125 406.2 97.3125V96.5625ZM406.2 26.5547V27.3047H416.259V26.5547V25.8047H406.2V26.5547ZM416.259 26.5547H415.509V96.5625H416.259H417.009V26.5547H416.259ZM416.259 96.5625V95.8125H406.2V96.5625V97.3125H416.259V96.5625ZM406.2 96.5625H406.95V26.5547H406.2H405.45V96.5625H406.2ZM484.356 95.8584L484.545 96.5841C484.875 96.498 485.106 96.1997 485.106 95.8584H484.356ZM452.822 95.0034L452.574 95.7111L452.575 95.7117L452.822 95.0034ZM441.204 88.0127L441.72 87.4685L441.716 87.4642L441.204 88.0127ZM436.175 41.2402L436.801 41.6527L436.802 41.6511L436.175 41.2402ZM458.756 26.957L458.614 26.2207L458.608 26.2218L458.756 26.957ZM481.941 26.7056H482.691C482.691 26.3295 482.413 26.0115 482.04 25.9621L481.941 26.7056ZM481.941 36.3618L481.756 37.0884C481.98 37.1458 482.218 37.0963 482.401 36.9542C482.584 36.8122 482.691 36.5935 482.691 36.3618H481.941ZM447.943 42.2461L448.468 42.7824L448.474 42.7764L447.943 42.2461ZM447.843 80.4185L447.286 80.9214L447.287 80.9219L447.843 80.4185ZM474.297 88.1636L474.367 88.9103C474.753 88.8739 475.047 88.5505 475.047 88.1636H474.297ZM474.297 62.3633V61.6133C473.883 61.6133 473.547 61.9491 473.547 62.3633H474.297ZM484.356 62.3633H485.106C485.106 61.9491 484.77 61.6133 484.356 61.6133V62.3633ZM484.356 95.8584L484.166 95.1327C480.397 96.1158 475.372 96.6172 469.066 96.6172V97.3672V98.1172C475.434 98.1172 480.602 97.6127 484.545 96.5841L484.356 95.8584ZM469.066 97.3672V96.6172C462.822 96.6172 457.495 95.8362 453.068 94.2951L452.822 95.0034L452.575 95.7117C457.201 97.3223 462.704 98.1172 469.066 98.1172V97.3672ZM452.822 95.0034L453.07 94.2957C448.671 92.7526 444.891 90.4759 441.72 87.4685L441.204 88.0127L440.688 88.5569C444.022 91.7188 447.987 94.1025 452.574 95.7111L452.822 95.0034ZM441.204 88.0127L441.716 87.4642C434.926 81.1315 431.493 72.2959 431.493 60.8545H430.743H429.993C429.993 72.6149 433.534 81.8847 440.693 88.5612L441.204 88.0127ZM430.743 60.8545H431.493C431.493 53.4009 433.272 47.0113 436.801 41.6527L436.175 41.2402L435.548 40.8277C431.835 46.4666 429.993 53.1531 429.993 60.8545H430.743ZM436.175 41.2402L436.802 41.6511C441.57 34.3691 448.908 29.7048 458.904 27.6923L458.756 26.957L458.608 26.2218C448.286 28.2998 440.57 33.1576 435.547 40.8294L436.175 41.2402ZM458.756 26.957L458.899 27.6934C461.955 27.1019 465.726 26.8018 470.223 26.8018V26.0518V25.3018C465.667 25.3018 461.794 25.6052 458.614 26.2207L458.756 26.957ZM470.223 26.0518V26.8018C474.728 26.8018 478.599 27.0188 481.843 27.4491L481.941 26.7056L482.04 25.9621C478.712 25.5206 474.772 25.3018 470.223 25.3018V26.0518ZM481.941 26.7056H481.191V36.3618H481.941H482.691V26.7056H481.941ZM481.941 36.3618L482.127 35.6352C479.153 34.8743 474.955 34.5054 469.569 34.5054V35.2554V36.0054C474.913 36.0054 478.963 36.374 481.756 37.0884L481.941 36.3618ZM469.569 35.2554V34.5054C464.189 34.5054 459.722 35.1134 456.193 36.3587L456.443 37.0659L456.693 37.7732C460.004 36.6044 464.287 36.0054 469.569 36.0054V35.2554ZM456.443 37.0659L456.193 36.3587C452.683 37.5977 449.749 39.3796 447.413 41.7158L447.943 42.2461L448.474 42.7764C450.63 40.6197 453.363 38.9482 456.693 37.7732L456.443 37.0659ZM447.943 42.2461L447.419 41.7098C442.745 46.2794 440.454 52.6978 440.454 60.8545H441.204H441.954C441.954 52.9845 444.156 46.9973 448.468 42.7824L447.943 42.2461ZM441.204 60.8545H440.454C440.454 69.1423 442.709 75.858 447.286 80.9214L447.843 80.4185L448.399 79.9155C444.126 75.1886 441.954 68.8616 441.954 60.8545H441.204ZM447.843 80.4185L447.287 80.9219C452.291 86.447 459.405 89.165 468.513 89.165V88.415V87.665C459.717 87.665 453.051 85.052 448.399 79.915L447.843 80.4185ZM468.513 88.415V89.165C470.612 89.165 472.563 89.0804 474.367 88.9103L474.297 88.1636L474.226 87.4169C472.476 87.582 470.572 87.665 468.513 87.665V88.415ZM474.297 88.1636H475.047V62.3633H474.297H473.547V88.1636H474.297ZM474.297 62.3633V63.1133H484.356V62.3633V61.6133H474.297V62.3633ZM484.356 62.3633H483.606V95.8584H484.356H485.106V62.3633H484.356ZM507.591 35.5068L507.045 34.9922L507.043 34.9945L507.591 35.5068ZM555.319 35.5068L554.77 36.0185L554.771 36.0188L555.319 35.5068ZM555.319 87.7109L554.773 87.1962L554.772 87.198L555.319 87.7109ZM507.591 87.7109L507.045 88.2257L507.047 88.2269L507.591 87.7109ZM513.928 80.5693L513.326 81.0174L513.329 81.0205L513.928 80.5693ZM548.982 80.5693L548.381 80.12L548.381 80.1205L548.982 80.5693ZM548.982 42.6484L548.379 43.0938L548.379 43.0939L548.982 42.6484ZM513.928 42.6484L514.529 43.0965L514.531 43.0938L513.928 42.6484ZM498.287 61.6592H499.037C499.037 56.2693 499.847 51.414 501.454 47.0838L500.751 46.8228L500.048 46.5617C498.37 51.0831 497.537 56.1187 497.537 61.6592H498.287ZM500.751 46.8228L501.454 47.0838C503.066 42.7414 505.296 39.0574 508.139 36.0192L507.591 35.5068L507.043 34.9945C504.051 38.1926 501.722 42.0526 500.048 46.5617L500.751 46.8228ZM507.591 35.5068L508.136 36.0215C514.116 29.6823 521.874 26.5 531.48 26.5V25.75V25C521.505 25 513.337 28.3223 507.045 34.9922L507.591 35.5068ZM531.48 25.75V26.5C541.12 26.5 548.859 29.6827 554.77 36.0185L555.319 35.5068L555.867 34.9952C549.641 28.3219 541.488 25 531.48 25V25.75ZM555.319 35.5068L554.771 36.0188C560.785 42.4584 563.823 50.9796 563.823 61.6592H564.573H565.323C565.323 50.6793 562.191 41.7656 555.867 34.9949L555.319 35.5068ZM564.573 61.6592H563.823C563.823 72.3391 560.785 80.8248 554.773 87.1962L555.319 87.7109L555.864 88.2257C562.191 81.5209 565.323 72.6388 565.323 61.6592H564.573ZM555.319 87.7109L554.772 87.198C548.896 93.4657 541.157 96.6172 531.48 96.6172V97.3672V98.1172C541.518 98.1172 549.672 94.8312 555.866 88.2239L555.319 87.7109ZM531.48 97.3672V96.6172C521.838 96.6172 514.08 93.4662 508.135 87.195L507.591 87.7109L507.047 88.2269C513.306 94.8307 521.475 98.1172 531.48 98.1172V97.3672ZM507.591 87.7109L508.136 87.1961C502.09 80.7901 499.037 72.3036 499.037 61.6592H498.287H497.537C497.537 72.6072 500.686 81.4886 507.045 88.2257L507.591 87.7109ZM508.345 61.6089H507.595C507.595 69.3775 509.488 75.8651 513.326 81.0174L513.928 80.5693L514.529 80.1213C510.924 75.2821 509.095 69.1294 509.095 61.6089H508.345ZM513.928 80.5693L513.329 81.0205C517.674 86.7908 523.755 89.668 531.48 89.668V88.918V88.168C524.184 88.168 518.564 85.4794 514.527 80.1182L513.928 80.5693ZM531.48 88.918V89.668C539.205 89.668 545.271 86.7906 549.583 81.0182L548.982 80.5693L548.381 80.1205C544.378 85.4796 538.776 88.168 531.48 88.168V88.918ZM548.982 80.5693L549.582 81.0187C553.389 75.9316 555.264 69.4762 555.264 61.7095H554.514H553.764C553.764 69.2318 551.951 75.3496 548.381 80.12L548.982 80.5693ZM554.514 61.7095H555.264C555.264 53.8769 553.39 47.3562 549.585 42.203L548.982 42.6484L548.379 43.0939C551.951 47.9322 553.764 54.1188 553.764 61.7095H554.514ZM548.982 42.6484L549.585 42.203C545.275 36.363 539.208 33.4492 531.48 33.4492V34.1992V34.9492C538.773 34.9492 544.374 37.6683 548.379 43.0938L548.982 42.6484ZM531.48 34.1992V33.4492C523.719 33.4492 517.636 36.362 513.324 42.203L513.928 42.6484L514.531 43.0938C518.535 37.6692 524.153 34.9492 531.48 34.9492V34.1992ZM513.928 42.6484L513.326 42.2004C509.488 47.3527 507.595 53.8403 507.595 61.6089H508.345H509.095C509.095 54.0884 510.924 47.9357 514.529 43.0965L513.928 42.6484Z" fill="#CC00CC"/>
<path d="M155.339 26.5547V25.8047C155.091 25.8047 154.859 25.9274 154.719 26.1325C154.579 26.3376 154.55 26.5985 154.641 26.8294L155.339 26.5547ZM165.8 26.5547L166.5 26.2871C166.39 25.9966 166.111 25.8047 165.8 25.8047V26.5547ZM187.778 84.0898L187.077 84.3575C187.188 84.6482 187.467 84.8401 187.778 84.8398C188.09 84.8396 188.368 84.6473 188.479 84.3564L187.778 84.0898ZM209.655 26.5547V25.8047C209.344 25.8047 209.065 25.9971 208.954 26.2881L209.655 26.5547ZM220.116 26.5547L220.814 26.8294C220.905 26.5985 220.876 26.3376 220.736 26.1325C220.596 25.9274 220.364 25.8047 220.116 25.8047V26.5547ZM192.556 96.5625V97.3125C192.864 97.3125 193.141 97.124 193.254 96.8372L192.556 96.5625ZM182.899 96.5625L182.202 96.8372C182.314 97.124 182.591 97.3125 182.899 97.3125V96.5625ZM155.339 26.5547V27.3047H165.8V26.5547V25.8047H155.339V26.5547ZM165.8 26.5547L165.099 26.8223L187.077 84.3575L187.778 84.0898L188.479 83.8222L166.5 26.2871L165.8 26.5547ZM187.778 84.0898L188.479 84.3564L210.356 26.8213L209.655 26.5547L208.954 26.2881L187.077 83.8233L187.778 84.0898ZM209.655 26.5547V27.3047H220.116V26.5547V25.8047H209.655V26.5547ZM220.116 26.5547L219.418 26.28L191.858 96.2878L192.556 96.5625L193.254 96.8372L220.814 26.8294L220.116 26.5547ZM192.556 96.5625V95.8125H182.899V96.5625V97.3125H192.556V96.5625ZM182.899 96.5625L183.597 96.2878L156.037 26.28L155.339 26.5547L154.641 26.8294L182.202 96.8372L182.899 96.5625ZM225.648 26.5547V25.8047C225.234 25.8047 224.898 26.1405 224.898 26.5547H225.648ZM270.862 26.5547H271.612C271.612 26.1405 271.276 25.8047 270.862 25.8047V26.5547ZM270.862 35.3057V36.0557C271.276 36.0557 271.612 35.7199 271.612 35.3057H270.862ZM235.707 35.3057V34.5557C235.293 34.5557 234.957 34.8914 234.957 35.3057H235.707ZM235.707 55.9258H234.957C234.957 56.34 235.293 56.6758 235.707 56.6758V55.9258ZM262.312 55.9258H263.062C263.062 55.5116 262.726 55.1758 262.312 55.1758V55.9258ZM262.312 64.375V65.125C262.726 65.125 263.062 64.7892 263.062 64.375H262.312ZM235.707 64.375V63.625C235.293 63.625 234.957 63.9608 234.957 64.375H235.707ZM235.707 87.7109H234.957C234.957 88.1252 235.293 88.4609 235.707 88.4609V87.7109ZM270.862 87.7109H271.612C271.612 87.2967 271.276 86.9609 270.862 86.9609V87.7109ZM270.862 96.5625V97.3125C271.276 97.3125 271.612 96.9767 271.612 96.5625H270.862ZM225.648 96.5625H224.898C224.898 96.9767 225.234 97.3125 225.648 97.3125V96.5625ZM225.648 26.5547V27.3047H270.862V26.5547V25.8047H225.648V26.5547ZM270.862 26.5547H270.112V35.3057H270.862H271.612V26.5547H270.862ZM270.862 35.3057V34.5557H235.707V35.3057V36.0557H270.862V35.3057ZM235.707 35.3057H234.957V55.9258H235.707H236.457V35.3057H235.707ZM235.707 55.9258V56.6758H262.312V55.9258V55.1758H235.707V55.9258ZM262.312 55.9258H261.562V64.375H262.312H263.062V55.9258H262.312ZM262.312 64.375V63.625H235.707V64.375V65.125H262.312V64.375ZM235.707 64.375H234.957V87.7109H235.707H236.457V64.375H235.707ZM235.707 87.7109V88.4609H270.862V87.7109V86.9609H235.707V87.7109ZM270.862 87.7109H270.112V96.5625H270.862H271.612V87.7109H270.862ZM270.862 96.5625V95.8125H225.648V96.5625V97.3125H270.862V96.5625ZM225.648 96.5625H226.398V26.5547H225.648H224.898V96.5625H225.648ZM286.604 26.5547V25.8047C286.189 25.8047 285.854 26.1405 285.854 26.5547H286.604ZM332.068 38.3232L332.745 38.0005L332.743 37.9948L332.068 38.3232ZM332.672 57.1831L331.974 56.9094L331.97 56.9177L332.672 57.1831ZM328.699 63.5703L328.158 63.0503L328.158 63.0507L328.699 63.5703ZM315.12 70.3096L314.982 69.5722C314.77 69.6117 314.585 69.7406 314.475 69.9261C314.365 70.1116 314.34 70.3356 314.406 70.5409L315.12 70.3096ZM327.24 85.498L327.576 84.8272L327.569 84.8241L327.24 85.498ZM331.968 87.0068L331.928 87.7558C331.934 87.7561 331.939 87.7563 331.944 87.7565L331.968 87.0068ZM336.494 86.8057H337.244C337.244 86.5771 337.14 86.361 336.961 86.2187C336.782 86.0764 336.548 86.0235 336.326 86.0749L336.494 86.8057ZM336.494 96.5625V97.3125C336.908 97.3125 337.244 96.9767 337.244 96.5625H336.494ZM314.969 88.5156L315.502 87.9886L315.499 87.9853L314.969 88.5156ZM305.564 70.9131L306.295 70.7467C306.218 70.4053 305.914 70.1631 305.564 70.1631V70.9131ZM296.662 70.9131V70.1631C296.248 70.1631 295.912 70.4989 295.912 70.9131H296.662ZM296.662 96.5625V97.3125C297.076 97.3125 297.412 96.9767 297.412 96.5625H296.662ZM286.604 96.5625H285.854C285.854 96.9767 286.189 97.3125 286.604 97.3125V96.5625ZM314.466 35.6074L314.242 36.3233L314.243 36.3235L314.466 35.6074ZM296.662 34.6016V33.8516C296.248 33.8516 295.912 34.1873 295.912 34.6016H296.662ZM296.662 62.8662H295.912C295.912 63.2804 296.248 63.6162 296.662 63.6162V62.8662ZM286.604 26.5547V27.3047H306.469V26.5547V25.8047H286.604V26.5547ZM306.469 26.5547V27.3047C319.592 27.3047 327.757 31.1852 331.394 38.6517L332.068 38.3232L332.743 37.9948C328.736 29.7699 319.834 25.8047 306.469 25.8047V26.5547ZM332.068 38.3232L331.391 38.646C332.712 41.416 333.38 44.5557 333.38 48.0801H334.13H334.88C334.88 44.3623 334.174 40.9975 332.745 38.0005L332.068 38.3232ZM334.13 48.0801H333.38C333.38 51.6045 332.902 54.54 331.974 56.9095L332.672 57.1831L333.37 57.4568C334.386 54.864 334.88 51.7308 334.88 48.0801H334.13ZM332.672 57.1831L331.97 56.9177C331.065 59.3112 329.793 61.3518 328.158 63.0503L328.699 63.5703L329.239 64.0903C331.025 62.2348 332.401 60.0173 333.373 57.4485L332.672 57.1831ZM328.699 63.5703L328.158 63.0507C325.004 66.3333 320.632 68.5211 314.982 69.5722L315.12 70.3096L315.257 71.0469C321.141 69.9522 325.822 67.6472 329.24 64.0899L328.699 63.5703ZM315.12 70.3096L314.406 70.5409C316.835 78.0322 320.99 83.281 326.911 86.172L327.24 85.498L327.569 84.8241C322.091 82.1493 318.165 77.2725 315.833 70.0783L315.12 70.3096ZM327.24 85.498L326.905 86.1689C328.823 87.1278 330.506 87.6809 331.928 87.7558L331.968 87.0068L332.007 86.2579C330.882 86.1986 329.413 85.7459 327.576 84.8272L327.24 85.498ZM331.968 87.0068L331.944 87.7565C334.09 87.8235 335.687 87.7618 336.663 87.5365L336.494 86.8057L336.326 86.0749C335.558 86.2519 334.137 86.3243 331.991 86.2572L331.968 87.0068ZM336.494 86.8057H335.744V96.5625H336.494H337.244V86.8057H336.494ZM336.494 96.5625V95.8125H334.231V96.5625V97.3125H336.494V96.5625ZM334.231 96.5625V95.8125C326.887 95.8125 320.659 93.2104 315.502 87.9886L314.969 88.5156L314.435 89.0426C319.874 94.55 326.487 97.3125 334.231 97.3125V96.5625ZM314.969 88.5156L315.499 87.9853C310.949 83.4347 307.877 77.6978 306.295 70.7467L305.564 70.9131L304.833 71.0795C306.47 78.2775 309.668 84.2756 314.438 89.046L314.969 88.5156ZM305.564 70.9131V70.1631H296.662V70.9131V71.6631H305.564V70.9131ZM296.662 70.9131H295.912V96.5625H296.662H297.412V70.9131H296.662ZM296.662 96.5625V95.8125H286.604V96.5625V97.3125H296.662V96.5625ZM286.604 96.5625H287.354V26.5547H286.604H285.854V96.5625H286.604ZM305.815 62.8662V63.6162C311.957 63.6162 316.653 62.433 319.764 59.93L319.294 59.3457L318.824 58.7614C316.101 60.9524 311.812 62.1162 305.815 62.1162V62.8662ZM319.294 59.3457L319.764 59.93C322.912 57.3974 324.419 53.4919 324.419 48.3818H323.669H322.919C322.919 53.1963 321.51 56.5999 318.824 58.7614L319.294 59.3457ZM323.669 48.3818H324.419C324.419 44.9629 323.624 42.0824 321.977 39.796C320.328 37.5077 317.876 35.8842 314.689 34.8914L314.466 35.6074L314.243 36.3235C317.191 37.2418 319.341 38.703 320.76 40.6728C322.181 42.6445 322.919 45.1956 322.919 48.3818H323.669ZM314.466 35.6074L314.69 34.8916C312.451 34.1919 309.772 33.8516 306.67 33.8516V34.6016V35.3516C309.671 35.3516 312.189 35.6818 314.242 36.3233L314.466 35.6074ZM306.67 34.6016V33.8516H296.662V34.6016V35.3516H306.67V34.6016ZM296.662 34.6016H295.912V62.8662H296.662H297.412V34.6016H296.662ZM296.662 62.8662V63.6162H305.815V62.8662V62.1162H296.662V62.8662ZM363.099 35.4062H363.849C363.849 34.992 363.513 34.6562 363.099 34.6562V35.4062ZM342.026 35.4062H341.276C341.276 35.8205 341.612 36.1562 342.026 36.1562V35.4062ZM342.026 26.5547V25.8047C341.612 25.8047 341.276 26.1405 341.276 26.5547H342.026ZM394.231 26.5547H394.981C394.981 26.1405 394.645 25.8047 394.231 25.8047V26.5547ZM394.231 35.4062V36.1562C394.645 36.1562 394.981 35.8205 394.981 35.4062H394.231ZM373.158 35.4062V34.6562C372.744 34.6562 372.408 34.992 372.408 35.4062H373.158ZM373.158 96.5625V97.3125C373.572 97.3125 373.908 96.9767 373.908 96.5625H373.158ZM363.099 96.5625H362.349C362.349 96.9767 362.685 97.3125 363.099 97.3125V96.5625ZM363.099 35.4062V34.6562H342.026V35.4062V36.1562H363.099V35.4062ZM342.026 35.4062H342.776V26.5547H342.026H341.276V35.4062H342.026ZM342.026 26.5547V27.3047H394.231V26.5547V25.8047H342.026V26.5547ZM394.231 26.5547H393.481V35.4062H394.231H394.981V26.5547H394.231ZM394.231 35.4062V34.6562H373.158V35.4062V36.1562H394.231V35.4062ZM373.158 35.4062H372.408V96.5625H373.158H373.908V35.4062H373.158ZM373.158 96.5625V95.8125H363.099V96.5625V97.3125H373.158V96.5625ZM363.099 96.5625H363.849V35.4062H363.099H362.349V96.5625H363.099ZM406.2 26.5547V25.8047C405.786 25.8047 405.45 26.1405 405.45 26.5547H406.2ZM416.259 26.5547H417.009C417.009 26.1405 416.673 25.8047 416.259 25.8047V26.5547ZM416.259 96.5625V97.3125C416.673 97.3125 417.009 96.9767 417.009 96.5625H416.259ZM406.2 96.5625H405.45C405.45 96.9767 405.786 97.3125 406.2 97.3125V96.5625ZM406.2 26.5547V27.3047H416.259V26.5547V25.8047H406.2V26.5547ZM416.259 26.5547H415.509V96.5625H416.259H417.009V26.5547H416.259ZM416.259 96.5625V95.8125H406.2V96.5625V97.3125H416.259V96.5625ZM406.2 96.5625H406.95V26.5547H406.2H405.45V96.5625H406.2ZM484.356 95.8584L484.545 96.5841C484.875 96.498 485.106 96.1997 485.106 95.8584H484.356ZM452.822 95.0034L452.574 95.7111L452.575 95.7117L452.822 95.0034ZM441.204 88.0127L441.72 87.4685L441.716 87.4642L441.204 88.0127ZM436.175 41.2402L436.801 41.6527L436.802 41.6511L436.175 41.2402ZM458.756 26.957L458.614 26.2207L458.608 26.2218L458.756 26.957ZM481.941 26.7056H482.691C482.691 26.3295 482.413 26.0115 482.04 25.9621L481.941 26.7056ZM481.941 36.3618L481.756 37.0884C481.98 37.1458 482.218 37.0963 482.401 36.9542C482.584 36.8122 482.691 36.5935 482.691 36.3618H481.941ZM447.943 42.2461L448.468 42.7824L448.474 42.7764L447.943 42.2461ZM447.843 80.4185L447.286 80.9214L447.287 80.9219L447.843 80.4185ZM474.297 88.1636L474.367 88.9103C474.753 88.8739 475.047 88.5505 475.047 88.1636H474.297ZM474.297 62.3633V61.6133C473.883 61.6133 473.547 61.9491 473.547 62.3633H474.297ZM484.356 62.3633H485.106C485.106 61.9491 484.77 61.6133 484.356 61.6133V62.3633ZM484.356 95.8584L484.166 95.1327C480.397 96.1158 475.372 96.6172 469.066 96.6172V97.3672V98.1172C475.434 98.1172 480.602 97.6127 484.545 96.5841L484.356 95.8584ZM469.066 97.3672V96.6172C462.822 96.6172 457.495 95.8362 453.068 94.2951L452.822 95.0034L452.575 95.7117C457.201 97.3223 462.704 98.1172 469.066 98.1172V97.3672ZM452.822 95.0034L453.07 94.2957C448.671 92.7526 444.891 90.4759 441.72 87.4685L441.204 88.0127L440.688 88.5569C444.022 91.7188 447.987 94.1025 452.574 95.7111L452.822 95.0034ZM441.204 88.0127L441.716 87.4642C434.926 81.1315 431.493 72.2959 431.493 60.8545H430.743H429.993C429.993 72.6149 433.534 81.8847 440.693 88.5612L441.204 88.0127ZM430.743 60.8545H431.493C431.493 53.4009 433.272 47.0113 436.801 41.6527L436.175 41.2402L435.548 40.8277C431.835 46.4666 429.993 53.1531 429.993 60.8545H430.743ZM436.175 41.2402L436.802 41.6511C441.57 34.3691 448.908 29.7048 458.904 27.6923L458.756 26.957L458.608 26.2218C448.286 28.2998 440.57 33.1576 435.547 40.8294L436.175 41.2402ZM458.756 26.957L458.899 27.6934C461.955 27.1019 465.726 26.8018 470.223 26.8018V26.0518V25.3018C465.667 25.3018 461.794 25.6052 458.614 26.2207L458.756 26.957ZM470.223 26.0518V26.8018C474.728 26.8018 478.599 27.0188 481.843 27.4491L481.941 26.7056L482.04 25.9621C478.712 25.5206 474.772 25.3018 470.223 25.3018V26.0518ZM481.941 26.7056H481.191V36.3618H481.941H482.691V26.7056H481.941ZM481.941 36.3618L482.127 35.6352C479.153 34.8743 474.955 34.5054 469.569 34.5054V35.2554V36.0054C474.913 36.0054 478.963 36.374 481.756 37.0884L481.941 36.3618ZM469.569 35.2554V34.5054C464.189 34.5054 459.722 35.1134 456.193 36.3587L456.443 37.0659L456.693 37.7732C460.004 36.6044 464.287 36.0054 469.569 36.0054V35.2554ZM456.443 37.0659L456.193 36.3587C452.683 37.5977 449.749 39.3796 447.413 41.7158L447.943 42.2461L448.474 42.7764C450.63 40.6197 453.363 38.9482 456.693 37.7732L456.443 37.0659ZM447.943 42.2461L447.419 41.7098C442.745 46.2794 440.454 52.6978 440.454 60.8545H441.204H441.954C441.954 52.9845 444.156 46.9973 448.468 42.7824L447.943 42.2461ZM441.204 60.8545H440.454C440.454 69.1423 442.709 75.858 447.286 80.9214L447.843 80.4185L448.399 79.9155C444.126 75.1886 441.954 68.8616 441.954 60.8545H441.204ZM447.843 80.4185L447.287 80.9219C452.291 86.447 459.405 89.165 468.513 89.165V88.415V87.665C459.717 87.665 453.051 85.052 448.399 79.915L447.843 80.4185ZM468.513 88.415V89.165C470.612 89.165 472.563 89.0804 474.367 88.9103L474.297 88.1636L474.226 87.4169C472.476 87.582 470.572 87.665 468.513 87.665V88.415ZM474.297 88.1636H475.047V62.3633H474.297H473.547V88.1636H474.297ZM474.297 62.3633V63.1133H484.356V62.3633V61.6133H474.297V62.3633ZM484.356 62.3633H483.606V95.8584H484.356H485.106V62.3633H484.356ZM507.591 35.5068L507.045 34.9922L507.043 34.9945L507.591 35.5068ZM555.319 35.5068L554.77 36.0185L554.771 36.0188L555.319 35.5068ZM555.319 87.7109L554.773 87.1962L554.772 87.198L555.319 87.7109ZM507.591 87.7109L507.045 88.2257L507.047 88.2269L507.591 87.7109ZM513.928 80.5693L513.326 81.0174L513.329 81.0205L513.928 80.5693ZM548.982 80.5693L548.381 80.12L548.381 80.1205L548.982 80.5693ZM548.982 42.6484L548.379 43.0938L548.379 43.0939L548.982 42.6484ZM513.928 42.6484L514.529 43.0965L514.531 43.0938L513.928 42.6484ZM498.287 61.6592H499.037C499.037 56.2693 499.847 51.414 501.454 47.0838L500.751 46.8228L500.048 46.5617C498.37 51.0831 497.537 56.1187 497.537 61.6592H498.287ZM500.751 46.8228L501.454 47.0838C503.066 42.7414 505.296 39.0574 508.139 36.0192L507.591 35.5068L507.043 34.9945C504.051 38.1926 501.722 42.0526 500.048 46.5617L500.751 46.8228ZM507.591 35.5068L508.136 36.0215C514.116 29.6823 521.874 26.5 531.48 26.5V25.75V25C521.505 25 513.337 28.3223 507.045 34.9922L507.591 35.5068ZM531.48 25.75V26.5C541.12 26.5 548.859 29.6827 554.77 36.0185L555.319 35.5068L555.867 34.9952C549.641 28.3219 541.488 25 531.48 25V25.75ZM555.319 35.5068L554.771 36.0188C560.785 42.4584 563.823 50.9796 563.823 61.6592H564.573H565.323C565.323 50.6793 562.191 41.7656 555.867 34.9949L555.319 35.5068ZM564.573 61.6592H563.823C563.823 72.3391 560.785 80.8248 554.773 87.1962L555.319 87.7109L555.864 88.2257C562.191 81.5209 565.323 72.6388 565.323 61.6592H564.573ZM555.319 87.7109L554.772 87.198C548.896 93.4657 541.157 96.6172 531.48 96.6172V97.3672V98.1172C541.518 98.1172 549.672 94.8312 555.866 88.2239L555.319 87.7109ZM531.48 97.3672V96.6172C521.838 96.6172 514.08 93.4662 508.135 87.195L507.591 87.7109L507.047 88.2269C513.306 94.8307 521.475 98.1172 531.48 98.1172V97.3672ZM507.591 87.7109L508.136 87.1961C502.09 80.7901 499.037 72.3036 499.037 61.6592H498.287H497.537C497.537 72.6072 500.686 81.4886 507.045 88.2257L507.591 87.7109ZM508.345 61.6089H507.595C507.595 69.3775 509.488 75.8651 513.326 81.0174L513.928 80.5693L514.529 80.1213C510.924 75.2821 509.095 69.1294 509.095 61.6089H508.345ZM513.928 80.5693L513.329 81.0205C517.674 86.7908 523.755 89.668 531.48 89.668V88.918V88.168C524.184 88.168 518.564 85.4794 514.527 80.1182L513.928 80.5693ZM531.48 88.918V89.668C539.205 89.668 545.271 86.7906 549.583 81.0182L548.982 80.5693L548.381 80.1205C544.378 85.4796 538.776 88.168 531.48 88.168V88.918ZM548.982 80.5693L549.582 81.0187C553.389 75.9316 555.264 69.4762 555.264 61.7095H554.514H553.764C553.764 69.2318 551.951 75.3496 548.381 80.12L548.982 80.5693ZM554.514 61.7095H555.264C555.264 53.8769 553.39 47.3562 549.585 42.203L548.982 42.6484L548.379 43.0939C551.951 47.9322 553.764 54.1188 553.764 61.7095H554.514ZM548.982 42.6484L549.585 42.203C545.275 36.363 539.208 33.4492 531.48 33.4492V34.1992V34.9492C538.773 34.9492 544.374 37.6683 548.379 43.0938L548.982 42.6484ZM531.48 34.1992V33.4492C523.719 33.4492 517.636 36.362 513.324 42.203L513.928 42.6484L514.531 43.0938C518.535 37.6692 524.153 34.9492 531.48 34.9492V34.1992ZM513.928 42.6484L513.326 42.2004C509.488 47.3527 507.595 53.8403 507.595 61.6089H508.345H509.095C509.095 54.0884 510.924 47.9357 514.529 43.0965L513.928 42.6484Z" fill="#FF66FF" fill-opacity="0.8"/>
</g>
<g filter="url(#filter3_ddd_182_34)">
<path d="M155.339 26.5547V25.8047C155.091 25.8047 154.859 25.9274 154.719 26.1325C154.579 26.3376 154.55 26.5985 154.641 26.8294L155.339 26.5547ZM165.8 26.5547L166.5 26.2871C166.39 25.9966 166.111 25.8047 165.8 25.8047V26.5547ZM187.778 84.0898L187.077 84.3575C187.188 84.6482 187.467 84.8401 187.778 84.8398C188.09 84.8396 188.368 84.6473 188.479 84.3564L187.778 84.0898ZM209.655 26.5547V25.8047C209.344 25.8047 209.065 25.9971 208.954 26.2881L209.655 26.5547ZM220.116 26.5547L220.814 26.8294C220.905 26.5985 220.876 26.3376 220.736 26.1325C220.596 25.9274 220.364 25.8047 220.116 25.8047V26.5547ZM192.556 96.5625V97.3125C192.864 97.3125 193.141 97.124 193.254 96.8372L192.556 96.5625ZM182.899 96.5625L182.202 96.8372C182.314 97.124 182.591 97.3125 182.899 97.3125V96.5625ZM155.339 26.5547V27.3047H165.8V26.5547V25.8047H155.339V26.5547ZM165.8 26.5547L165.099 26.8223L187.077 84.3575L187.778 84.0898L188.479 83.8222L166.5 26.2871L165.8 26.5547ZM187.778 84.0898L188.479 84.3564L210.356 26.8213L209.655 26.5547L208.954 26.2881L187.077 83.8233L187.778 84.0898ZM209.655 26.5547V27.3047H220.116V26.5547V25.8047H209.655V26.5547ZM220.116 26.5547L219.418 26.28L191.858 96.2878L192.556 96.5625L193.254 96.8372L220.814 26.8294L220.116 26.5547ZM192.556 96.5625V95.8125H182.899V96.5625V97.3125H192.556V96.5625ZM182.899 96.5625L183.597 96.2878L156.037 26.28L155.339 26.5547L154.641 26.8294L182.202 96.8372L182.899 96.5625ZM225.648 26.5547V25.8047C225.234 25.8047 224.898 26.1405 224.898 26.5547H225.648ZM270.862 26.5547H271.612C271.612 26.1405 271.276 25.8047 270.862 25.8047V26.5547ZM270.862 35.3057V36.0557C271.276 36.0557 271.612 35.7199 271.612 35.3057H270.862ZM235.707 35.3057V34.5557C235.293 34.5557 234.957 34.8914 234.957 35.3057H235.707ZM235.707 55.9258H234.957C234.957 56.34 235.293 56.6758 235.707 56.6758V55.9258ZM262.312 55.9258H263.062C263.062 55.5116 262.726 55.1758 262.312 55.1758V55.9258ZM262.312 64.375V65.125C262.726 65.125 263.062 64.7892 263.062 64.375H262.312ZM235.707 64.375V63.625C235.293 63.625 234.957 63.9608 234.957 64.375H235.707ZM235.707 87.7109H234.957C234.957 88.1252 235.293 88.4609 235.707 88.4609V87.7109ZM270.862 87.7109H271.612C271.612 87.2967 271.276 86.9609 270.862 86.9609V87.7109ZM270.862 96.5625V97.3125C271.276 97.3125 271.612 96.9767 271.612 96.5625H270.862ZM225.648 96.5625H224.898C224.898 96.9767 225.234 97.3125 225.648 97.3125V96.5625ZM225.648 26.5547V27.3047H270.862V26.5547V25.8047H225.648V26.5547ZM270.862 26.5547H270.112V35.3057H270.862H271.612V26.5547H270.862ZM270.862 35.3057V34.5557H235.707V35.3057V36.0557H270.862V35.3057ZM235.707 35.3057H234.957V55.9258H235.707H236.457V35.3057H235.707ZM235.707 55.9258V56.6758H262.312V55.9258V55.1758H235.707V55.9258ZM262.312 55.9258H261.562V64.375H262.312H263.062V55.9258H262.312ZM262.312 64.375V63.625H235.707V64.375V65.125H262.312V64.375ZM235.707 64.375H234.957V87.7109H235.707H236.457V64.375H235.707ZM235.707 87.7109V88.4609H270.862V87.7109V86.9609H235.707V87.7109ZM270.862 87.7109H270.112V96.5625H270.862H271.612V87.7109H270.862ZM270.862 96.5625V95.8125H225.648V96.5625V97.3125H270.862V96.5625ZM225.648 96.5625H226.398V26.5547H225.648H224.898V96.5625H225.648ZM286.604 26.5547V25.8047C286.189 25.8047 285.854 26.1405 285.854 26.5547H286.604ZM332.068 38.3232L332.745 38.0005L332.743 37.9948L332.068 38.3232ZM332.672 57.1831L331.974 56.9094L331.97 56.9177L332.672 57.1831ZM328.699 63.5703L328.158 63.0503L328.158 63.0507L328.699 63.5703ZM315.12 70.3096L314.982 69.5722C314.77 69.6117 314.585 69.7406 314.475 69.9261C314.365 70.1116 314.34 70.3356 314.406 70.5409L315.12 70.3096ZM327.24 85.498L327.576 84.8272L327.569 84.8241L327.24 85.498ZM331.968 87.0068L331.928 87.7558C331.934 87.7561 331.939 87.7563 331.944 87.7565L331.968 87.0068ZM336.494 86.8057H337.244C337.244 86.5771 337.14 86.361 336.961 86.2187C336.782 86.0764 336.548 86.0235 336.326 86.0749L336.494 86.8057ZM336.494 96.5625V97.3125C336.908 97.3125 337.244 96.9767 337.244 96.5625H336.494ZM314.969 88.5156L315.502 87.9886L315.499 87.9853L314.969 88.5156ZM305.564 70.9131L306.295 70.7467C306.218 70.4053 305.914 70.1631 305.564 70.1631V70.9131ZM296.662 70.9131V70.1631C296.248 70.1631 295.912 70.4989 295.912 70.9131H296.662ZM296.662 96.5625V97.3125C297.076 97.3125 297.412 96.9767 297.412 96.5625H296.662ZM286.604 96.5625H285.854C285.854 96.9767 286.189 97.3125 286.604 97.3125V96.5625ZM314.466 35.6074L314.242 36.3233L314.243 36.3235L314.466 35.6074ZM296.662 34.6016V33.8516C296.248 33.8516 295.912 34.1873 295.912 34.6016H296.662ZM296.662 62.8662H295.912C295.912 63.2804 296.248 63.6162 296.662 63.6162V62.8662ZM286.604 26.5547V27.3047H306.469V26.5547V25.8047H286.604V26.5547ZM306.469 26.5547V27.3047C319.592 27.3047 327.757 31.1852 331.394 38.6517L332.068 38.3232L332.743 37.9948C328.736 29.7699 319.834 25.8047 306.469 25.8047V26.5547ZM332.068 38.3232L331.391 38.646C332.712 41.416 333.38 44.5557 333.38 48.0801H334.13H334.88C334.88 44.3623 334.174 40.9975 332.745 38.0005L332.068 38.3232ZM334.13 48.0801H333.38C333.38 51.6045 332.902 54.54 331.974 56.9095L332.672 57.1831L333.37 57.4568C334.386 54.864 334.88 51.7308 334.88 48.0801H334.13ZM332.672 57.1831L331.97 56.9177C331.065 59.3112 329.793 61.3518 328.158 63.0503L328.699 63.5703L329.239 64.0903C331.025 62.2348 332.401 60.0173 333.373 57.4485L332.672 57.1831ZM328.699 63.5703L328.158 63.0507C325.004 66.3333 320.632 68.5211 314.982 69.5722L315.12 70.3096L315.257 71.0469C321.141 69.9522 325.822 67.6472 329.24 64.0899L328.699 63.5703ZM315.12 70.3096L314.406 70.5409C316.835 78.0322 320.99 83.281 326.911 86.172L327.24 85.498L327.569 84.8241C322.091 82.1493 318.165 77.2725 315.833 70.0783L315.12 70.3096ZM327.24 85.498L326.905 86.1689C328.823 87.1278 330.506 87.6809 331.928 87.7558L331.968 87.0068L332.007 86.2579C330.882 86.1986 329.413 85.7459 327.576 84.8272L327.24 85.498ZM331.968 87.0068L331.944 87.7565C334.09 87.8235 335.687 87.7618 336.663 87.5365L336.494 86.8057L336.326 86.0749C335.558 86.2519 334.137 86.3243 331.991 86.2572L331.968 87.0068ZM336.494 86.8057H335.744V96.5625H336.494H337.244V86.8057H336.494ZM336.494 96.5625V95.8125H334.231V96.5625V97.3125H336.494V96.5625ZM334.231 96.5625V95.8125C326.887 95.8125 320.659 93.2104 315.502 87.9886L314.969 88.5156L314.435 89.0426C319.874 94.55 326.487 97.3125 334.231 97.3125V96.5625ZM314.969 88.5156L315.499 87.9853C310.949 83.4347 307.877 77.6978 306.295 70.7467L305.564 70.9131L304.833 71.0795C306.47 78.2775 309.668 84.2756 314.438 89.046L314.969 88.5156ZM305.564 70.9131V70.1631H296.662V70.9131V71.6631H305.564V70.9131ZM296.662 70.9131H295.912V96.5625H296.662H297.412V70.9131H296.662ZM296.662 96.5625V95.8125H286.604V96.5625V97.3125H296.662V96.5625ZM286.604 96.5625H287.354V26.5547H286.604H285.854V96.5625H286.604ZM305.815 62.8662V63.6162C311.957 63.6162 316.653 62.433 319.764 59.93L319.294 59.3457L318.824 58.7614C316.101 60.9524 311.812 62.1162 305.815 62.1162V62.8662ZM319.294 59.3457L319.764 59.93C322.912 57.3974 324.419 53.4919 324.419 48.3818H323.669H322.919C322.919 53.1963 321.51 56.5999 318.824 58.7614L319.294 59.3457ZM323.669 48.3818H324.419C324.419 44.9629 323.624 42.0824 321.977 39.796C320.328 37.5077 317.876 35.8842 314.689 34.8914L314.466 35.6074L314.243 36.3235C317.191 37.2418 319.341 38.703 320.76 40.6728C322.181 42.6445 322.919 45.1956 322.919 48.3818H323.669ZM314.466 35.6074L314.69 34.8916C312.451 34.1919 309.772 33.8516 306.67 33.8516V34.6016V35.3516C309.671 35.3516 312.189 35.6818 314.242 36.3233L314.466 35.6074ZM306.67 34.6016V33.8516H296.662V34.6016V35.3516H306.67V34.6016ZM296.662 34.6016H295.912V62.8662H296.662H297.412V34.6016H296.662ZM296.662 62.8662V63.6162H305.815V62.8662V62.1162H296.662V62.8662ZM363.099 35.4062H363.849C363.849 34.992 363.513 34.6562 363.099 34.6562V35.4062ZM342.026 35.4062H341.276C341.276 35.8205 341.612 36.1562 342.026 36.1562V35.4062ZM342.026 26.5547V25.8047C341.612 25.8047 341.276 26.1405 341.276 26.5547H342.026ZM394.231 26.5547H394.981C394.981 26.1405 394.645 25.8047 394.231 25.8047V26.5547ZM394.231 35.4062V36.1562C394.645 36.1562 394.981 35.8205 394.981 35.4062H394.231ZM373.158 35.4062V34.6562C372.744 34.6562 372.408 34.992 372.408 35.4062H373.158ZM373.158 96.5625V97.3125C373.572 97.3125 373.908 96.9767 373.908 96.5625H373.158ZM363.099 96.5625H362.349C362.349 96.9767 362.685 97.3125 363.099 97.3125V96.5625ZM363.099 35.4062V34.6562H342.026V35.4062V36.1562H363.099V35.4062ZM342.026 35.4062H342.776V26.5547H342.026H341.276V35.4062H342.026ZM342.026 26.5547V27.3047H394.231V26.5547V25.8047H342.026V26.5547ZM394.231 26.5547H393.481V35.4062H394.231H394.981V26.5547H394.231ZM394.231 35.4062V34.6562H373.158V35.4062V36.1562H394.231V35.4062ZM373.158 35.4062H372.408V96.5625H373.158H373.908V35.4062H373.158ZM373.158 96.5625V95.8125H363.099V96.5625V97.3125H373.158V96.5625ZM363.099 96.5625H363.849V35.4062H363.099H362.349V96.5625H363.099ZM406.2 26.5547V25.8047C405.786 25.8047 405.45 26.1405 405.45 26.5547H406.2ZM416.259 26.5547H417.009C417.009 26.1405 416.673 25.8047 416.259 25.8047V26.5547ZM416.259 96.5625V97.3125C416.673 97.3125 417.009 96.9767 417.009 96.5625H416.259ZM406.2 96.5625H405.45C405.45 96.9767 405.786 97.3125 406.2 97.3125V96.5625ZM406.2 26.5547V27.3047H416.259V26.5547V25.8047H406.2V26.5547ZM416.259 26.5547H415.509V96.5625H416.259H417.009V26.5547H416.259ZM416.259 96.5625V95.8125H406.2V96.5625V97.3125H416.259V96.5625ZM406.2 96.5625H406.95V26.5547H406.2H405.45V96.5625H406.2ZM484.356 95.8584L484.545 96.5841C484.875 96.498 485.106 96.1997 485.106 95.8584H484.356ZM452.822 95.0034L452.574 95.7111L452.575 95.7117L452.822 95.0034ZM441.204 88.0127L441.72 87.4685L441.716 87.4642L441.204 88.0127ZM436.175 41.2402L436.801 41.6527L436.802 41.6511L436.175 41.2402ZM458.756 26.957L458.614 26.2207L458.608 26.2218L458.756 26.957ZM481.941 26.7056H482.691C482.691 26.3295 482.413 26.0115 482.04 25.9621L481.941 26.7056ZM481.941 36.3618L481.756 37.0884C481.98 37.1458 482.218 37.0963 482.401 36.9542C482.584 36.8122 482.691 36.5935 482.691 36.3618H481.941ZM447.943 42.2461L448.468 42.7824L448.474 42.7764L447.943 42.2461ZM447.843 80.4185L447.286 80.9214L447.287 80.9219L447.843 80.4185ZM474.297 88.1636L474.367 88.9103C474.753 88.8739 475.047 88.5505 475.047 88.1636H474.297ZM474.297 62.3633V61.6133C473.883 61.6133 473.547 61.9491 473.547 62.3633H474.297ZM484.356 62.3633H485.106C485.106 61.9491 484.77 61.6133 484.356 61.6133V62.3633ZM484.356 95.8584L484.166 95.1327C480.397 96.1158 475.372 96.6172 469.066 96.6172V97.3672V98.1172C475.434 98.1172 480.602 97.6127 484.545 96.5841L484.356 95.8584ZM469.066 97.3672V96.6172C462.822 96.6172 457.495 95.8362 453.068 94.2951L452.822 95.0034L452.575 95.7117C457.201 97.3223 462.704 98.1172 469.066 98.1172V97.3672ZM452.822 95.0034L453.07 94.2957C448.671 92.7526 444.891 90.4759 441.72 87.4685L441.204 88.0127L440.688 88.5569C444.022 91.7188 447.987 94.1025 452.574 95.7111L452.822 95.0034ZM441.204 88.0127L441.716 87.4642C434.926 81.1315 431.493 72.2959 431.493 60.8545H430.743H429.993C429.993 72.6149 433.534 81.8847 440.693 88.5612L441.204 88.0127ZM430.743 60.8545H431.493C431.493 53.4009 433.272 47.0113 436.801 41.6527L436.175 41.2402L435.548 40.8277C431.835 46.4666 429.993 53.1531 429.993 60.8545H430.743ZM436.175 41.2402L436.802 41.6511C441.57 34.3691 448.908 29.7048 458.904 27.6923L458.756 26.957L458.608 26.2218C448.286 28.2998 440.57 33.1576 435.547 40.8294L436.175 41.2402ZM458.756 26.957L458.899 27.6934C461.955 27.1019 465.726 26.8018 470.223 26.8018V26.0518V25.3018C465.667 25.3018 461.794 25.6052 458.614 26.2207L458.756 26.957ZM470.223 26.0518V26.8018C474.728 26.8018 478.599 27.0188 481.843 27.4491L481.941 26.7056L482.04 25.9621C478.712 25.5206 474.772 25.3018 470.223 25.3018V26.0518ZM481.941 26.7056H481.191V36.3618H481.941H482.691V26.7056H481.941ZM481.941 36.3618L482.127 35.6352C479.153 34.8743 474.955 34.5054 469.569 34.5054V35.2554V36.0054C474.913 36.0054 478.963 36.374 481.756 37.0884L481.941 36.3618ZM469.569 35.2554V34.5054C464.189 34.5054 459.722 35.1134 456.193 36.3587L456.443 37.0659L456.693 37.7732C460.004 36.6044 464.287 36.0054 469.569 36.0054V35.2554ZM456.443 37.0659L456.193 36.3587C452.683 37.5977 449.749 39.3796 447.413 41.7158L447.943 42.2461L448.474 42.7764C450.63 40.6197 453.363 38.9482 456.693 37.7732L456.443 37.0659ZM447.943 42.2461L447.419 41.7098C442.745 46.2794 440.454 52.6978 440.454 60.8545H441.204H441.954C441.954 52.9845 444.156 46.9973 448.468 42.7824L447.943 42.2461ZM441.204 60.8545H440.454C440.454 69.1423 442.709 75.858 447.286 80.9214L447.843 80.4185L448.399 79.9155C444.126 75.1886 441.954 68.8616 441.954 60.8545H441.204ZM447.843 80.4185L447.287 80.9219C452.291 86.447 459.405 89.165 468.513 89.165V88.415V87.665C459.717 87.665 453.051 85.052 448.399 79.915L447.843 80.4185ZM468.513 88.415V89.165C470.612 89.165 472.563 89.0804 474.367 88.9103L474.297 88.1636L474.226 87.4169C472.476 87.582 470.572 87.665 468.513 87.665V88.415ZM474.297 88.1636H475.047V62.3633H474.297H473.547V88.1636H474.297ZM474.297 62.3633V63.1133H484.356V62.3633V61.6133H474.297V62.3633ZM484.356 62.3633H483.606V95.8584H484.356H485.106V62.3633H484.356ZM507.591 35.5068L507.045 34.9922L507.043 34.9945L507.591 35.5068ZM555.319 35.5068L554.77 36.0185L554.771 36.0188L555.319 35.5068ZM555.319 87.7109L554.773 87.1962L554.772 87.198L555.319 87.7109ZM507.591 87.7109L507.045 88.2257L507.047 88.2269L507.591 87.7109ZM513.928 80.5693L513.326 81.0174L513.329 81.0205L513.928 80.5693ZM548.982 80.5693L548.381 80.12L548.381 80.1205L548.982 80.5693ZM548.982 42.6484L548.379 43.0938L548.379 43.0939L548.982 42.6484ZM513.928 42.6484L514.529 43.0965L514.531 43.0938L513.928 42.6484ZM498.287 61.6592H499.037C499.037 56.2693 499.847 51.414 501.454 47.0838L500.751 46.8228L500.048 46.5617C498.37 51.0831 497.537 56.1187 497.537 61.6592H498.287ZM500.751 46.8228L501.454 47.0838C503.066 42.7414 505.296 39.0574 508.139 36.0192L507.591 35.5068L507.043 34.9945C504.051 38.1926 501.722 42.0526 500.048 46.5617L500.751 46.8228ZM507.591 35.5068L508.136 36.0215C514.116 29.6823 521.874 26.5 531.48 26.5V25.75V25C521.505 25 513.337 28.3223 507.045 34.9922L507.591 35.5068ZM531.48 25.75V26.5C541.12 26.5 548.859 29.6827 554.77 36.0185L555.319 35.5068L555.867 34.9952C549.641 28.3219 541.488 25 531.48 25V25.75ZM555.319 35.5068L554.771 36.0188C560.785 42.4584 563.823 50.9796 563.823 61.6592H564.573H565.323C565.323 50.6793 562.191 41.7656 555.867 34.9949L555.319 35.5068ZM564.573 61.6592H563.823C563.823 72.3391 560.785 80.8248 554.773 87.1962L555.319 87.7109L555.864 88.2257C562.191 81.5209 565.323 72.6388 565.323 61.6592H564.573ZM555.319 87.7109L554.772 87.198C548.896 93.4657 541.157 96.6172 531.48 96.6172V97.3672V98.1172C541.518 98.1172 549.672 94.8312 555.866 88.2239L555.319 87.7109ZM531.48 97.3672V96.6172C521.838 96.6172 514.08 93.4662 508.135 87.195L507.591 87.7109L507.047 88.2269C513.306 94.8307 521.475 98.1172 531.48 98.1172V97.3672ZM507.591 87.7109L508.136 87.1961C502.09 80.7901 499.037 72.3036 499.037 61.6592H498.287H497.537C497.537 72.6072 500.686 81.4886 507.045 88.2257L507.591 87.7109ZM508.345 61.6089H507.595C507.595 69.3775 509.488 75.8651 513.326 81.0174L513.928 80.5693L514.529 80.1213C510.924 75.2821 509.095 69.1294 509.095 61.6089H508.345ZM513.928 80.5693L513.329 81.0205C517.674 86.7908 523.755 89.668 531.48 89.668V88.918V88.168C524.184 88.168 518.564 85.4794 514.527 80.1182L513.928 80.5693ZM531.48 88.918V89.668C539.205 89.668 545.271 86.7906 549.583 81.0182L548.982 80.5693L548.381 80.1205C544.378 85.4796 538.776 88.168 531.48 88.168V88.918ZM548.982 80.5693L549.582 81.0187C553.389 75.9316 555.264 69.4762 555.264 61.7095H554.514H553.764C553.764 69.2318 551.951 75.3496 548.381 80.12L548.982 80.5693ZM554.514 61.7095H555.264C555.264 53.8769 553.39 47.3562 549.585 42.203L548.982 42.6484L548.379 43.0939C551.951 47.9322 553.764 54.1188 553.764 61.7095H554.514ZM548.982 42.6484L549.585 42.203C545.275 36.363 539.208 33.4492 531.48 33.4492V34.1992V34.9492C538.773 34.9492 544.374 37.6683 548.379 43.0938L548.982 42.6484ZM531.48 34.1992V33.4492C523.719 33.4492 517.636 36.362 513.324 42.203L513.928 42.6484L514.531 43.0938C518.535 37.6692 524.153 34.9492 531.48 34.9492V34.1992ZM513.928 42.6484L513.326 42.2004C509.488 47.3527 507.595 53.8403 507.595 61.6089H508.345H509.095C509.095 54.0884 510.924 47.9357 514.529 43.0965L513.928 42.6484Z" fill="#F2DAFF"/>
</g>
<defs>
<filter id="filter0_dd_182_34" x="-5" y="-2.9129" width="139.246" height="139.246" filterUnits="userSpaceOnUse" color-interpolation-filters="sRGB">
<feFlood flood-opacity="0" result="BackgroundImageFix"/>
<feColorMatrix in="SourceAlpha" type="matrix" values="0 0 0 0 0 0 0 0 0 0 0 0 0 0 0 0 0 0 127 0" result="hardAlpha"/>
<feOffset/>
<feGaussianBlur stdDeviation="2.5"/>
<feColorMatrix type="matrix" values="0 0 0 0 0.8 0 0 0 0 0 0 0 0 0 0.8 0 0 0 1 0"/>
<feBlend mode="normal" in2="BackgroundImageFix" result="effect1_dropShadow_182_34"/>
<feColorMatrix in="SourceAlpha" type="matrix" values="0 0 0 0 0 0 0 0 0 0 0 0 0 0 0 0 0 0 127 0" result="hardAlpha"/>
<feOffset/>
<feGaussianBlur stdDeviation="1.95"/>
<feColorMatrix type="matrix" values="0 0 0 0 0.716667 0 0 0 0 0 0 0 0 0 1 0 0 0 0.67 0"/>
<feBlend mode="normal" in2="effect1_dropShadow_182_34" result="effect2_dropShadow_182_34"/>
<feBlend mode="normal" in="SourceGraphic" in2="effect2_dropShadow_182_34" result="shape"/>
</filter>
<filter id="filter1_ddd_182_34" x="129.589" y="0" width="460.734" height="123.117" filterUnits="userSpaceOnUse" color-interpolation-filters="sRGB">
<feFlood flood-opacity="0" result="BackgroundImageFix"/>
<feColorMatrix in="SourceAlpha" type="matrix" values="0 0 0 0 0 0 0 0 0 0 0 0 0 0 0 0 0 0 127 0" result="hardAlpha"/>
<feOffset/>
<feGaussianBlur stdDeviation="5"/>
<feColorMatrix type="matrix" values="0 0 0 0 0.8 0 0 0 0 0 0 0 0 0 0.8 0 0 0 1 0"/>
<feBlend mode="normal" in2="BackgroundImageFix" result="effect1_dropShadow_182_34"/>
<feColorMatrix in="SourceAlpha" type="matrix" values="0 0 0 0 0 0 0 0 0 0 0 0 0 0 0 0 0 0 127 0" result="hardAlpha"/>
<feOffset/>
<feGaussianBlur stdDeviation="12.5"/>
<feColorMatrix type="matrix" values="0 0 0 0 0.8 0 0 0 0 0 0 0 0 0 0.8 0 0 0 0.25 0"/>
<feBlend mode="normal" in2="effect1_dropShadow_182_34" result="effect2_dropShadow_182_34"/>
<feColorMatrix in="SourceAlpha" type="matrix" values="0 0 0 0 0 0 0 0 0 0 0 0 0 0 0 0 0 0 127 0" result="hardAlpha"/>
<feOffset/>
<feGaussianBlur stdDeviation="12.5"/>
<feColorMatrix type="matrix" values="0 0 0 0 0.8 0 0 0 0 0 0 0 0 0 0.8 0 0 0 0.25 0"/>
<feBlend mode="normal" in2="effect2_dropShadow_182_34" result="effect3_dropShadow_182_34"/>
<feBlend mode="normal" in="SourceGraphic" in2="effect3_dropShadow_182_34" result="shape"/>
</filter>
<filter id="filter2_ddd_182_34" x="129.589" y="0" width="460.734" height="123.117" filterUnits="userSpaceOnUse" color-interpolation-filters="sRGB">
<feFlood flood-opacity="0" result="BackgroundImageFix"/>
<feColorMatrix in="SourceAlpha" type="matrix" values="0 0 0 0 0 0 0 0 0 0 0 0 0 0 0 0 0 0 127 0" result="hardAlpha"/>
<feOffset/>
<feGaussianBlur stdDeviation="5"/>
<feColorMatrix type="matrix" values="0 0 0 0 0.8 0 0 0 0 0 0 0 0 0 0.8 0 0 0 1 0"/>
<feBlend mode="normal" in2="BackgroundImageFix" result="effect1_dropShadow_182_34"/>
<feColorMatrix in="SourceAlpha" type="matrix" values="0 0 0 0 0 0 0 0 0 0 0 0 0 0 0 0 0 0 127 0" result="hardAlpha"/>
<feOffset/>
<feGaussianBlur stdDeviation="12.5"/>
<feColorMatrix type="matrix" values="0 0 0 0 0.8 0 0 0 0 0 0 0 0 0 0.8 0 0 0 0.25 0"/>
<feBlend mode="normal" in2="effect1_dropShadow_182_34" result="effect2_dropShadow_182_34"/>
<feColorMatrix in="SourceAlpha" type="matrix" values="0 0 0 0 0 0 0 0 0 0 0 0 0 0 0 0 0 0 127 0" result="hardAlpha"/>
<feOffset/>
<feGaussianBlur stdDeviation="12.5"/>
<feColorMatrix type="matrix" values="0 0 0 0 0.8 0 0 0 0 0 0 0 0 0 0.8 0 0 0 0.25 0"/>
<feBlend mode="normal" in2="effect2_dropShadow_182_34" result="effect3_dropShadow_182_34"/>
<feBlend mode="normal" in="SourceGraphic" in2="effect3_dropShadow_182_34" result="shape"/>
</filter>
<filter id="filter3_ddd_182_34" x="129.589" y="0" width="460.734" height="123.117" filterUnits="userSpaceOnUse" color-interpolation-filters="sRGB">
<feFlood flood-opacity="0" result="BackgroundImageFix"/>
<feColorMatrix in="SourceAlpha" type="matrix" values="0 0 0 0 0 0 0 0 0 0 0 0 0 0 0 0 0 0 127 0" result="hardAlpha"/>
<feOffset/>
<feGaussianBlur stdDeviation="12.5"/>
<feComposite in2="hardAlpha" operator="out"/>
<feColorMatrix type="matrix" values="0 0 0 0 0.846154 0 0 0 0 1 0 0 0 0 0.923077 0 0 0 1 0"/>
<feBlend mode="normal" in2="BackgroundImageFix" result="effect1_dropShadow_182_34"/>
<feColorMatrix in="SourceAlpha" type="matrix" values="0 0 0 0 0 0 0 0 0 0 0 0 0 0 0 0 0 0 127 0" result="hardAlpha"/>
<feOffset dy="4"/>
<feGaussianBlur stdDeviation="2"/>
<feColorMatrix type="matrix" values="0 0 0 0 0.8 0 0 0 0 0 0 0 0 0 0.8 0 0 0 0.25 0"/>
<feBlend mode="normal" in2="effect1_dropShadow_182_34" result="effect2_dropShadow_182_34"/>
<feColorMatrix in="SourceAlpha" type="matrix" values="0 0 0 0 0 0 0 0 0 0 0 0 0 0 0 0 0 0 127 0" result="hardAlpha"/>
<feOffset/>
<feGaussianBlur stdDeviation="1.7"/>
<feComposite in2="hardAlpha" operator="out"/>
<feColorMatrix type="matrix" values="0 0 0 0 0.8 0 0 0 0 0 0 0 0 0 0.8 0 0 0 1 0"/>
<feBlend mode="normal" in2="effect2_dropShadow_182_34" result="effect3_dropShadow_182_34"/>
<feBlend mode="normal" in="SourceGraphic" in2="effect3_dropShadow_182_34" result="shape"/>
</filter>
</defs>
</svg>
