<svg width="604" height="149" viewBox="0 0 604 149" fill="none" xmlns="http://www.w3.org/2000/svg">
<g filter="url(#filter0_dd_53_320)">
<path d="M60.382 30.0189C54.7402 30.0189 50.1585 34.6005 50.1585 40.2424C50.1585 45.8843 54.7402 50.466 60.382 50.466C66.0239 50.466 70.6056 45.8843 70.6056 40.2424C70.6056 34.6005 66.0239 30.0189 60.382 30.0189ZM64.4715 66.4829C64.4715 64.2236 62.6413 62.3934 60.382 62.3934C58.1228 62.3934 56.2926 64.2236 56.2926 66.4829C56.2926 68.7421 58.1228 70.5723 60.382 70.5723C62.6413 70.5723 64.4715 68.7421 64.4715 66.4829ZM50.1585 92.7359C50.1585 98.3778 54.7402 102.959 60.382 102.959C66.0239 102.959 70.6056 98.3778 70.6056 92.7359C70.6056 87.094 66.0239 82.5124 60.382 82.5124C54.7275 82.5124 50.1585 87.0814 50.1585 92.7359ZM76.3989 66.4829C76.3989 72.1247 80.9806 76.7064 86.6225 76.7064C92.2644 76.7064 96.8461 72.1247 96.8461 66.4829C96.8461 60.841 92.2644 56.2593 86.6225 56.2593C80.9806 56.2593 76.3989 60.841 76.3989 66.4829ZM23.9054 66.4829C23.9054 72.1247 28.4871 76.7064 34.129 76.7064C39.7709 76.7064 44.3525 72.1247 44.3525 66.4829C44.3525 60.841 39.7709 56.2593 34.129 56.2593C28.4871 56.2593 23.9054 60.841 23.9054 66.4829ZM120.638 114.332C116.851 106.09 108.559 100.7 99.484 100.612C94.7256 100.536 90.1187 101.95 86.1681 104.6C86.1429 104.613 86.1303 104.626 86.105 104.638C78.4941 109.775 69.5959 112.501 60.382 112.501C35.0125 112.501 14.3761 91.865 14.3761 66.4955C14.3761 41.1259 35.0125 20.4895 60.382 20.4895C85.7516 20.4895 106.388 41.1259 106.388 66.4955C106.388 74.283 104.406 81.9696 100.67 88.7349C99.85 90.2116 100.393 92.0796 101.869 92.9C103.346 93.7204 105.214 93.1777 106.035 91.701C110.276 84.027 112.522 75.318 112.522 66.4955C112.522 37.7433 89.1342 14.3554 60.382 14.3554C31.6299 14.3554 8.24194 37.7433 8.24194 66.4955C8.24194 95.2476 31.6299 118.636 60.382 118.636C70.7444 118.636 80.7534 115.594 89.3362 109.851C89.3614 109.838 89.3993 109.826 89.4245 109.8C92.378 107.768 95.8363 106.759 99.4335 106.746C106.136 106.809 112.27 110.798 115.072 116.894C115.589 118.017 116.7 118.686 117.861 118.686C118.29 118.686 118.719 118.598 119.136 118.408C120.676 117.689 121.345 115.871 120.638 114.332Z" fill="#CC6DCC"/>
</g>
<g filter="url(#filter1_ddd_53_320)">
<path d="M152.523 26.5547V25.8047C152.108 25.8047 151.773 26.1405 151.773 26.5547H152.523ZM200.15 26.5547H200.9C200.9 26.1405 200.564 25.8047 200.15 25.8047V26.5547ZM200.15 35.3057V36.0557C200.564 36.0557 200.9 35.7199 200.9 35.3057H200.15ZM162.581 35.3057V34.5557C162.167 34.5557 161.831 34.8915 161.831 35.3057H162.581ZM162.581 55.9258H161.831C161.831 56.34 162.167 56.6758 162.581 56.6758V55.9258ZM191.6 55.9258H192.35C192.35 55.5116 192.014 55.1758 191.6 55.1758V55.9258ZM191.6 64.375V65.125C192.014 65.125 192.35 64.7892 192.35 64.375H191.6ZM162.581 64.375V63.625C162.167 63.625 161.831 63.9608 161.831 64.375H162.581ZM162.581 96.5625V97.3125C162.995 97.3125 163.331 96.9767 163.331 96.5625H162.581ZM152.523 96.5625H151.773C151.773 96.9767 152.108 97.3125 152.523 97.3125V96.5625ZM152.523 26.5547V27.3047H200.15V26.5547V25.8047H152.523V26.5547ZM200.15 26.5547H199.4V35.3057H200.15H200.9V26.5547H200.15ZM200.15 35.3057V34.5557H162.581V35.3057V36.0557H200.15V35.3057ZM162.581 35.3057H161.831V55.9258H162.581H163.331V35.3057H162.581ZM162.581 55.9258V56.6758H191.6V55.9258V55.1758H162.581V55.9258ZM191.6 55.9258H190.85V64.375H191.6H192.35V55.9258H191.6ZM191.6 64.375V63.625H162.581V64.375V65.125H191.6V64.375ZM162.581 64.375H161.831V96.5625H162.581H163.331V64.375H162.581ZM162.581 96.5625V95.8125H152.523V96.5625V97.3125H162.581V96.5625ZM152.523 96.5625H153.273V26.5547H152.523H151.773V96.5625H152.523ZM212.773 26.5547V25.8047C212.359 25.8047 212.023 26.1405 212.023 26.5547H212.773ZM222.832 26.5547H223.582C223.582 26.1405 223.246 25.8047 222.832 25.8047V26.5547ZM222.832 96.5625V97.3125C223.246 97.3125 223.582 96.9767 223.582 96.5625H222.832ZM212.773 96.5625H212.023C212.023 96.9767 212.359 97.3125 212.773 97.3125V96.5625ZM212.773 26.5547V27.3047H222.832V26.5547V25.8047H212.773V26.5547ZM222.832 26.5547H222.082V96.5625H222.832H223.582V26.5547H222.832ZM222.832 96.5625V95.8125H212.773V96.5625V97.3125H222.832V96.5625ZM212.773 96.5625H213.523V26.5547H212.773H212.023V96.5625H212.773ZM238.423 26.5547V25.8047C238.009 25.8047 237.673 26.1405 237.673 26.5547H238.423ZM248.482 26.5547H249.232C249.232 26.1405 248.896 25.8047 248.482 25.8047V26.5547ZM248.482 87.7109H247.732C247.732 88.1252 248.067 88.4609 248.482 88.4609V87.7109ZM278.456 87.7109H279.206C279.206 87.2967 278.87 86.9609 278.456 86.9609V87.7109ZM278.456 96.5625V97.3125C278.87 97.3125 279.206 96.9767 279.206 96.5625H278.456ZM238.423 96.5625H237.673C237.673 96.9767 238.009 97.3125 238.423 97.3125V96.5625ZM238.423 26.5547V27.3047H248.482V26.5547V25.8047H238.423V26.5547ZM248.482 26.5547H247.732V87.7109H248.482H249.232V26.5547H248.482ZM248.482 87.7109V88.4609H278.456V87.7109V86.9609H248.482V87.7109ZM278.456 87.7109H277.706V96.5625H278.456H279.206V87.7109H278.456ZM278.456 96.5625V95.8125H238.423V96.5625V97.3125H278.456V96.5625ZM238.423 96.5625H239.173V26.5547H238.423H237.673V96.5625H238.423ZM289.571 26.5547V25.8047C289.157 25.8047 288.821 26.1405 288.821 26.5547H289.571ZM296.008 26.5547L296.574 26.0624C296.432 25.8987 296.225 25.8047 296.008 25.8047V26.5547ZM320.954 55.2217L320.388 55.714C320.531 55.8779 320.737 55.9719 320.954 55.9717C321.172 55.9715 321.378 55.8771 321.52 55.7129L320.954 55.2217ZM345.798 26.5547V25.8047C345.581 25.8047 345.374 25.8991 345.232 26.0635L345.798 26.5547ZM352.236 26.5547H352.986C352.986 26.1405 352.65 25.8047 352.236 25.8047V26.5547ZM352.236 96.5625V97.3125C352.65 97.3125 352.986 96.9767 352.986 96.5625H352.236ZM342.177 96.5625H341.427C341.427 96.9767 341.763 97.3125 342.177 97.3125V96.5625ZM342.177 43.252H342.927C342.927 42.928 342.719 42.6407 342.412 42.5395C342.104 42.4383 341.766 42.5461 341.574 42.8068L342.177 43.252ZM339.21 47.2754L339.779 47.7638C339.791 47.7498 339.803 47.7354 339.814 47.7206L339.21 47.2754ZM320.954 68.5493L320.385 69.0384C320.528 69.2042 320.735 69.2995 320.954 69.2993C321.173 69.2992 321.38 69.2037 321.523 69.0378L320.954 68.5493ZM302.697 47.3257L302.101 47.7804C302.11 47.7922 302.119 47.8036 302.129 47.8148L302.697 47.3257ZM299.629 43.3023L300.226 42.8475C300.031 42.5917 299.694 42.4887 299.389 42.5917C299.085 42.6946 298.879 42.9805 298.879 43.3023H299.629ZM299.629 96.5625V97.3125C300.044 97.3125 300.379 96.9767 300.379 96.5625H299.629ZM289.571 96.5625H288.821C288.821 96.9767 289.157 97.3125 289.571 97.3125V96.5625ZM289.571 26.5547V27.3047H296.008V26.5547V25.8047H289.571V26.5547ZM296.008 26.5547L295.443 27.047L320.388 55.714L320.954 55.2217L321.519 54.7294L296.574 26.0624L296.008 26.5547ZM320.954 55.2217L321.52 55.7129L346.365 27.0459L345.798 26.5547L345.232 26.0635L320.387 54.7305L320.954 55.2217ZM345.798 26.5547V27.3047H352.236V26.5547V25.8047H345.798V26.5547ZM352.236 26.5547H351.486V96.5625H352.236H352.986V26.5547H352.236ZM352.236 96.5625V95.8125H342.177V96.5625V97.3125H352.236V96.5625ZM342.177 96.5625H342.927V43.252H342.177H341.427V96.5625H342.177ZM342.177 43.252L341.574 42.8068L338.606 46.8302L339.21 47.2754L339.814 47.7206L342.781 43.6971L342.177 43.252ZM339.21 47.2754L338.641 46.787L320.385 68.0609L320.954 68.5493L321.523 69.0378L339.779 47.7638L339.21 47.2754ZM320.954 68.5493L321.522 68.0602L303.266 46.8366L302.697 47.3257L302.129 47.8148L320.385 69.0384L320.954 68.5493ZM302.697 47.3257L303.294 46.8709L300.226 42.8475L299.629 43.3023L299.033 43.757L302.101 47.7804L302.697 47.3257ZM299.629 43.3023H298.879V96.5625H299.629H300.379V43.3023H299.629ZM299.629 96.5625V95.8125H289.571V96.5625V97.3125H299.629V96.5625ZM289.571 96.5625H290.321V26.5547H289.571H288.821V96.5625H289.571ZM367.273 26.5547V25.8047C366.859 25.8047 366.523 26.1405 366.523 26.5547H367.273ZM412.487 26.5547H413.237C413.237 26.1405 412.901 25.8047 412.487 25.8047V26.5547ZM412.487 35.3057V36.0557C412.901 36.0557 413.237 35.7199 413.237 35.3057H412.487ZM377.332 35.3057V34.5557C376.918 34.5557 376.582 34.8915 376.582 35.3057H377.332ZM377.332 55.9258H376.582C376.582 56.34 376.918 56.6758 377.332 56.6758V55.9258ZM403.937 55.9258H404.687C404.687 55.5116 404.351 55.1758 403.937 55.1758V55.9258ZM403.937 64.375V65.125C404.351 65.125 404.687 64.7892 404.687 64.375H403.937ZM377.332 64.375V63.625C376.918 63.625 376.582 63.9608 376.582 64.375H377.332ZM377.332 87.7109H376.582C376.582 88.1252 376.918 88.4609 377.332 88.4609V87.7109ZM412.487 87.7109H413.237C413.237 87.2967 412.901 86.9609 412.487 86.9609V87.7109ZM412.487 96.5625V97.3125C412.901 97.3125 413.237 96.9767 413.237 96.5625H412.487ZM367.273 96.5625H366.523C366.523 96.9767 366.859 97.3125 367.273 97.3125V96.5625ZM367.273 26.5547V27.3047H412.487V26.5547V25.8047H367.273V26.5547ZM412.487 26.5547H411.737V35.3057H412.487H413.237V26.5547H412.487ZM412.487 35.3057V34.5557H377.332V35.3057V36.0557H412.487V35.3057ZM377.332 35.3057H376.582V55.9258H377.332H378.082V35.3057H377.332ZM377.332 55.9258V56.6758H403.937V55.9258V55.1758H377.332V55.9258ZM403.937 55.9258H403.187V64.375H403.937H404.687V55.9258H403.937ZM403.937 64.375V63.625H377.332V64.375V65.125H403.937V64.375ZM377.332 64.375H376.582V87.7109H377.332H378.082V64.375H377.332ZM377.332 87.7109V88.4609H412.487V87.7109V86.9609H377.332V87.7109ZM412.487 87.7109H411.737V96.5625H412.487H413.237V87.7109H412.487ZM412.487 96.5625V95.8125H367.273V96.5625V97.3125H412.487V96.5625ZM367.273 96.5625H368.023V26.5547H367.273H366.523V96.5625H367.273ZM427.524 26.5547V25.8047C427.11 25.8047 426.774 26.1405 426.774 26.5547H427.524ZM437.583 26.5547H438.333C438.333 26.1405 437.997 25.8047 437.583 25.8047V26.5547ZM437.583 96.5625V97.3125C437.997 97.3125 438.333 96.9767 438.333 96.5625H437.583ZM427.524 96.5625H426.774C426.774 96.9767 427.11 97.3125 427.524 97.3125V96.5625ZM427.524 26.5547V27.3047H437.583V26.5547V25.8047H427.524V26.5547ZM437.583 26.5547H436.833V96.5625H437.583H438.333V26.5547H437.583ZM437.583 96.5625V95.8125H427.524V96.5625V97.3125H437.583V96.5625ZM427.524 96.5625H428.274V26.5547H427.524H426.774V96.5625H427.524ZM453.979 26.5547V25.8047C453.564 25.8047 453.229 26.1405 453.229 26.5547H453.979ZM499.443 38.3232L500.12 38.0005L500.118 37.9948L499.443 38.3232ZM500.047 57.1831L499.349 56.9094L499.345 56.9177L500.047 57.1831ZM496.074 63.5703L495.533 63.0503L495.533 63.0507L496.074 63.5703ZM482.495 70.3096L482.358 69.5722C482.145 69.6117 481.96 69.7407 481.85 69.9261C481.74 70.1116 481.715 70.3356 481.781 70.5409L482.495 70.3096ZM494.615 85.4981L494.951 84.8272L494.944 84.8241L494.615 85.4981ZM499.343 87.0068L499.303 87.7558C499.309 87.7561 499.314 87.7563 499.319 87.7565L499.343 87.0068ZM503.869 86.8057H504.619C504.619 86.5771 504.515 86.361 504.336 86.2187C504.157 86.0764 503.923 86.0235 503.701 86.0749L503.869 86.8057ZM503.869 96.5625V97.3125C504.283 97.3125 504.619 96.9767 504.619 96.5625H503.869ZM482.344 88.5156L482.877 87.9886L482.874 87.9853L482.344 88.5156ZM472.939 70.9131L473.67 70.7467C473.593 70.4053 473.289 70.1631 472.939 70.1631V70.9131ZM464.037 70.9131V70.1631C463.623 70.1631 463.287 70.4989 463.287 70.9131H464.037ZM464.037 96.5625V97.3125C464.451 97.3125 464.787 96.9767 464.787 96.5625H464.037ZM453.979 96.5625H453.229C453.229 96.9767 453.564 97.3125 453.979 97.3125V96.5625ZM481.841 35.6074L481.617 36.3233L481.618 36.3235L481.841 35.6074ZM464.037 34.6016V33.8516C463.623 33.8516 463.287 34.1874 463.287 34.6016H464.037ZM464.037 62.8662H463.287C463.287 63.2804 463.623 63.6162 464.037 63.6162V62.8662ZM453.979 26.5547V27.3047H473.844V26.5547V25.8047H453.979V26.5547ZM473.844 26.5547V27.3047C486.967 27.3047 495.132 31.1852 498.769 38.6517L499.443 38.3232L500.118 37.9948C496.111 29.7699 487.209 25.8047 473.844 25.8047V26.5547ZM499.443 38.3232L498.766 38.646C500.087 41.416 500.755 44.5557 500.755 48.0801H501.505H502.255C502.255 44.3623 501.549 40.9975 500.12 38.0005L499.443 38.3232ZM501.505 48.0801H500.755C500.755 51.6045 500.277 54.54 499.349 56.9095L500.047 57.1831L500.745 57.4568C501.761 54.864 502.255 51.7308 502.255 48.0801H501.505ZM500.047 57.1831L499.345 56.9177C498.44 59.3112 497.168 61.3518 495.533 63.0503L496.074 63.5703L496.614 64.0904C498.4 62.2348 499.776 60.0173 500.748 57.4485L500.047 57.1831ZM496.074 63.5703L495.533 63.0507C492.379 66.3333 488.007 68.5211 482.358 69.5722L482.495 70.3096L482.632 71.0469C488.516 69.9522 493.197 67.6472 496.615 64.0899L496.074 63.5703ZM482.495 70.3096L481.781 70.5409C484.21 78.0322 488.365 83.281 494.286 86.172L494.615 85.4981L494.944 84.8241C489.466 82.1493 485.54 77.2725 483.208 70.0783L482.495 70.3096ZM494.615 85.4981L494.28 86.1689C496.198 87.1278 497.881 87.6809 499.303 87.7558L499.343 87.0068L499.382 86.2579C498.257 86.1986 496.788 85.7459 494.951 84.8272L494.615 85.4981ZM499.343 87.0068L499.319 87.7565C501.465 87.8235 503.062 87.7618 504.038 87.5365L503.869 86.8057L503.701 86.0749C502.933 86.2519 501.512 86.3243 499.366 86.2572L499.343 87.0068ZM503.869 86.8057H503.119V96.5625H503.869H504.619V86.8057H503.869ZM503.869 96.5625V95.8125H501.606V96.5625V97.3125H503.869V96.5625ZM501.606 96.5625V95.8125C494.262 95.8125 488.034 93.2104 482.877 87.9886L482.344 88.5156L481.81 89.0426C487.249 94.55 493.862 97.3125 501.606 97.3125V96.5625ZM482.344 88.5156L482.874 87.9853C478.324 83.4347 475.252 77.6978 473.67 70.7467L472.939 70.9131L472.208 71.0795C473.845 78.2775 477.043 84.2756 481.813 89.046L482.344 88.5156ZM472.939 70.9131V70.1631H464.037V70.9131V71.6631H472.939V70.9131ZM464.037 70.9131H463.287V96.5625H464.037H464.787V70.9131H464.037ZM464.037 96.5625V95.8125H453.979V96.5625V97.3125H464.037V96.5625ZM453.979 96.5625H454.729V26.5547H453.979H453.229V96.5625H453.979ZM473.19 62.8662V63.6162C479.332 63.6162 484.028 62.433 487.139 59.93L486.669 59.3457L486.199 58.7614C483.476 60.9524 479.187 62.1162 473.19 62.1162V62.8662ZM486.669 59.3457L487.139 59.93C490.287 57.3975 491.794 53.4919 491.794 48.3818H491.044H490.294C490.294 53.1963 488.885 56.6 486.199 58.7614L486.669 59.3457ZM491.044 48.3818H491.794C491.794 44.9629 490.999 42.0824 489.352 39.796C487.703 37.5077 485.251 35.8842 482.064 34.8914L481.841 35.6074L481.618 36.3235C484.566 37.2418 486.716 38.703 488.135 40.6728C489.556 42.6445 490.294 45.1956 490.294 48.3818H491.044ZM481.841 35.6074L482.065 34.8916C479.826 34.1919 477.147 33.8516 474.045 33.8516V34.6016V35.3516C477.046 35.3516 479.564 35.6818 481.617 36.3233L481.841 35.6074ZM474.045 34.6016V33.8516H464.037V34.6016V35.3516H474.045V34.6016ZM464.037 34.6016H463.287V62.8662H464.037H464.787V34.6016H464.037ZM464.037 62.8662V63.6162H473.19V62.8662V62.1162H464.037V62.8662ZM520.365 35.5068L519.82 34.9922L519.818 34.9945L520.365 35.5068ZM568.093 35.5068L567.545 36.0185L567.545 36.0188L568.093 35.5068ZM568.093 87.7109L567.548 87.1962L567.546 87.198L568.093 87.7109ZM520.365 87.7109L519.82 88.2257L519.821 88.2269L520.365 87.7109ZM526.702 80.5693L526.101 81.0174L526.103 81.0205L526.702 80.5693ZM561.756 80.5693L561.156 80.12L561.156 80.1205L561.756 80.5693ZM561.756 42.6484L561.153 43.0938L561.153 43.0939L561.756 42.6484ZM526.702 42.6484L527.304 43.0965L527.306 43.0938L526.702 42.6484ZM511.061 61.6592H511.811C511.811 56.2693 512.621 51.414 514.229 47.0838L513.525 46.8228L512.822 46.5618C511.144 51.0831 510.311 56.1187 510.311 61.6592H511.061ZM513.525 46.8228L514.229 47.0838C515.841 42.7414 518.071 39.0574 520.913 36.0192L520.365 35.5068L519.818 34.9945C516.826 38.1926 514.496 42.0526 512.822 46.5618L513.525 46.8228ZM520.365 35.5068L520.911 36.0215C526.891 29.6823 534.649 26.5 544.254 26.5V25.75V25C534.279 25 526.111 28.3223 519.82 34.9922L520.365 35.5068ZM544.254 25.75V26.5C553.894 26.5 561.634 29.6827 567.545 36.0185L568.093 35.5068L568.642 34.9952C562.416 28.3219 554.262 25 544.254 25V25.75ZM568.093 35.5068L567.545 36.0188C573.56 42.4584 576.597 50.9796 576.597 61.6592H577.347H578.097C578.097 50.6793 574.965 41.7656 568.641 34.9949L568.093 35.5068ZM577.347 61.6592H576.597C576.597 72.3391 573.56 80.8249 567.548 87.1962L568.093 87.7109L568.639 88.2257C574.965 81.5209 578.097 72.6388 578.097 61.6592H577.347ZM568.093 87.7109L567.546 87.198C561.67 93.4657 553.931 96.6172 544.254 96.6172V97.3672V98.1172C554.292 98.1172 562.446 94.8312 568.64 88.2239L568.093 87.7109ZM544.254 97.3672V96.6172C534.612 96.6172 526.854 93.4662 520.91 87.195L520.365 87.7109L519.821 88.2269C526.081 94.8307 534.249 98.1172 544.254 98.1172V97.3672ZM520.365 87.7109L520.911 87.1961C514.864 80.7901 511.811 72.3036 511.811 61.6592H511.061H510.311C510.311 72.6072 513.461 81.4886 519.82 88.2257L520.365 87.7109ZM521.12 61.6089H520.37C520.37 69.3775 522.262 75.8651 526.101 81.0174L526.702 80.5693L527.304 80.1213C523.699 75.2821 521.87 69.1294 521.87 61.6089H521.12ZM526.702 80.5693L526.103 81.0205C530.448 86.7908 536.53 89.668 544.254 89.668V88.918V88.168C536.958 88.168 531.338 85.4794 527.301 80.1182L526.702 80.5693ZM544.254 88.918V89.668C551.979 89.668 558.045 86.7906 562.357 81.0182L561.756 80.5693L561.156 80.1205C557.152 85.4796 551.551 88.168 544.254 88.168V88.918ZM561.756 80.5693L562.357 81.0187C566.164 75.9316 568.039 69.4762 568.039 61.7095H567.289H566.539C566.539 69.2319 564.726 75.3496 561.156 80.12L561.756 80.5693ZM567.289 61.7095H568.039C568.039 53.8769 566.164 47.3562 562.36 42.203L561.756 42.6484L561.153 43.0939C564.725 47.9322 566.539 54.1189 566.539 61.7095H567.289ZM561.756 42.6484L562.36 42.2031C558.049 36.363 551.983 33.4492 544.254 33.4492V34.1992V34.9492C551.547 34.9492 557.148 37.6683 561.153 43.0938L561.756 42.6484ZM544.254 34.1992V33.4492C536.494 33.4492 530.41 36.362 526.099 42.2031L526.702 42.6484L527.306 43.0938C531.31 37.6692 536.927 34.9492 544.254 34.9492V34.1992ZM526.702 42.6484L526.101 42.2004C522.262 47.3527 520.37 53.8403 520.37 61.6089H521.12H521.87C521.87 54.0884 523.699 47.9357 527.304 43.0965L526.702 42.6484Z" fill="#CC00CC"/>
<path d="M152.523 26.5547V25.8047C152.108 25.8047 151.773 26.1405 151.773 26.5547H152.523ZM200.15 26.5547H200.9C200.9 26.1405 200.564 25.8047 200.15 25.8047V26.5547ZM200.15 35.3057V36.0557C200.564 36.0557 200.9 35.7199 200.9 35.3057H200.15ZM162.581 35.3057V34.5557C162.167 34.5557 161.831 34.8915 161.831 35.3057H162.581ZM162.581 55.9258H161.831C161.831 56.34 162.167 56.6758 162.581 56.6758V55.9258ZM191.6 55.9258H192.35C192.35 55.5116 192.014 55.1758 191.6 55.1758V55.9258ZM191.6 64.375V65.125C192.014 65.125 192.35 64.7892 192.35 64.375H191.6ZM162.581 64.375V63.625C162.167 63.625 161.831 63.9608 161.831 64.375H162.581ZM162.581 96.5625V97.3125C162.995 97.3125 163.331 96.9767 163.331 96.5625H162.581ZM152.523 96.5625H151.773C151.773 96.9767 152.108 97.3125 152.523 97.3125V96.5625ZM152.523 26.5547V27.3047H200.15V26.5547V25.8047H152.523V26.5547ZM200.15 26.5547H199.4V35.3057H200.15H200.9V26.5547H200.15ZM200.15 35.3057V34.5557H162.581V35.3057V36.0557H200.15V35.3057ZM162.581 35.3057H161.831V55.9258H162.581H163.331V35.3057H162.581ZM162.581 55.9258V56.6758H191.6V55.9258V55.1758H162.581V55.9258ZM191.6 55.9258H190.85V64.375H191.6H192.35V55.9258H191.6ZM191.6 64.375V63.625H162.581V64.375V65.125H191.6V64.375ZM162.581 64.375H161.831V96.5625H162.581H163.331V64.375H162.581ZM162.581 96.5625V95.8125H152.523V96.5625V97.3125H162.581V96.5625ZM152.523 96.5625H153.273V26.5547H152.523H151.773V96.5625H152.523ZM212.773 26.5547V25.8047C212.359 25.8047 212.023 26.1405 212.023 26.5547H212.773ZM222.832 26.5547H223.582C223.582 26.1405 223.246 25.8047 222.832 25.8047V26.5547ZM222.832 96.5625V97.3125C223.246 97.3125 223.582 96.9767 223.582 96.5625H222.832ZM212.773 96.5625H212.023C212.023 96.9767 212.359 97.3125 212.773 97.3125V96.5625ZM212.773 26.5547V27.3047H222.832V26.5547V25.8047H212.773V26.5547ZM222.832 26.5547H222.082V96.5625H222.832H223.582V26.5547H222.832ZM222.832 96.5625V95.8125H212.773V96.5625V97.3125H222.832V96.5625ZM212.773 96.5625H213.523V26.5547H212.773H212.023V96.5625H212.773ZM238.423 26.5547V25.8047C238.009 25.8047 237.673 26.1405 237.673 26.5547H238.423ZM248.482 26.5547H249.232C249.232 26.1405 248.896 25.8047 248.482 25.8047V26.5547ZM248.482 87.7109H247.732C247.732 88.1252 248.067 88.4609 248.482 88.4609V87.7109ZM278.456 87.7109H279.206C279.206 87.2967 278.87 86.9609 278.456 86.9609V87.7109ZM278.456 96.5625V97.3125C278.87 97.3125 279.206 96.9767 279.206 96.5625H278.456ZM238.423 96.5625H237.673C237.673 96.9767 238.009 97.3125 238.423 97.3125V96.5625ZM238.423 26.5547V27.3047H248.482V26.5547V25.8047H238.423V26.5547ZM248.482 26.5547H247.732V87.7109H248.482H249.232V26.5547H248.482ZM248.482 87.7109V88.4609H278.456V87.7109V86.9609H248.482V87.7109ZM278.456 87.7109H277.706V96.5625H278.456H279.206V87.7109H278.456ZM278.456 96.5625V95.8125H238.423V96.5625V97.3125H278.456V96.5625ZM238.423 96.5625H239.173V26.5547H238.423H237.673V96.5625H238.423ZM289.571 26.5547V25.8047C289.157 25.8047 288.821 26.1405 288.821 26.5547H289.571ZM296.008 26.5547L296.574 26.0624C296.432 25.8987 296.225 25.8047 296.008 25.8047V26.5547ZM320.954 55.2217L320.388 55.714C320.531 55.8779 320.737 55.9719 320.954 55.9717C321.172 55.9715 321.378 55.8771 321.52 55.7129L320.954 55.2217ZM345.798 26.5547V25.8047C345.581 25.8047 345.374 25.8991 345.232 26.0635L345.798 26.5547ZM352.236 26.5547H352.986C352.986 26.1405 352.65 25.8047 352.236 25.8047V26.5547ZM352.236 96.5625V97.3125C352.65 97.3125 352.986 96.9767 352.986 96.5625H352.236ZM342.177 96.5625H341.427C341.427 96.9767 341.763 97.3125 342.177 97.3125V96.5625ZM342.177 43.252H342.927C342.927 42.928 342.719 42.6407 342.412 42.5395C342.104 42.4383 341.766 42.5461 341.574 42.8068L342.177 43.252ZM339.21 47.2754L339.779 47.7638C339.791 47.7498 339.803 47.7354 339.814 47.7206L339.21 47.2754ZM320.954 68.5493L320.385 69.0384C320.528 69.2042 320.735 69.2995 320.954 69.2993C321.173 69.2992 321.38 69.2037 321.523 69.0378L320.954 68.5493ZM302.697 47.3257L302.101 47.7804C302.11 47.7922 302.119 47.8036 302.129 47.8148L302.697 47.3257ZM299.629 43.3023L300.226 42.8475C300.031 42.5917 299.694 42.4887 299.389 42.5917C299.085 42.6946 298.879 42.9805 298.879 43.3023H299.629ZM299.629 96.5625V97.3125C300.044 97.3125 300.379 96.9767 300.379 96.5625H299.629ZM289.571 96.5625H288.821C288.821 96.9767 289.157 97.3125 289.571 97.3125V96.5625ZM289.571 26.5547V27.3047H296.008V26.5547V25.8047H289.571V26.5547ZM296.008 26.5547L295.443 27.047L320.388 55.714L320.954 55.2217L321.519 54.7294L296.574 26.0624L296.008 26.5547ZM320.954 55.2217L321.52 55.7129L346.365 27.0459L345.798 26.5547L345.232 26.0635L320.387 54.7305L320.954 55.2217ZM345.798 26.5547V27.3047H352.236V26.5547V25.8047H345.798V26.5547ZM352.236 26.5547H351.486V96.5625H352.236H352.986V26.5547H352.236ZM352.236 96.5625V95.8125H342.177V96.5625V97.3125H352.236V96.5625ZM342.177 96.5625H342.927V43.252H342.177H341.427V96.5625H342.177ZM342.177 43.252L341.574 42.8068L338.606 46.8302L339.21 47.2754L339.814 47.7206L342.781 43.6971L342.177 43.252ZM339.21 47.2754L338.641 46.787L320.385 68.0609L320.954 68.5493L321.523 69.0378L339.779 47.7638L339.21 47.2754ZM320.954 68.5493L321.522 68.0602L303.266 46.8366L302.697 47.3257L302.129 47.8148L320.385 69.0384L320.954 68.5493ZM302.697 47.3257L303.294 46.8709L300.226 42.8475L299.629 43.3023L299.033 43.757L302.101 47.7804L302.697 47.3257ZM299.629 43.3023H298.879V96.5625H299.629H300.379V43.3023H299.629ZM299.629 96.5625V95.8125H289.571V96.5625V97.3125H299.629V96.5625ZM289.571 96.5625H290.321V26.5547H289.571H288.821V96.5625H289.571ZM367.273 26.5547V25.8047C366.859 25.8047 366.523 26.1405 366.523 26.5547H367.273ZM412.487 26.5547H413.237C413.237 26.1405 412.901 25.8047 412.487 25.8047V26.5547ZM412.487 35.3057V36.0557C412.901 36.0557 413.237 35.7199 413.237 35.3057H412.487ZM377.332 35.3057V34.5557C376.918 34.5557 376.582 34.8915 376.582 35.3057H377.332ZM377.332 55.9258H376.582C376.582 56.34 376.918 56.6758 377.332 56.6758V55.9258ZM403.937 55.9258H404.687C404.687 55.5116 404.351 55.1758 403.937 55.1758V55.9258ZM403.937 64.375V65.125C404.351 65.125 404.687 64.7892 404.687 64.375H403.937ZM377.332 64.375V63.625C376.918 63.625 376.582 63.9608 376.582 64.375H377.332ZM377.332 87.7109H376.582C376.582 88.1252 376.918 88.4609 377.332 88.4609V87.7109ZM412.487 87.7109H413.237C413.237 87.2967 412.901 86.9609 412.487 86.9609V87.7109ZM412.487 96.5625V97.3125C412.901 97.3125 413.237 96.9767 413.237 96.5625H412.487ZM367.273 96.5625H366.523C366.523 96.9767 366.859 97.3125 367.273 97.3125V96.5625ZM367.273 26.5547V27.3047H412.487V26.5547V25.8047H367.273V26.5547ZM412.487 26.5547H411.737V35.3057H412.487H413.237V26.5547H412.487ZM412.487 35.3057V34.5557H377.332V35.3057V36.0557H412.487V35.3057ZM377.332 35.3057H376.582V55.9258H377.332H378.082V35.3057H377.332ZM377.332 55.9258V56.6758H403.937V55.9258V55.1758H377.332V55.9258ZM403.937 55.9258H403.187V64.375H403.937H404.687V55.9258H403.937ZM403.937 64.375V63.625H377.332V64.375V65.125H403.937V64.375ZM377.332 64.375H376.582V87.7109H377.332H378.082V64.375H377.332ZM377.332 87.7109V88.4609H412.487V87.7109V86.9609H377.332V87.7109ZM412.487 87.7109H411.737V96.5625H412.487H413.237V87.7109H412.487ZM412.487 96.5625V95.8125H367.273V96.5625V97.3125H412.487V96.5625ZM367.273 96.5625H368.023V26.5547H367.273H366.523V96.5625H367.273ZM427.524 26.5547V25.8047C427.11 25.8047 426.774 26.1405 426.774 26.5547H427.524ZM437.583 26.5547H438.333C438.333 26.1405 437.997 25.8047 437.583 25.8047V26.5547ZM437.583 96.5625V97.3125C437.997 97.3125 438.333 96.9767 438.333 96.5625H437.583ZM427.524 96.5625H426.774C426.774 96.9767 427.11 97.3125 427.524 97.3125V96.5625ZM427.524 26.5547V27.3047H437.583V26.5547V25.8047H427.524V26.5547ZM437.583 26.5547H436.833V96.5625H437.583H438.333V26.5547H437.583ZM437.583 96.5625V95.8125H427.524V96.5625V97.3125H437.583V96.5625ZM427.524 96.5625H428.274V26.5547H427.524H426.774V96.5625H427.524ZM453.979 26.5547V25.8047C453.564 25.8047 453.229 26.1405 453.229 26.5547H453.979ZM499.443 38.3232L500.12 38.0005L500.118 37.9948L499.443 38.3232ZM500.047 57.1831L499.349 56.9094L499.345 56.9177L500.047 57.1831ZM496.074 63.5703L495.533 63.0503L495.533 63.0507L496.074 63.5703ZM482.495 70.3096L482.358 69.5722C482.145 69.6117 481.96 69.7407 481.85 69.9261C481.74 70.1116 481.715 70.3356 481.781 70.5409L482.495 70.3096ZM494.615 85.4981L494.951 84.8272L494.944 84.8241L494.615 85.4981ZM499.343 87.0068L499.303 87.7558C499.309 87.7561 499.314 87.7563 499.319 87.7565L499.343 87.0068ZM503.869 86.8057H504.619C504.619 86.5771 504.515 86.361 504.336 86.2187C504.157 86.0764 503.923 86.0235 503.701 86.0749L503.869 86.8057ZM503.869 96.5625V97.3125C504.283 97.3125 504.619 96.9767 504.619 96.5625H503.869ZM482.344 88.5156L482.877 87.9886L482.874 87.9853L482.344 88.5156ZM472.939 70.9131L473.67 70.7467C473.593 70.4053 473.289 70.1631 472.939 70.1631V70.9131ZM464.037 70.9131V70.1631C463.623 70.1631 463.287 70.4989 463.287 70.9131H464.037ZM464.037 96.5625V97.3125C464.451 97.3125 464.787 96.9767 464.787 96.5625H464.037ZM453.979 96.5625H453.229C453.229 96.9767 453.564 97.3125 453.979 97.3125V96.5625ZM481.841 35.6074L481.617 36.3233L481.618 36.3235L481.841 35.6074ZM464.037 34.6016V33.8516C463.623 33.8516 463.287 34.1874 463.287 34.6016H464.037ZM464.037 62.8662H463.287C463.287 63.2804 463.623 63.6162 464.037 63.6162V62.8662ZM453.979 26.5547V27.3047H473.844V26.5547V25.8047H453.979V26.5547ZM473.844 26.5547V27.3047C486.967 27.3047 495.132 31.1852 498.769 38.6517L499.443 38.3232L500.118 37.9948C496.111 29.7699 487.209 25.8047 473.844 25.8047V26.5547ZM499.443 38.3232L498.766 38.646C500.087 41.416 500.755 44.5557 500.755 48.0801H501.505H502.255C502.255 44.3623 501.549 40.9975 500.12 38.0005L499.443 38.3232ZM501.505 48.0801H500.755C500.755 51.6045 500.277 54.54 499.349 56.9095L500.047 57.1831L500.745 57.4568C501.761 54.864 502.255 51.7308 502.255 48.0801H501.505ZM500.047 57.1831L499.345 56.9177C498.44 59.3112 497.168 61.3518 495.533 63.0503L496.074 63.5703L496.614 64.0904C498.4 62.2348 499.776 60.0173 500.748 57.4485L500.047 57.1831ZM496.074 63.5703L495.533 63.0507C492.379 66.3333 488.007 68.5211 482.358 69.5722L482.495 70.3096L482.632 71.0469C488.516 69.9522 493.197 67.6472 496.615 64.0899L496.074 63.5703ZM482.495 70.3096L481.781 70.5409C484.21 78.0322 488.365 83.281 494.286 86.172L494.615 85.4981L494.944 84.8241C489.466 82.1493 485.54 77.2725 483.208 70.0783L482.495 70.3096ZM494.615 85.4981L494.28 86.1689C496.198 87.1278 497.881 87.6809 499.303 87.7558L499.343 87.0068L499.382 86.2579C498.257 86.1986 496.788 85.7459 494.951 84.8272L494.615 85.4981ZM499.343 87.0068L499.319 87.7565C501.465 87.8235 503.062 87.7618 504.038 87.5365L503.869 86.8057L503.701 86.0749C502.933 86.2519 501.512 86.3243 499.366 86.2572L499.343 87.0068ZM503.869 86.8057H503.119V96.5625H503.869H504.619V86.8057H503.869ZM503.869 96.5625V95.8125H501.606V96.5625V97.3125H503.869V96.5625ZM501.606 96.5625V95.8125C494.262 95.8125 488.034 93.2104 482.877 87.9886L482.344 88.5156L481.81 89.0426C487.249 94.55 493.862 97.3125 501.606 97.3125V96.5625ZM482.344 88.5156L482.874 87.9853C478.324 83.4347 475.252 77.6978 473.67 70.7467L472.939 70.9131L472.208 71.0795C473.845 78.2775 477.043 84.2756 481.813 89.046L482.344 88.5156ZM472.939 70.9131V70.1631H464.037V70.9131V71.6631H472.939V70.9131ZM464.037 70.9131H463.287V96.5625H464.037H464.787V70.9131H464.037ZM464.037 96.5625V95.8125H453.979V96.5625V97.3125H464.037V96.5625ZM453.979 96.5625H454.729V26.5547H453.979H453.229V96.5625H453.979ZM473.19 62.8662V63.6162C479.332 63.6162 484.028 62.433 487.139 59.93L486.669 59.3457L486.199 58.7614C483.476 60.9524 479.187 62.1162 473.19 62.1162V62.8662ZM486.669 59.3457L487.139 59.93C490.287 57.3975 491.794 53.4919 491.794 48.3818H491.044H490.294C490.294 53.1963 488.885 56.6 486.199 58.7614L486.669 59.3457ZM491.044 48.3818H491.794C491.794 44.9629 490.999 42.0824 489.352 39.796C487.703 37.5077 485.251 35.8842 482.064 34.8914L481.841 35.6074L481.618 36.3235C484.566 37.2418 486.716 38.703 488.135 40.6728C489.556 42.6445 490.294 45.1956 490.294 48.3818H491.044ZM481.841 35.6074L482.065 34.8916C479.826 34.1919 477.147 33.8516 474.045 33.8516V34.6016V35.3516C477.046 35.3516 479.564 35.6818 481.617 36.3233L481.841 35.6074ZM474.045 34.6016V33.8516H464.037V34.6016V35.3516H474.045V34.6016ZM464.037 34.6016H463.287V62.8662H464.037H464.787V34.6016H464.037ZM464.037 62.8662V63.6162H473.19V62.8662V62.1162H464.037V62.8662ZM520.365 35.5068L519.82 34.9922L519.818 34.9945L520.365 35.5068ZM568.093 35.5068L567.545 36.0185L567.545 36.0188L568.093 35.5068ZM568.093 87.7109L567.548 87.1962L567.546 87.198L568.093 87.7109ZM520.365 87.7109L519.82 88.2257L519.821 88.2269L520.365 87.7109ZM526.702 80.5693L526.101 81.0174L526.103 81.0205L526.702 80.5693ZM561.756 80.5693L561.156 80.12L561.156 80.1205L561.756 80.5693ZM561.756 42.6484L561.153 43.0938L561.153 43.0939L561.756 42.6484ZM526.702 42.6484L527.304 43.0965L527.306 43.0938L526.702 42.6484ZM511.061 61.6592H511.811C511.811 56.2693 512.621 51.414 514.229 47.0838L513.525 46.8228L512.822 46.5618C511.144 51.0831 510.311 56.1187 510.311 61.6592H511.061ZM513.525 46.8228L514.229 47.0838C515.841 42.7414 518.071 39.0574 520.913 36.0192L520.365 35.5068L519.818 34.9945C516.826 38.1926 514.496 42.0526 512.822 46.5618L513.525 46.8228ZM520.365 35.5068L520.911 36.0215C526.891 29.6823 534.649 26.5 544.254 26.5V25.75V25C534.279 25 526.111 28.3223 519.82 34.9922L520.365 35.5068ZM544.254 25.75V26.5C553.894 26.5 561.634 29.6827 567.545 36.0185L568.093 35.5068L568.642 34.9952C562.416 28.3219 554.262 25 544.254 25V25.75ZM568.093 35.5068L567.545 36.0188C573.56 42.4584 576.597 50.9796 576.597 61.6592H577.347H578.097C578.097 50.6793 574.965 41.7656 568.641 34.9949L568.093 35.5068ZM577.347 61.6592H576.597C576.597 72.3391 573.56 80.8249 567.548 87.1962L568.093 87.7109L568.639 88.2257C574.965 81.5209 578.097 72.6388 578.097 61.6592H577.347ZM568.093 87.7109L567.546 87.198C561.67 93.4657 553.931 96.6172 544.254 96.6172V97.3672V98.1172C554.292 98.1172 562.446 94.8312 568.64 88.2239L568.093 87.7109ZM544.254 97.3672V96.6172C534.612 96.6172 526.854 93.4662 520.91 87.195L520.365 87.7109L519.821 88.2269C526.081 94.8307 534.249 98.1172 544.254 98.1172V97.3672ZM520.365 87.7109L520.911 87.1961C514.864 80.7901 511.811 72.3036 511.811 61.6592H511.061H510.311C510.311 72.6072 513.461 81.4886 519.82 88.2257L520.365 87.7109ZM521.12 61.6089H520.37C520.37 69.3775 522.262 75.8651 526.101 81.0174L526.702 80.5693L527.304 80.1213C523.699 75.2821 521.87 69.1294 521.87 61.6089H521.12ZM526.702 80.5693L526.103 81.0205C530.448 86.7908 536.53 89.668 544.254 89.668V88.918V88.168C536.958 88.168 531.338 85.4794 527.301 80.1182L526.702 80.5693ZM544.254 88.918V89.668C551.979 89.668 558.045 86.7906 562.357 81.0182L561.756 80.5693L561.156 80.1205C557.152 85.4796 551.551 88.168 544.254 88.168V88.918ZM561.756 80.5693L562.357 81.0187C566.164 75.9316 568.039 69.4762 568.039 61.7095H567.289H566.539C566.539 69.2319 564.726 75.3496 561.156 80.12L561.756 80.5693ZM567.289 61.7095H568.039C568.039 53.8769 566.164 47.3562 562.36 42.203L561.756 42.6484L561.153 43.0939C564.725 47.9322 566.539 54.1189 566.539 61.7095H567.289ZM561.756 42.6484L562.36 42.2031C558.049 36.363 551.983 33.4492 544.254 33.4492V34.1992V34.9492C551.547 34.9492 557.148 37.6683 561.153 43.0938L561.756 42.6484ZM544.254 34.1992V33.4492C536.494 33.4492 530.41 36.362 526.099 42.2031L526.702 42.6484L527.306 43.0938C531.31 37.6692 536.927 34.9492 544.254 34.9492V34.1992ZM526.702 42.6484L526.101 42.2004C522.262 47.3527 520.37 53.8403 520.37 61.6089H521.12H521.87C521.87 54.0884 523.699 47.9357 527.304 43.0965L526.702 42.6484Z" fill="#FF66FF" fill-opacity="0.8"/>
</g>
<g filter="url(#filter2_ddd_53_320)">
<path d="M152.523 26.5547V25.8047C152.108 25.8047 151.773 26.1405 151.773 26.5547H152.523ZM200.15 26.5547H200.9C200.9 26.1405 200.564 25.8047 200.15 25.8047V26.5547ZM200.15 35.3057V36.0557C200.564 36.0557 200.9 35.7199 200.9 35.3057H200.15ZM162.581 35.3057V34.5557C162.167 34.5557 161.831 34.8915 161.831 35.3057H162.581ZM162.581 55.9258H161.831C161.831 56.34 162.167 56.6758 162.581 56.6758V55.9258ZM191.6 55.9258H192.35C192.35 55.5116 192.014 55.1758 191.6 55.1758V55.9258ZM191.6 64.375V65.125C192.014 65.125 192.35 64.7892 192.35 64.375H191.6ZM162.581 64.375V63.625C162.167 63.625 161.831 63.9608 161.831 64.375H162.581ZM162.581 96.5625V97.3125C162.995 97.3125 163.331 96.9767 163.331 96.5625H162.581ZM152.523 96.5625H151.773C151.773 96.9767 152.108 97.3125 152.523 97.3125V96.5625ZM152.523 26.5547V27.3047H200.15V26.5547V25.8047H152.523V26.5547ZM200.15 26.5547H199.4V35.3057H200.15H200.9V26.5547H200.15ZM200.15 35.3057V34.5557H162.581V35.3057V36.0557H200.15V35.3057ZM162.581 35.3057H161.831V55.9258H162.581H163.331V35.3057H162.581ZM162.581 55.9258V56.6758H191.6V55.9258V55.1758H162.581V55.9258ZM191.6 55.9258H190.85V64.375H191.6H192.35V55.9258H191.6ZM191.6 64.375V63.625H162.581V64.375V65.125H191.6V64.375ZM162.581 64.375H161.831V96.5625H162.581H163.331V64.375H162.581ZM162.581 96.5625V95.8125H152.523V96.5625V97.3125H162.581V96.5625ZM152.523 96.5625H153.273V26.5547H152.523H151.773V96.5625H152.523ZM212.773 26.5547V25.8047C212.359 25.8047 212.023 26.1405 212.023 26.5547H212.773ZM222.832 26.5547H223.582C223.582 26.1405 223.246 25.8047 222.832 25.8047V26.5547ZM222.832 96.5625V97.3125C223.246 97.3125 223.582 96.9767 223.582 96.5625H222.832ZM212.773 96.5625H212.023C212.023 96.9767 212.359 97.3125 212.773 97.3125V96.5625ZM212.773 26.5547V27.3047H222.832V26.5547V25.8047H212.773V26.5547ZM222.832 26.5547H222.082V96.5625H222.832H223.582V26.5547H222.832ZM222.832 96.5625V95.8125H212.773V96.5625V97.3125H222.832V96.5625ZM212.773 96.5625H213.523V26.5547H212.773H212.023V96.5625H212.773ZM238.423 26.5547V25.8047C238.009 25.8047 237.673 26.1405 237.673 26.5547H238.423ZM248.482 26.5547H249.232C249.232 26.1405 248.896 25.8047 248.482 25.8047V26.5547ZM248.482 87.7109H247.732C247.732 88.1252 248.067 88.4609 248.482 88.4609V87.7109ZM278.456 87.7109H279.206C279.206 87.2967 278.87 86.9609 278.456 86.9609V87.7109ZM278.456 96.5625V97.3125C278.87 97.3125 279.206 96.9767 279.206 96.5625H278.456ZM238.423 96.5625H237.673C237.673 96.9767 238.009 97.3125 238.423 97.3125V96.5625ZM238.423 26.5547V27.3047H248.482V26.5547V25.8047H238.423V26.5547ZM248.482 26.5547H247.732V87.7109H248.482H249.232V26.5547H248.482ZM248.482 87.7109V88.4609H278.456V87.7109V86.9609H248.482V87.7109ZM278.456 87.7109H277.706V96.5625H278.456H279.206V87.7109H278.456ZM278.456 96.5625V95.8125H238.423V96.5625V97.3125H278.456V96.5625ZM238.423 96.5625H239.173V26.5547H238.423H237.673V96.5625H238.423ZM289.571 26.5547V25.8047C289.157 25.8047 288.821 26.1405 288.821 26.5547H289.571ZM296.008 26.5547L296.574 26.0624C296.432 25.8987 296.225 25.8047 296.008 25.8047V26.5547ZM320.954 55.2217L320.388 55.714C320.531 55.8779 320.737 55.9719 320.954 55.9717C321.172 55.9715 321.378 55.8771 321.52 55.7129L320.954 55.2217ZM345.798 26.5547V25.8047C345.581 25.8047 345.374 25.8991 345.232 26.0635L345.798 26.5547ZM352.236 26.5547H352.986C352.986 26.1405 352.65 25.8047 352.236 25.8047V26.5547ZM352.236 96.5625V97.3125C352.65 97.3125 352.986 96.9767 352.986 96.5625H352.236ZM342.177 96.5625H341.427C341.427 96.9767 341.763 97.3125 342.177 97.3125V96.5625ZM342.177 43.252H342.927C342.927 42.928 342.719 42.6407 342.412 42.5395C342.104 42.4383 341.766 42.5461 341.574 42.8068L342.177 43.252ZM339.21 47.2754L339.779 47.7638C339.791 47.7498 339.803 47.7354 339.814 47.7206L339.21 47.2754ZM320.954 68.5493L320.385 69.0384C320.528 69.2042 320.735 69.2995 320.954 69.2993C321.173 69.2992 321.38 69.2037 321.523 69.0378L320.954 68.5493ZM302.697 47.3257L302.101 47.7804C302.11 47.7922 302.119 47.8036 302.129 47.8148L302.697 47.3257ZM299.629 43.3023L300.226 42.8475C300.031 42.5917 299.694 42.4887 299.389 42.5917C299.085 42.6946 298.879 42.9805 298.879 43.3023H299.629ZM299.629 96.5625V97.3125C300.044 97.3125 300.379 96.9767 300.379 96.5625H299.629ZM289.571 96.5625H288.821C288.821 96.9767 289.157 97.3125 289.571 97.3125V96.5625ZM289.571 26.5547V27.3047H296.008V26.5547V25.8047H289.571V26.5547ZM296.008 26.5547L295.443 27.047L320.388 55.714L320.954 55.2217L321.519 54.7294L296.574 26.0624L296.008 26.5547ZM320.954 55.2217L321.52 55.7129L346.365 27.0459L345.798 26.5547L345.232 26.0635L320.387 54.7305L320.954 55.2217ZM345.798 26.5547V27.3047H352.236V26.5547V25.8047H345.798V26.5547ZM352.236 26.5547H351.486V96.5625H352.236H352.986V26.5547H352.236ZM352.236 96.5625V95.8125H342.177V96.5625V97.3125H352.236V96.5625ZM342.177 96.5625H342.927V43.252H342.177H341.427V96.5625H342.177ZM342.177 43.252L341.574 42.8068L338.606 46.8302L339.21 47.2754L339.814 47.7206L342.781 43.6971L342.177 43.252ZM339.21 47.2754L338.641 46.787L320.385 68.0609L320.954 68.5493L321.523 69.0378L339.779 47.7638L339.21 47.2754ZM320.954 68.5493L321.522 68.0602L303.266 46.8366L302.697 47.3257L302.129 47.8148L320.385 69.0384L320.954 68.5493ZM302.697 47.3257L303.294 46.8709L300.226 42.8475L299.629 43.3023L299.033 43.757L302.101 47.7804L302.697 47.3257ZM299.629 43.3023H298.879V96.5625H299.629H300.379V43.3023H299.629ZM299.629 96.5625V95.8125H289.571V96.5625V97.3125H299.629V96.5625ZM289.571 96.5625H290.321V26.5547H289.571H288.821V96.5625H289.571ZM367.273 26.5547V25.8047C366.859 25.8047 366.523 26.1405 366.523 26.5547H367.273ZM412.487 26.5547H413.237C413.237 26.1405 412.901 25.8047 412.487 25.8047V26.5547ZM412.487 35.3057V36.0557C412.901 36.0557 413.237 35.7199 413.237 35.3057H412.487ZM377.332 35.3057V34.5557C376.918 34.5557 376.582 34.8915 376.582 35.3057H377.332ZM377.332 55.9258H376.582C376.582 56.34 376.918 56.6758 377.332 56.6758V55.9258ZM403.937 55.9258H404.687C404.687 55.5116 404.351 55.1758 403.937 55.1758V55.9258ZM403.937 64.375V65.125C404.351 65.125 404.687 64.7892 404.687 64.375H403.937ZM377.332 64.375V63.625C376.918 63.625 376.582 63.9608 376.582 64.375H377.332ZM377.332 87.7109H376.582C376.582 88.1252 376.918 88.4609 377.332 88.4609V87.7109ZM412.487 87.7109H413.237C413.237 87.2967 412.901 86.9609 412.487 86.9609V87.7109ZM412.487 96.5625V97.3125C412.901 97.3125 413.237 96.9767 413.237 96.5625H412.487ZM367.273 96.5625H366.523C366.523 96.9767 366.859 97.3125 367.273 97.3125V96.5625ZM367.273 26.5547V27.3047H412.487V26.5547V25.8047H367.273V26.5547ZM412.487 26.5547H411.737V35.3057H412.487H413.237V26.5547H412.487ZM412.487 35.3057V34.5557H377.332V35.3057V36.0557H412.487V35.3057ZM377.332 35.3057H376.582V55.9258H377.332H378.082V35.3057H377.332ZM377.332 55.9258V56.6758H403.937V55.9258V55.1758H377.332V55.9258ZM403.937 55.9258H403.187V64.375H403.937H404.687V55.9258H403.937ZM403.937 64.375V63.625H377.332V64.375V65.125H403.937V64.375ZM377.332 64.375H376.582V87.7109H377.332H378.082V64.375H377.332ZM377.332 87.7109V88.4609H412.487V87.7109V86.9609H377.332V87.7109ZM412.487 87.7109H411.737V96.5625H412.487H413.237V87.7109H412.487ZM412.487 96.5625V95.8125H367.273V96.5625V97.3125H412.487V96.5625ZM367.273 96.5625H368.023V26.5547H367.273H366.523V96.5625H367.273ZM427.524 26.5547V25.8047C427.11 25.8047 426.774 26.1405 426.774 26.5547H427.524ZM437.583 26.5547H438.333C438.333 26.1405 437.997 25.8047 437.583 25.8047V26.5547ZM437.583 96.5625V97.3125C437.997 97.3125 438.333 96.9767 438.333 96.5625H437.583ZM427.524 96.5625H426.774C426.774 96.9767 427.11 97.3125 427.524 97.3125V96.5625ZM427.524 26.5547V27.3047H437.583V26.5547V25.8047H427.524V26.5547ZM437.583 26.5547H436.833V96.5625H437.583H438.333V26.5547H437.583ZM437.583 96.5625V95.8125H427.524V96.5625V97.3125H437.583V96.5625ZM427.524 96.5625H428.274V26.5547H427.524H426.774V96.5625H427.524ZM453.979 26.5547V25.8047C453.564 25.8047 453.229 26.1405 453.229 26.5547H453.979ZM499.443 38.3232L500.12 38.0005L500.118 37.9948L499.443 38.3232ZM500.047 57.1831L499.349 56.9094L499.345 56.9177L500.047 57.1831ZM496.074 63.5703L495.533 63.0503L495.533 63.0507L496.074 63.5703ZM482.495 70.3096L482.358 69.5722C482.145 69.6117 481.96 69.7407 481.85 69.9261C481.74 70.1116 481.715 70.3356 481.781 70.5409L482.495 70.3096ZM494.615 85.4981L494.951 84.8272L494.944 84.8241L494.615 85.4981ZM499.343 87.0068L499.303 87.7558C499.309 87.7561 499.314 87.7563 499.319 87.7565L499.343 87.0068ZM503.869 86.8057H504.619C504.619 86.5771 504.515 86.361 504.336 86.2187C504.157 86.0764 503.923 86.0235 503.701 86.0749L503.869 86.8057ZM503.869 96.5625V97.3125C504.283 97.3125 504.619 96.9767 504.619 96.5625H503.869ZM482.344 88.5156L482.877 87.9886L482.874 87.9853L482.344 88.5156ZM472.939 70.9131L473.67 70.7467C473.593 70.4053 473.289 70.1631 472.939 70.1631V70.9131ZM464.037 70.9131V70.1631C463.623 70.1631 463.287 70.4989 463.287 70.9131H464.037ZM464.037 96.5625V97.3125C464.451 97.3125 464.787 96.9767 464.787 96.5625H464.037ZM453.979 96.5625H453.229C453.229 96.9767 453.564 97.3125 453.979 97.3125V96.5625ZM481.841 35.6074L481.617 36.3233L481.618 36.3235L481.841 35.6074ZM464.037 34.6016V33.8516C463.623 33.8516 463.287 34.1874 463.287 34.6016H464.037ZM464.037 62.8662H463.287C463.287 63.2804 463.623 63.6162 464.037 63.6162V62.8662ZM453.979 26.5547V27.3047H473.844V26.5547V25.8047H453.979V26.5547ZM473.844 26.5547V27.3047C486.967 27.3047 495.132 31.1852 498.769 38.6517L499.443 38.3232L500.118 37.9948C496.111 29.7699 487.209 25.8047 473.844 25.8047V26.5547ZM499.443 38.3232L498.766 38.646C500.087 41.416 500.755 44.5557 500.755 48.0801H501.505H502.255C502.255 44.3623 501.549 40.9975 500.12 38.0005L499.443 38.3232ZM501.505 48.0801H500.755C500.755 51.6045 500.277 54.54 499.349 56.9095L500.047 57.1831L500.745 57.4568C501.761 54.864 502.255 51.7308 502.255 48.0801H501.505ZM500.047 57.1831L499.345 56.9177C498.44 59.3112 497.168 61.3518 495.533 63.0503L496.074 63.5703L496.614 64.0904C498.4 62.2348 499.776 60.0173 500.748 57.4485L500.047 57.1831ZM496.074 63.5703L495.533 63.0507C492.379 66.3333 488.007 68.5211 482.358 69.5722L482.495 70.3096L482.632 71.0469C488.516 69.9522 493.197 67.6472 496.615 64.0899L496.074 63.5703ZM482.495 70.3096L481.781 70.5409C484.21 78.0322 488.365 83.281 494.286 86.172L494.615 85.4981L494.944 84.8241C489.466 82.1493 485.54 77.2725 483.208 70.0783L482.495 70.3096ZM494.615 85.4981L494.28 86.1689C496.198 87.1278 497.881 87.6809 499.303 87.7558L499.343 87.0068L499.382 86.2579C498.257 86.1986 496.788 85.7459 494.951 84.8272L494.615 85.4981ZM499.343 87.0068L499.319 87.7565C501.465 87.8235 503.062 87.7618 504.038 87.5365L503.869 86.8057L503.701 86.0749C502.933 86.2519 501.512 86.3243 499.366 86.2572L499.343 87.0068ZM503.869 86.8057H503.119V96.5625H503.869H504.619V86.8057H503.869ZM503.869 96.5625V95.8125H501.606V96.5625V97.3125H503.869V96.5625ZM501.606 96.5625V95.8125C494.262 95.8125 488.034 93.2104 482.877 87.9886L482.344 88.5156L481.81 89.0426C487.249 94.55 493.862 97.3125 501.606 97.3125V96.5625ZM482.344 88.5156L482.874 87.9853C478.324 83.4347 475.252 77.6978 473.67 70.7467L472.939 70.9131L472.208 71.0795C473.845 78.2775 477.043 84.2756 481.813 89.046L482.344 88.5156ZM472.939 70.9131V70.1631H464.037V70.9131V71.6631H472.939V70.9131ZM464.037 70.9131H463.287V96.5625H464.037H464.787V70.9131H464.037ZM464.037 96.5625V95.8125H453.979V96.5625V97.3125H464.037V96.5625ZM453.979 96.5625H454.729V26.5547H453.979H453.229V96.5625H453.979ZM473.19 62.8662V63.6162C479.332 63.6162 484.028 62.433 487.139 59.93L486.669 59.3457L486.199 58.7614C483.476 60.9524 479.187 62.1162 473.19 62.1162V62.8662ZM486.669 59.3457L487.139 59.93C490.287 57.3975 491.794 53.4919 491.794 48.3818H491.044H490.294C490.294 53.1963 488.885 56.6 486.199 58.7614L486.669 59.3457ZM491.044 48.3818H491.794C491.794 44.9629 490.999 42.0824 489.352 39.796C487.703 37.5077 485.251 35.8842 482.064 34.8914L481.841 35.6074L481.618 36.3235C484.566 37.2418 486.716 38.703 488.135 40.6728C489.556 42.6445 490.294 45.1956 490.294 48.3818H491.044ZM481.841 35.6074L482.065 34.8916C479.826 34.1919 477.147 33.8516 474.045 33.8516V34.6016V35.3516C477.046 35.3516 479.564 35.6818 481.617 36.3233L481.841 35.6074ZM474.045 34.6016V33.8516H464.037V34.6016V35.3516H474.045V34.6016ZM464.037 34.6016H463.287V62.8662H464.037H464.787V34.6016H464.037ZM464.037 62.8662V63.6162H473.19V62.8662V62.1162H464.037V62.8662ZM520.365 35.5068L519.82 34.9922L519.818 34.9945L520.365 35.5068ZM568.093 35.5068L567.545 36.0185L567.545 36.0188L568.093 35.5068ZM568.093 87.7109L567.548 87.1962L567.546 87.198L568.093 87.7109ZM520.365 87.7109L519.82 88.2257L519.821 88.2269L520.365 87.7109ZM526.702 80.5693L526.101 81.0174L526.103 81.0205L526.702 80.5693ZM561.756 80.5693L561.156 80.12L561.156 80.1205L561.756 80.5693ZM561.756 42.6484L561.153 43.0938L561.153 43.0939L561.756 42.6484ZM526.702 42.6484L527.304 43.0965L527.306 43.0938L526.702 42.6484ZM511.061 61.6592H511.811C511.811 56.2693 512.621 51.414 514.229 47.0838L513.525 46.8228L512.822 46.5618C511.144 51.0831 510.311 56.1187 510.311 61.6592H511.061ZM513.525 46.8228L514.229 47.0838C515.841 42.7414 518.071 39.0574 520.913 36.0192L520.365 35.5068L519.818 34.9945C516.826 38.1926 514.496 42.0526 512.822 46.5618L513.525 46.8228ZM520.365 35.5068L520.911 36.0215C526.891 29.6823 534.649 26.5 544.254 26.5V25.75V25C534.279 25 526.111 28.3223 519.82 34.9922L520.365 35.5068ZM544.254 25.75V26.5C553.894 26.5 561.634 29.6827 567.545 36.0185L568.093 35.5068L568.642 34.9952C562.416 28.3219 554.262 25 544.254 25V25.75ZM568.093 35.5068L567.545 36.0188C573.56 42.4584 576.597 50.9796 576.597 61.6592H577.347H578.097C578.097 50.6793 574.965 41.7656 568.641 34.9949L568.093 35.5068ZM577.347 61.6592H576.597C576.597 72.3391 573.56 80.8249 567.548 87.1962L568.093 87.7109L568.639 88.2257C574.965 81.5209 578.097 72.6388 578.097 61.6592H577.347ZM568.093 87.7109L567.546 87.198C561.67 93.4657 553.931 96.6172 544.254 96.6172V97.3672V98.1172C554.292 98.1172 562.446 94.8312 568.64 88.2239L568.093 87.7109ZM544.254 97.3672V96.6172C534.612 96.6172 526.854 93.4662 520.91 87.195L520.365 87.7109L519.821 88.2269C526.081 94.8307 534.249 98.1172 544.254 98.1172V97.3672ZM520.365 87.7109L520.911 87.1961C514.864 80.7901 511.811 72.3036 511.811 61.6592H511.061H510.311C510.311 72.6072 513.461 81.4886 519.82 88.2257L520.365 87.7109ZM521.12 61.6089H520.37C520.37 69.3775 522.262 75.8651 526.101 81.0174L526.702 80.5693L527.304 80.1213C523.699 75.2821 521.87 69.1294 521.87 61.6089H521.12ZM526.702 80.5693L526.103 81.0205C530.448 86.7908 536.53 89.668 544.254 89.668V88.918V88.168C536.958 88.168 531.338 85.4794 527.301 80.1182L526.702 80.5693ZM544.254 88.918V89.668C551.979 89.668 558.045 86.7906 562.357 81.0182L561.756 80.5693L561.156 80.1205C557.152 85.4796 551.551 88.168 544.254 88.168V88.918ZM561.756 80.5693L562.357 81.0187C566.164 75.9316 568.039 69.4762 568.039 61.7095H567.289H566.539C566.539 69.2319 564.726 75.3496 561.156 80.12L561.756 80.5693ZM567.289 61.7095H568.039C568.039 53.8769 566.164 47.3562 562.36 42.203L561.756 42.6484L561.153 43.0939C564.725 47.9322 566.539 54.1189 566.539 61.7095H567.289ZM561.756 42.6484L562.36 42.2031C558.049 36.363 551.983 33.4492 544.254 33.4492V34.1992V34.9492C551.547 34.9492 557.148 37.6683 561.153 43.0938L561.756 42.6484ZM544.254 34.1992V33.4492C536.494 33.4492 530.41 36.362 526.099 42.2031L526.702 42.6484L527.306 43.0938C531.31 37.6692 536.927 34.9492 544.254 34.9492V34.1992ZM526.702 42.6484L526.101 42.2004C522.262 47.3527 520.37 53.8403 520.37 61.6089H521.12H521.87C521.87 54.0884 523.699 47.9357 527.304 43.0965L526.702 42.6484Z" fill="#CC00CC"/>
<path d="M152.523 26.5547V25.8047C152.108 25.8047 151.773 26.1405 151.773 26.5547H152.523ZM200.15 26.5547H200.9C200.9 26.1405 200.564 25.8047 200.15 25.8047V26.5547ZM200.15 35.3057V36.0557C200.564 36.0557 200.9 35.7199 200.9 35.3057H200.15ZM162.581 35.3057V34.5557C162.167 34.5557 161.831 34.8915 161.831 35.3057H162.581ZM162.581 55.9258H161.831C161.831 56.34 162.167 56.6758 162.581 56.6758V55.9258ZM191.6 55.9258H192.35C192.35 55.5116 192.014 55.1758 191.6 55.1758V55.9258ZM191.6 64.375V65.125C192.014 65.125 192.35 64.7892 192.35 64.375H191.6ZM162.581 64.375V63.625C162.167 63.625 161.831 63.9608 161.831 64.375H162.581ZM162.581 96.5625V97.3125C162.995 97.3125 163.331 96.9767 163.331 96.5625H162.581ZM152.523 96.5625H151.773C151.773 96.9767 152.108 97.3125 152.523 97.3125V96.5625ZM152.523 26.5547V27.3047H200.15V26.5547V25.8047H152.523V26.5547ZM200.15 26.5547H199.4V35.3057H200.15H200.9V26.5547H200.15ZM200.15 35.3057V34.5557H162.581V35.3057V36.0557H200.15V35.3057ZM162.581 35.3057H161.831V55.9258H162.581H163.331V35.3057H162.581ZM162.581 55.9258V56.6758H191.6V55.9258V55.1758H162.581V55.9258ZM191.6 55.9258H190.85V64.375H191.6H192.35V55.9258H191.6ZM191.6 64.375V63.625H162.581V64.375V65.125H191.6V64.375ZM162.581 64.375H161.831V96.5625H162.581H163.331V64.375H162.581ZM162.581 96.5625V95.8125H152.523V96.5625V97.3125H162.581V96.5625ZM152.523 96.5625H153.273V26.5547H152.523H151.773V96.5625H152.523ZM212.773 26.5547V25.8047C212.359 25.8047 212.023 26.1405 212.023 26.5547H212.773ZM222.832 26.5547H223.582C223.582 26.1405 223.246 25.8047 222.832 25.8047V26.5547ZM222.832 96.5625V97.3125C223.246 97.3125 223.582 96.9767 223.582 96.5625H222.832ZM212.773 96.5625H212.023C212.023 96.9767 212.359 97.3125 212.773 97.3125V96.5625ZM212.773 26.5547V27.3047H222.832V26.5547V25.8047H212.773V26.5547ZM222.832 26.5547H222.082V96.5625H222.832H223.582V26.5547H222.832ZM222.832 96.5625V95.8125H212.773V96.5625V97.3125H222.832V96.5625ZM212.773 96.5625H213.523V26.5547H212.773H212.023V96.5625H212.773ZM238.423 26.5547V25.8047C238.009 25.8047 237.673 26.1405 237.673 26.5547H238.423ZM248.482 26.5547H249.232C249.232 26.1405 248.896 25.8047 248.482 25.8047V26.5547ZM248.482 87.7109H247.732C247.732 88.1252 248.067 88.4609 248.482 88.4609V87.7109ZM278.456 87.7109H279.206C279.206 87.2967 278.87 86.9609 278.456 86.9609V87.7109ZM278.456 96.5625V97.3125C278.87 97.3125 279.206 96.9767 279.206 96.5625H278.456ZM238.423 96.5625H237.673C237.673 96.9767 238.009 97.3125 238.423 97.3125V96.5625ZM238.423 26.5547V27.3047H248.482V26.5547V25.8047H238.423V26.5547ZM248.482 26.5547H247.732V87.7109H248.482H249.232V26.5547H248.482ZM248.482 87.7109V88.4609H278.456V87.7109V86.9609H248.482V87.7109ZM278.456 87.7109H277.706V96.5625H278.456H279.206V87.7109H278.456ZM278.456 96.5625V95.8125H238.423V96.5625V97.3125H278.456V96.5625ZM238.423 96.5625H239.173V26.5547H238.423H237.673V96.5625H238.423ZM289.571 26.5547V25.8047C289.157 25.8047 288.821 26.1405 288.821 26.5547H289.571ZM296.008 26.5547L296.574 26.0624C296.432 25.8987 296.225 25.8047 296.008 25.8047V26.5547ZM320.954 55.2217L320.388 55.714C320.531 55.8779 320.737 55.9719 320.954 55.9717C321.172 55.9715 321.378 55.8771 321.52 55.7129L320.954 55.2217ZM345.798 26.5547V25.8047C345.581 25.8047 345.374 25.8991 345.232 26.0635L345.798 26.5547ZM352.236 26.5547H352.986C352.986 26.1405 352.65 25.8047 352.236 25.8047V26.5547ZM352.236 96.5625V97.3125C352.65 97.3125 352.986 96.9767 352.986 96.5625H352.236ZM342.177 96.5625H341.427C341.427 96.9767 341.763 97.3125 342.177 97.3125V96.5625ZM342.177 43.252H342.927C342.927 42.928 342.719 42.6407 342.412 42.5395C342.104 42.4383 341.766 42.5461 341.574 42.8068L342.177 43.252ZM339.21 47.2754L339.779 47.7638C339.791 47.7498 339.803 47.7354 339.814 47.7206L339.21 47.2754ZM320.954 68.5493L320.385 69.0384C320.528 69.2042 320.735 69.2995 320.954 69.2993C321.173 69.2992 321.38 69.2037 321.523 69.0378L320.954 68.5493ZM302.697 47.3257L302.101 47.7804C302.11 47.7922 302.119 47.8036 302.129 47.8148L302.697 47.3257ZM299.629 43.3023L300.226 42.8475C300.031 42.5917 299.694 42.4887 299.389 42.5917C299.085 42.6946 298.879 42.9805 298.879 43.3023H299.629ZM299.629 96.5625V97.3125C300.044 97.3125 300.379 96.9767 300.379 96.5625H299.629ZM289.571 96.5625H288.821C288.821 96.9767 289.157 97.3125 289.571 97.3125V96.5625ZM289.571 26.5547V27.3047H296.008V26.5547V25.8047H289.571V26.5547ZM296.008 26.5547L295.443 27.047L320.388 55.714L320.954 55.2217L321.519 54.7294L296.574 26.0624L296.008 26.5547ZM320.954 55.2217L321.52 55.7129L346.365 27.0459L345.798 26.5547L345.232 26.0635L320.387 54.7305L320.954 55.2217ZM345.798 26.5547V27.3047H352.236V26.5547V25.8047H345.798V26.5547ZM352.236 26.5547H351.486V96.5625H352.236H352.986V26.5547H352.236ZM352.236 96.5625V95.8125H342.177V96.5625V97.3125H352.236V96.5625ZM342.177 96.5625H342.927V43.252H342.177H341.427V96.5625H342.177ZM342.177 43.252L341.574 42.8068L338.606 46.8302L339.21 47.2754L339.814 47.7206L342.781 43.6971L342.177 43.252ZM339.21 47.2754L338.641 46.787L320.385 68.0609L320.954 68.5493L321.523 69.0378L339.779 47.7638L339.21 47.2754ZM320.954 68.5493L321.522 68.0602L303.266 46.8366L302.697 47.3257L302.129 47.8148L320.385 69.0384L320.954 68.5493ZM302.697 47.3257L303.294 46.8709L300.226 42.8475L299.629 43.3023L299.033 43.757L302.101 47.7804L302.697 47.3257ZM299.629 43.3023H298.879V96.5625H299.629H300.379V43.3023H299.629ZM299.629 96.5625V95.8125H289.571V96.5625V97.3125H299.629V96.5625ZM289.571 96.5625H290.321V26.5547H289.571H288.821V96.5625H289.571ZM367.273 26.5547V25.8047C366.859 25.8047 366.523 26.1405 366.523 26.5547H367.273ZM412.487 26.5547H413.237C413.237 26.1405 412.901 25.8047 412.487 25.8047V26.5547ZM412.487 35.3057V36.0557C412.901 36.0557 413.237 35.7199 413.237 35.3057H412.487ZM377.332 35.3057V34.5557C376.918 34.5557 376.582 34.8915 376.582 35.3057H377.332ZM377.332 55.9258H376.582C376.582 56.34 376.918 56.6758 377.332 56.6758V55.9258ZM403.937 55.9258H404.687C404.687 55.5116 404.351 55.1758 403.937 55.1758V55.9258ZM403.937 64.375V65.125C404.351 65.125 404.687 64.7892 404.687 64.375H403.937ZM377.332 64.375V63.625C376.918 63.625 376.582 63.9608 376.582 64.375H377.332ZM377.332 87.7109H376.582C376.582 88.1252 376.918 88.4609 377.332 88.4609V87.7109ZM412.487 87.7109H413.237C413.237 87.2967 412.901 86.9609 412.487 86.9609V87.7109ZM412.487 96.5625V97.3125C412.901 97.3125 413.237 96.9767 413.237 96.5625H412.487ZM367.273 96.5625H366.523C366.523 96.9767 366.859 97.3125 367.273 97.3125V96.5625ZM367.273 26.5547V27.3047H412.487V26.5547V25.8047H367.273V26.5547ZM412.487 26.5547H411.737V35.3057H412.487H413.237V26.5547H412.487ZM412.487 35.3057V34.5557H377.332V35.3057V36.0557H412.487V35.3057ZM377.332 35.3057H376.582V55.9258H377.332H378.082V35.3057H377.332ZM377.332 55.9258V56.6758H403.937V55.9258V55.1758H377.332V55.9258ZM403.937 55.9258H403.187V64.375H403.937H404.687V55.9258H403.937ZM403.937 64.375V63.625H377.332V64.375V65.125H403.937V64.375ZM377.332 64.375H376.582V87.7109H377.332H378.082V64.375H377.332ZM377.332 87.7109V88.4609H412.487V87.7109V86.9609H377.332V87.7109ZM412.487 87.7109H411.737V96.5625H412.487H413.237V87.7109H412.487ZM412.487 96.5625V95.8125H367.273V96.5625V97.3125H412.487V96.5625ZM367.273 96.5625H368.023V26.5547H367.273H366.523V96.5625H367.273ZM427.524 26.5547V25.8047C427.11 25.8047 426.774 26.1405 426.774 26.5547H427.524ZM437.583 26.5547H438.333C438.333 26.1405 437.997 25.8047 437.583 25.8047V26.5547ZM437.583 96.5625V97.3125C437.997 97.3125 438.333 96.9767 438.333 96.5625H437.583ZM427.524 96.5625H426.774C426.774 96.9767 427.11 97.3125 427.524 97.3125V96.5625ZM427.524 26.5547V27.3047H437.583V26.5547V25.8047H427.524V26.5547ZM437.583 26.5547H436.833V96.5625H437.583H438.333V26.5547H437.583ZM437.583 96.5625V95.8125H427.524V96.5625V97.3125H437.583V96.5625ZM427.524 96.5625H428.274V26.5547H427.524H426.774V96.5625H427.524ZM453.979 26.5547V25.8047C453.564 25.8047 453.229 26.1405 453.229 26.5547H453.979ZM499.443 38.3232L500.12 38.0005L500.118 37.9948L499.443 38.3232ZM500.047 57.1831L499.349 56.9094L499.345 56.9177L500.047 57.1831ZM496.074 63.5703L495.533 63.0503L495.533 63.0507L496.074 63.5703ZM482.495 70.3096L482.358 69.5722C482.145 69.6117 481.96 69.7407 481.85 69.9261C481.74 70.1116 481.715 70.3356 481.781 70.5409L482.495 70.3096ZM494.615 85.4981L494.951 84.8272L494.944 84.8241L494.615 85.4981ZM499.343 87.0068L499.303 87.7558C499.309 87.7561 499.314 87.7563 499.319 87.7565L499.343 87.0068ZM503.869 86.8057H504.619C504.619 86.5771 504.515 86.361 504.336 86.2187C504.157 86.0764 503.923 86.0235 503.701 86.0749L503.869 86.8057ZM503.869 96.5625V97.3125C504.283 97.3125 504.619 96.9767 504.619 96.5625H503.869ZM482.344 88.5156L482.877 87.9886L482.874 87.9853L482.344 88.5156ZM472.939 70.9131L473.67 70.7467C473.593 70.4053 473.289 70.1631 472.939 70.1631V70.9131ZM464.037 70.9131V70.1631C463.623 70.1631 463.287 70.4989 463.287 70.9131H464.037ZM464.037 96.5625V97.3125C464.451 97.3125 464.787 96.9767 464.787 96.5625H464.037ZM453.979 96.5625H453.229C453.229 96.9767 453.564 97.3125 453.979 97.3125V96.5625ZM481.841 35.6074L481.617 36.3233L481.618 36.3235L481.841 35.6074ZM464.037 34.6016V33.8516C463.623 33.8516 463.287 34.1874 463.287 34.6016H464.037ZM464.037 62.8662H463.287C463.287 63.2804 463.623 63.6162 464.037 63.6162V62.8662ZM453.979 26.5547V27.3047H473.844V26.5547V25.8047H453.979V26.5547ZM473.844 26.5547V27.3047C486.967 27.3047 495.132 31.1852 498.769 38.6517L499.443 38.3232L500.118 37.9948C496.111 29.7699 487.209 25.8047 473.844 25.8047V26.5547ZM499.443 38.3232L498.766 38.646C500.087 41.416 500.755 44.5557 500.755 48.0801H501.505H502.255C502.255 44.3623 501.549 40.9975 500.12 38.0005L499.443 38.3232ZM501.505 48.0801H500.755C500.755 51.6045 500.277 54.54 499.349 56.9095L500.047 57.1831L500.745 57.4568C501.761 54.864 502.255 51.7308 502.255 48.0801H501.505ZM500.047 57.1831L499.345 56.9177C498.44 59.3112 497.168 61.3518 495.533 63.0503L496.074 63.5703L496.614 64.0904C498.4 62.2348 499.776 60.0173 500.748 57.4485L500.047 57.1831ZM496.074 63.5703L495.533 63.0507C492.379 66.3333 488.007 68.5211 482.358 69.5722L482.495 70.3096L482.632 71.0469C488.516 69.9522 493.197 67.6472 496.615 64.0899L496.074 63.5703ZM482.495 70.3096L481.781 70.5409C484.21 78.0322 488.365 83.281 494.286 86.172L494.615 85.4981L494.944 84.8241C489.466 82.1493 485.54 77.2725 483.208 70.0783L482.495 70.3096ZM494.615 85.4981L494.28 86.1689C496.198 87.1278 497.881 87.6809 499.303 87.7558L499.343 87.0068L499.382 86.2579C498.257 86.1986 496.788 85.7459 494.951 84.8272L494.615 85.4981ZM499.343 87.0068L499.319 87.7565C501.465 87.8235 503.062 87.7618 504.038 87.5365L503.869 86.8057L503.701 86.0749C502.933 86.2519 501.512 86.3243 499.366 86.2572L499.343 87.0068ZM503.869 86.8057H503.119V96.5625H503.869H504.619V86.8057H503.869ZM503.869 96.5625V95.8125H501.606V96.5625V97.3125H503.869V96.5625ZM501.606 96.5625V95.8125C494.262 95.8125 488.034 93.2104 482.877 87.9886L482.344 88.5156L481.81 89.0426C487.249 94.55 493.862 97.3125 501.606 97.3125V96.5625ZM482.344 88.5156L482.874 87.9853C478.324 83.4347 475.252 77.6978 473.67 70.7467L472.939 70.9131L472.208 71.0795C473.845 78.2775 477.043 84.2756 481.813 89.046L482.344 88.5156ZM472.939 70.9131V70.1631H464.037V70.9131V71.6631H472.939V70.9131ZM464.037 70.9131H463.287V96.5625H464.037H464.787V70.9131H464.037ZM464.037 96.5625V95.8125H453.979V96.5625V97.3125H464.037V96.5625ZM453.979 96.5625H454.729V26.5547H453.979H453.229V96.5625H453.979ZM473.19 62.8662V63.6162C479.332 63.6162 484.028 62.433 487.139 59.93L486.669 59.3457L486.199 58.7614C483.476 60.9524 479.187 62.1162 473.19 62.1162V62.8662ZM486.669 59.3457L487.139 59.93C490.287 57.3975 491.794 53.4919 491.794 48.3818H491.044H490.294C490.294 53.1963 488.885 56.6 486.199 58.7614L486.669 59.3457ZM491.044 48.3818H491.794C491.794 44.9629 490.999 42.0824 489.352 39.796C487.703 37.5077 485.251 35.8842 482.064 34.8914L481.841 35.6074L481.618 36.3235C484.566 37.2418 486.716 38.703 488.135 40.6728C489.556 42.6445 490.294 45.1956 490.294 48.3818H491.044ZM481.841 35.6074L482.065 34.8916C479.826 34.1919 477.147 33.8516 474.045 33.8516V34.6016V35.3516C477.046 35.3516 479.564 35.6818 481.617 36.3233L481.841 35.6074ZM474.045 34.6016V33.8516H464.037V34.6016V35.3516H474.045V34.6016ZM464.037 34.6016H463.287V62.8662H464.037H464.787V34.6016H464.037ZM464.037 62.8662V63.6162H473.19V62.8662V62.1162H464.037V62.8662ZM520.365 35.5068L519.82 34.9922L519.818 34.9945L520.365 35.5068ZM568.093 35.5068L567.545 36.0185L567.545 36.0188L568.093 35.5068ZM568.093 87.7109L567.548 87.1962L567.546 87.198L568.093 87.7109ZM520.365 87.7109L519.82 88.2257L519.821 88.2269L520.365 87.7109ZM526.702 80.5693L526.101 81.0174L526.103 81.0205L526.702 80.5693ZM561.756 80.5693L561.156 80.12L561.156 80.1205L561.756 80.5693ZM561.756 42.6484L561.153 43.0938L561.153 43.0939L561.756 42.6484ZM526.702 42.6484L527.304 43.0965L527.306 43.0938L526.702 42.6484ZM511.061 61.6592H511.811C511.811 56.2693 512.621 51.414 514.229 47.0838L513.525 46.8228L512.822 46.5618C511.144 51.0831 510.311 56.1187 510.311 61.6592H511.061ZM513.525 46.8228L514.229 47.0838C515.841 42.7414 518.071 39.0574 520.913 36.0192L520.365 35.5068L519.818 34.9945C516.826 38.1926 514.496 42.0526 512.822 46.5618L513.525 46.8228ZM520.365 35.5068L520.911 36.0215C526.891 29.6823 534.649 26.5 544.254 26.5V25.75V25C534.279 25 526.111 28.3223 519.82 34.9922L520.365 35.5068ZM544.254 25.75V26.5C553.894 26.5 561.634 29.6827 567.545 36.0185L568.093 35.5068L568.642 34.9952C562.416 28.3219 554.262 25 544.254 25V25.75ZM568.093 35.5068L567.545 36.0188C573.56 42.4584 576.597 50.9796 576.597 61.6592H577.347H578.097C578.097 50.6793 574.965 41.7656 568.641 34.9949L568.093 35.5068ZM577.347 61.6592H576.597C576.597 72.3391 573.56 80.8249 567.548 87.1962L568.093 87.7109L568.639 88.2257C574.965 81.5209 578.097 72.6388 578.097 61.6592H577.347ZM568.093 87.7109L567.546 87.198C561.67 93.4657 553.931 96.6172 544.254 96.6172V97.3672V98.1172C554.292 98.1172 562.446 94.8312 568.64 88.2239L568.093 87.7109ZM544.254 97.3672V96.6172C534.612 96.6172 526.854 93.4662 520.91 87.195L520.365 87.7109L519.821 88.2269C526.081 94.8307 534.249 98.1172 544.254 98.1172V97.3672ZM520.365 87.7109L520.911 87.1961C514.864 80.7901 511.811 72.3036 511.811 61.6592H511.061H510.311C510.311 72.6072 513.461 81.4886 519.82 88.2257L520.365 87.7109ZM521.12 61.6089H520.37C520.37 69.3775 522.262 75.8651 526.101 81.0174L526.702 80.5693L527.304 80.1213C523.699 75.2821 521.87 69.1294 521.87 61.6089H521.12ZM526.702 80.5693L526.103 81.0205C530.448 86.7908 536.53 89.668 544.254 89.668V88.918V88.168C536.958 88.168 531.338 85.4794 527.301 80.1182L526.702 80.5693ZM544.254 88.918V89.668C551.979 89.668 558.045 86.7906 562.357 81.0182L561.756 80.5693L561.156 80.1205C557.152 85.4796 551.551 88.168 544.254 88.168V88.918ZM561.756 80.5693L562.357 81.0187C566.164 75.9316 568.039 69.4762 568.039 61.7095H567.289H566.539C566.539 69.2319 564.726 75.3496 561.156 80.12L561.756 80.5693ZM567.289 61.7095H568.039C568.039 53.8769 566.164 47.3562 562.36 42.203L561.756 42.6484L561.153 43.0939C564.725 47.9322 566.539 54.1189 566.539 61.7095H567.289ZM561.756 42.6484L562.36 42.2031C558.049 36.363 551.983 33.4492 544.254 33.4492V34.1992V34.9492C551.547 34.9492 557.148 37.6683 561.153 43.0938L561.756 42.6484ZM544.254 34.1992V33.4492C536.494 33.4492 530.41 36.362 526.099 42.2031L526.702 42.6484L527.306 43.0938C531.31 37.6692 536.927 34.9492 544.254 34.9492V34.1992ZM526.702 42.6484L526.101 42.2004C522.262 47.3527 520.37 53.8403 520.37 61.6089H521.12H521.87C521.87 54.0884 523.699 47.9357 527.304 43.0965L526.702 42.6484Z" fill="#FF66FF" fill-opacity="0.8"/>
</g>
<g filter="url(#filter3_ddd_53_320)">
<path d="M152.523 26.5547V25.8047C152.108 25.8047 151.773 26.1405 151.773 26.5547H152.523ZM200.15 26.5547H200.9C200.9 26.1405 200.564 25.8047 200.15 25.8047V26.5547ZM200.15 35.3057V36.0557C200.564 36.0557 200.9 35.7199 200.9 35.3057H200.15ZM162.581 35.3057V34.5557C162.167 34.5557 161.831 34.8915 161.831 35.3057H162.581ZM162.581 55.9258H161.831C161.831 56.34 162.167 56.6758 162.581 56.6758V55.9258ZM191.6 55.9258H192.35C192.35 55.5116 192.014 55.1758 191.6 55.1758V55.9258ZM191.6 64.375V65.125C192.014 65.125 192.35 64.7892 192.35 64.375H191.6ZM162.581 64.375V63.625C162.167 63.625 161.831 63.9608 161.831 64.375H162.581ZM162.581 96.5625V97.3125C162.995 97.3125 163.331 96.9767 163.331 96.5625H162.581ZM152.523 96.5625H151.773C151.773 96.9767 152.108 97.3125 152.523 97.3125V96.5625ZM152.523 26.5547V27.3047H200.15V26.5547V25.8047H152.523V26.5547ZM200.15 26.5547H199.4V35.3057H200.15H200.9V26.5547H200.15ZM200.15 35.3057V34.5557H162.581V35.3057V36.0557H200.15V35.3057ZM162.581 35.3057H161.831V55.9258H162.581H163.331V35.3057H162.581ZM162.581 55.9258V56.6758H191.6V55.9258V55.1758H162.581V55.9258ZM191.6 55.9258H190.85V64.375H191.6H192.35V55.9258H191.6ZM191.6 64.375V63.625H162.581V64.375V65.125H191.6V64.375ZM162.581 64.375H161.831V96.5625H162.581H163.331V64.375H162.581ZM162.581 96.5625V95.8125H152.523V96.5625V97.3125H162.581V96.5625ZM152.523 96.5625H153.273V26.5547H152.523H151.773V96.5625H152.523ZM212.773 26.5547V25.8047C212.359 25.8047 212.023 26.1405 212.023 26.5547H212.773ZM222.832 26.5547H223.582C223.582 26.1405 223.246 25.8047 222.832 25.8047V26.5547ZM222.832 96.5625V97.3125C223.246 97.3125 223.582 96.9767 223.582 96.5625H222.832ZM212.773 96.5625H212.023C212.023 96.9767 212.359 97.3125 212.773 97.3125V96.5625ZM212.773 26.5547V27.3047H222.832V26.5547V25.8047H212.773V26.5547ZM222.832 26.5547H222.082V96.5625H222.832H223.582V26.5547H222.832ZM222.832 96.5625V95.8125H212.773V96.5625V97.3125H222.832V96.5625ZM212.773 96.5625H213.523V26.5547H212.773H212.023V96.5625H212.773ZM238.423 26.5547V25.8047C238.009 25.8047 237.673 26.1405 237.673 26.5547H238.423ZM248.482 26.5547H249.232C249.232 26.1405 248.896 25.8047 248.482 25.8047V26.5547ZM248.482 87.7109H247.732C247.732 88.1252 248.067 88.4609 248.482 88.4609V87.7109ZM278.456 87.7109H279.206C279.206 87.2967 278.87 86.9609 278.456 86.9609V87.7109ZM278.456 96.5625V97.3125C278.87 97.3125 279.206 96.9767 279.206 96.5625H278.456ZM238.423 96.5625H237.673C237.673 96.9767 238.009 97.3125 238.423 97.3125V96.5625ZM238.423 26.5547V27.3047H248.482V26.5547V25.8047H238.423V26.5547ZM248.482 26.5547H247.732V87.7109H248.482H249.232V26.5547H248.482ZM248.482 87.7109V88.4609H278.456V87.7109V86.9609H248.482V87.7109ZM278.456 87.7109H277.706V96.5625H278.456H279.206V87.7109H278.456ZM278.456 96.5625V95.8125H238.423V96.5625V97.3125H278.456V96.5625ZM238.423 96.5625H239.173V26.5547H238.423H237.673V96.5625H238.423ZM289.571 26.5547V25.8047C289.157 25.8047 288.821 26.1405 288.821 26.5547H289.571ZM296.008 26.5547L296.574 26.0624C296.432 25.8987 296.225 25.8047 296.008 25.8047V26.5547ZM320.954 55.2217L320.388 55.714C320.531 55.8779 320.737 55.9719 320.954 55.9717C321.172 55.9715 321.378 55.8771 321.52 55.7129L320.954 55.2217ZM345.798 26.5547V25.8047C345.581 25.8047 345.374 25.8991 345.232 26.0635L345.798 26.5547ZM352.236 26.5547H352.986C352.986 26.1405 352.65 25.8047 352.236 25.8047V26.5547ZM352.236 96.5625V97.3125C352.65 97.3125 352.986 96.9767 352.986 96.5625H352.236ZM342.177 96.5625H341.427C341.427 96.9767 341.763 97.3125 342.177 97.3125V96.5625ZM342.177 43.252H342.927C342.927 42.928 342.719 42.6407 342.412 42.5395C342.104 42.4383 341.766 42.5461 341.574 42.8068L342.177 43.252ZM339.21 47.2754L339.779 47.7638C339.791 47.7498 339.803 47.7354 339.814 47.7206L339.21 47.2754ZM320.954 68.5493L320.385 69.0384C320.528 69.2042 320.735 69.2995 320.954 69.2993C321.173 69.2992 321.38 69.2037 321.523 69.0378L320.954 68.5493ZM302.697 47.3257L302.101 47.7804C302.11 47.7922 302.119 47.8036 302.129 47.8148L302.697 47.3257ZM299.629 43.3023L300.226 42.8475C300.031 42.5917 299.694 42.4887 299.389 42.5917C299.085 42.6946 298.879 42.9805 298.879 43.3023H299.629ZM299.629 96.5625V97.3125C300.044 97.3125 300.379 96.9767 300.379 96.5625H299.629ZM289.571 96.5625H288.821C288.821 96.9767 289.157 97.3125 289.571 97.3125V96.5625ZM289.571 26.5547V27.3047H296.008V26.5547V25.8047H289.571V26.5547ZM296.008 26.5547L295.443 27.047L320.388 55.714L320.954 55.2217L321.519 54.7294L296.574 26.0624L296.008 26.5547ZM320.954 55.2217L321.52 55.7129L346.365 27.0459L345.798 26.5547L345.232 26.0635L320.387 54.7305L320.954 55.2217ZM345.798 26.5547V27.3047H352.236V26.5547V25.8047H345.798V26.5547ZM352.236 26.5547H351.486V96.5625H352.236H352.986V26.5547H352.236ZM352.236 96.5625V95.8125H342.177V96.5625V97.3125H352.236V96.5625ZM342.177 96.5625H342.927V43.252H342.177H341.427V96.5625H342.177ZM342.177 43.252L341.574 42.8068L338.606 46.8302L339.21 47.2754L339.814 47.7206L342.781 43.6971L342.177 43.252ZM339.21 47.2754L338.641 46.787L320.385 68.0609L320.954 68.5493L321.523 69.0378L339.779 47.7638L339.21 47.2754ZM320.954 68.5493L321.522 68.0602L303.266 46.8366L302.697 47.3257L302.129 47.8148L320.385 69.0384L320.954 68.5493ZM302.697 47.3257L303.294 46.8709L300.226 42.8475L299.629 43.3023L299.033 43.757L302.101 47.7804L302.697 47.3257ZM299.629 43.3023H298.879V96.5625H299.629H300.379V43.3023H299.629ZM299.629 96.5625V95.8125H289.571V96.5625V97.3125H299.629V96.5625ZM289.571 96.5625H290.321V26.5547H289.571H288.821V96.5625H289.571ZM367.273 26.5547V25.8047C366.859 25.8047 366.523 26.1405 366.523 26.5547H367.273ZM412.487 26.5547H413.237C413.237 26.1405 412.901 25.8047 412.487 25.8047V26.5547ZM412.487 35.3057V36.0557C412.901 36.0557 413.237 35.7199 413.237 35.3057H412.487ZM377.332 35.3057V34.5557C376.918 34.5557 376.582 34.8915 376.582 35.3057H377.332ZM377.332 55.9258H376.582C376.582 56.34 376.918 56.6758 377.332 56.6758V55.9258ZM403.937 55.9258H404.687C404.687 55.5116 404.351 55.1758 403.937 55.1758V55.9258ZM403.937 64.375V65.125C404.351 65.125 404.687 64.7892 404.687 64.375H403.937ZM377.332 64.375V63.625C376.918 63.625 376.582 63.9608 376.582 64.375H377.332ZM377.332 87.7109H376.582C376.582 88.1252 376.918 88.4609 377.332 88.4609V87.7109ZM412.487 87.7109H413.237C413.237 87.2967 412.901 86.9609 412.487 86.9609V87.7109ZM412.487 96.5625V97.3125C412.901 97.3125 413.237 96.9767 413.237 96.5625H412.487ZM367.273 96.5625H366.523C366.523 96.9767 366.859 97.3125 367.273 97.3125V96.5625ZM367.273 26.5547V27.3047H412.487V26.5547V25.8047H367.273V26.5547ZM412.487 26.5547H411.737V35.3057H412.487H413.237V26.5547H412.487ZM412.487 35.3057V34.5557H377.332V35.3057V36.0557H412.487V35.3057ZM377.332 35.3057H376.582V55.9258H377.332H378.082V35.3057H377.332ZM377.332 55.9258V56.6758H403.937V55.9258V55.1758H377.332V55.9258ZM403.937 55.9258H403.187V64.375H403.937H404.687V55.9258H403.937ZM403.937 64.375V63.625H377.332V64.375V65.125H403.937V64.375ZM377.332 64.375H376.582V87.7109H377.332H378.082V64.375H377.332ZM377.332 87.7109V88.4609H412.487V87.7109V86.9609H377.332V87.7109ZM412.487 87.7109H411.737V96.5625H412.487H413.237V87.7109H412.487ZM412.487 96.5625V95.8125H367.273V96.5625V97.3125H412.487V96.5625ZM367.273 96.5625H368.023V26.5547H367.273H366.523V96.5625H367.273ZM427.524 26.5547V25.8047C427.11 25.8047 426.774 26.1405 426.774 26.5547H427.524ZM437.583 26.5547H438.333C438.333 26.1405 437.997 25.8047 437.583 25.8047V26.5547ZM437.583 96.5625V97.3125C437.997 97.3125 438.333 96.9767 438.333 96.5625H437.583ZM427.524 96.5625H426.774C426.774 96.9767 427.11 97.3125 427.524 97.3125V96.5625ZM427.524 26.5547V27.3047H437.583V26.5547V25.8047H427.524V26.5547ZM437.583 26.5547H436.833V96.5625H437.583H438.333V26.5547H437.583ZM437.583 96.5625V95.8125H427.524V96.5625V97.3125H437.583V96.5625ZM427.524 96.5625H428.274V26.5547H427.524H426.774V96.5625H427.524ZM453.979 26.5547V25.8047C453.564 25.8047 453.229 26.1405 453.229 26.5547H453.979ZM499.443 38.3232L500.12 38.0005L500.118 37.9948L499.443 38.3232ZM500.047 57.1831L499.349 56.9094L499.345 56.9177L500.047 57.1831ZM496.074 63.5703L495.533 63.0503L495.533 63.0507L496.074 63.5703ZM482.495 70.3096L482.358 69.5722C482.145 69.6117 481.96 69.7407 481.85 69.9261C481.74 70.1116 481.715 70.3356 481.781 70.5409L482.495 70.3096ZM494.615 85.4981L494.951 84.8272L494.944 84.8241L494.615 85.4981ZM499.343 87.0068L499.303 87.7558C499.309 87.7561 499.314 87.7563 499.319 87.7565L499.343 87.0068ZM503.869 86.8057H504.619C504.619 86.5771 504.515 86.361 504.336 86.2187C504.157 86.0764 503.923 86.0235 503.701 86.0749L503.869 86.8057ZM503.869 96.5625V97.3125C504.283 97.3125 504.619 96.9767 504.619 96.5625H503.869ZM482.344 88.5156L482.877 87.9886L482.874 87.9853L482.344 88.5156ZM472.939 70.9131L473.67 70.7467C473.593 70.4053 473.289 70.1631 472.939 70.1631V70.9131ZM464.037 70.9131V70.1631C463.623 70.1631 463.287 70.4989 463.287 70.9131H464.037ZM464.037 96.5625V97.3125C464.451 97.3125 464.787 96.9767 464.787 96.5625H464.037ZM453.979 96.5625H453.229C453.229 96.9767 453.564 97.3125 453.979 97.3125V96.5625ZM481.841 35.6074L481.617 36.3233L481.618 36.3235L481.841 35.6074ZM464.037 34.6016V33.8516C463.623 33.8516 463.287 34.1874 463.287 34.6016H464.037ZM464.037 62.8662H463.287C463.287 63.2804 463.623 63.6162 464.037 63.6162V62.8662ZM453.979 26.5547V27.3047H473.844V26.5547V25.8047H453.979V26.5547ZM473.844 26.5547V27.3047C486.967 27.3047 495.132 31.1852 498.769 38.6517L499.443 38.3232L500.118 37.9948C496.111 29.7699 487.209 25.8047 473.844 25.8047V26.5547ZM499.443 38.3232L498.766 38.646C500.087 41.416 500.755 44.5557 500.755 48.0801H501.505H502.255C502.255 44.3623 501.549 40.9975 500.12 38.0005L499.443 38.3232ZM501.505 48.0801H500.755C500.755 51.6045 500.277 54.54 499.349 56.9095L500.047 57.1831L500.745 57.4568C501.761 54.864 502.255 51.7308 502.255 48.0801H501.505ZM500.047 57.1831L499.345 56.9177C498.44 59.3112 497.168 61.3518 495.533 63.0503L496.074 63.5703L496.614 64.0904C498.4 62.2348 499.776 60.0173 500.748 57.4485L500.047 57.1831ZM496.074 63.5703L495.533 63.0507C492.379 66.3333 488.007 68.5211 482.358 69.5722L482.495 70.3096L482.632 71.0469C488.516 69.9522 493.197 67.6472 496.615 64.0899L496.074 63.5703ZM482.495 70.3096L481.781 70.5409C484.21 78.0322 488.365 83.281 494.286 86.172L494.615 85.4981L494.944 84.8241C489.466 82.1493 485.54 77.2725 483.208 70.0783L482.495 70.3096ZM494.615 85.4981L494.28 86.1689C496.198 87.1278 497.881 87.6809 499.303 87.7558L499.343 87.0068L499.382 86.2579C498.257 86.1986 496.788 85.7459 494.951 84.8272L494.615 85.4981ZM499.343 87.0068L499.319 87.7565C501.465 87.8235 503.062 87.7618 504.038 87.5365L503.869 86.8057L503.701 86.0749C502.933 86.2519 501.512 86.3243 499.366 86.2572L499.343 87.0068ZM503.869 86.8057H503.119V96.5625H503.869H504.619V86.8057H503.869ZM503.869 96.5625V95.8125H501.606V96.5625V97.3125H503.869V96.5625ZM501.606 96.5625V95.8125C494.262 95.8125 488.034 93.2104 482.877 87.9886L482.344 88.5156L481.81 89.0426C487.249 94.55 493.862 97.3125 501.606 97.3125V96.5625ZM482.344 88.5156L482.874 87.9853C478.324 83.4347 475.252 77.6978 473.67 70.7467L472.939 70.9131L472.208 71.0795C473.845 78.2775 477.043 84.2756 481.813 89.046L482.344 88.5156ZM472.939 70.9131V70.1631H464.037V70.9131V71.6631H472.939V70.9131ZM464.037 70.9131H463.287V96.5625H464.037H464.787V70.9131H464.037ZM464.037 96.5625V95.8125H453.979V96.5625V97.3125H464.037V96.5625ZM453.979 96.5625H454.729V26.5547H453.979H453.229V96.5625H453.979ZM473.19 62.8662V63.6162C479.332 63.6162 484.028 62.433 487.139 59.93L486.669 59.3457L486.199 58.7614C483.476 60.9524 479.187 62.1162 473.19 62.1162V62.8662ZM486.669 59.3457L487.139 59.93C490.287 57.3975 491.794 53.4919 491.794 48.3818H491.044H490.294C490.294 53.1963 488.885 56.6 486.199 58.7614L486.669 59.3457ZM491.044 48.3818H491.794C491.794 44.9629 490.999 42.0824 489.352 39.796C487.703 37.5077 485.251 35.8842 482.064 34.8914L481.841 35.6074L481.618 36.3235C484.566 37.2418 486.716 38.703 488.135 40.6728C489.556 42.6445 490.294 45.1956 490.294 48.3818H491.044ZM481.841 35.6074L482.065 34.8916C479.826 34.1919 477.147 33.8516 474.045 33.8516V34.6016V35.3516C477.046 35.3516 479.564 35.6818 481.617 36.3233L481.841 35.6074ZM474.045 34.6016V33.8516H464.037V34.6016V35.3516H474.045V34.6016ZM464.037 34.6016H463.287V62.8662H464.037H464.787V34.6016H464.037ZM464.037 62.8662V63.6162H473.19V62.8662V62.1162H464.037V62.8662ZM520.365 35.5068L519.82 34.9922L519.818 34.9945L520.365 35.5068ZM568.093 35.5068L567.545 36.0185L567.545 36.0188L568.093 35.5068ZM568.093 87.7109L567.548 87.1962L567.546 87.198L568.093 87.7109ZM520.365 87.7109L519.82 88.2257L519.821 88.2269L520.365 87.7109ZM526.702 80.5693L526.101 81.0174L526.103 81.0205L526.702 80.5693ZM561.756 80.5693L561.156 80.12L561.156 80.1205L561.756 80.5693ZM561.756 42.6484L561.153 43.0938L561.153 43.0939L561.756 42.6484ZM526.702 42.6484L527.304 43.0965L527.306 43.0938L526.702 42.6484ZM511.061 61.6592H511.811C511.811 56.2693 512.621 51.414 514.229 47.0838L513.525 46.8228L512.822 46.5618C511.144 51.0831 510.311 56.1187 510.311 61.6592H511.061ZM513.525 46.8228L514.229 47.0838C515.841 42.7414 518.071 39.0574 520.913 36.0192L520.365 35.5068L519.818 34.9945C516.826 38.1926 514.496 42.0526 512.822 46.5618L513.525 46.8228ZM520.365 35.5068L520.911 36.0215C526.891 29.6823 534.649 26.5 544.254 26.5V25.75V25C534.279 25 526.111 28.3223 519.82 34.9922L520.365 35.5068ZM544.254 25.75V26.5C553.894 26.5 561.634 29.6827 567.545 36.0185L568.093 35.5068L568.642 34.9952C562.416 28.3219 554.262 25 544.254 25V25.75ZM568.093 35.5068L567.545 36.0188C573.56 42.4584 576.597 50.9796 576.597 61.6592H577.347H578.097C578.097 50.6793 574.965 41.7656 568.641 34.9949L568.093 35.5068ZM577.347 61.6592H576.597C576.597 72.3391 573.56 80.8249 567.548 87.1962L568.093 87.7109L568.639 88.2257C574.965 81.5209 578.097 72.6388 578.097 61.6592H577.347ZM568.093 87.7109L567.546 87.198C561.67 93.4657 553.931 96.6172 544.254 96.6172V97.3672V98.1172C554.292 98.1172 562.446 94.8312 568.64 88.2239L568.093 87.7109ZM544.254 97.3672V96.6172C534.612 96.6172 526.854 93.4662 520.91 87.195L520.365 87.7109L519.821 88.2269C526.081 94.8307 534.249 98.1172 544.254 98.1172V97.3672ZM520.365 87.7109L520.911 87.1961C514.864 80.7901 511.811 72.3036 511.811 61.6592H511.061H510.311C510.311 72.6072 513.461 81.4886 519.82 88.2257L520.365 87.7109ZM521.12 61.6089H520.37C520.37 69.3775 522.262 75.8651 526.101 81.0174L526.702 80.5693L527.304 80.1213C523.699 75.2821 521.87 69.1294 521.87 61.6089H521.12ZM526.702 80.5693L526.103 81.0205C530.448 86.7908 536.53 89.668 544.254 89.668V88.918V88.168C536.958 88.168 531.338 85.4794 527.301 80.1182L526.702 80.5693ZM544.254 88.918V89.668C551.979 89.668 558.045 86.7906 562.357 81.0182L561.756 80.5693L561.156 80.1205C557.152 85.4796 551.551 88.168 544.254 88.168V88.918ZM561.756 80.5693L562.357 81.0187C566.164 75.9316 568.039 69.4762 568.039 61.7095H567.289H566.539C566.539 69.2319 564.726 75.3496 561.156 80.12L561.756 80.5693ZM567.289 61.7095H568.039C568.039 53.8769 566.164 47.3562 562.36 42.203L561.756 42.6484L561.153 43.0939C564.725 47.9322 566.539 54.1189 566.539 61.7095H567.289ZM561.756 42.6484L562.36 42.2031C558.049 36.363 551.983 33.4492 544.254 33.4492V34.1992V34.9492C551.547 34.9492 557.148 37.6683 561.153 43.0938L561.756 42.6484ZM544.254 34.1992V33.4492C536.494 33.4492 530.41 36.362 526.099 42.2031L526.702 42.6484L527.306 43.0938C531.31 37.6692 536.927 34.9492 544.254 34.9492V34.1992ZM526.702 42.6484L526.101 42.2004C522.262 47.3527 520.37 53.8403 520.37 61.6089H521.12H521.87C521.87 54.0884 523.699 47.9357 527.304 43.0965L526.702 42.6484Z" fill="#F2DAFF"/>
</g>
<defs>
<filter id="filter0_dd_53_320" x="-5" y="-2.9129" width="139.246" height="139.246" filterUnits="userSpaceOnUse" color-interpolation-filters="sRGB">
<feFlood flood-opacity="0" result="BackgroundImageFix"/>
<feColorMatrix in="SourceAlpha" type="matrix" values="0 0 0 0 0 0 0 0 0 0 0 0 0 0 0 0 0 0 127 0" result="hardAlpha"/>
<feOffset/>
<feGaussianBlur stdDeviation="2.5"/>
<feColorMatrix type="matrix" values="0 0 0 0 0.8 0 0 0 0 0 0 0 0 0 0.8 0 0 0 1 0"/>
<feBlend mode="normal" in2="BackgroundImageFix" result="effect1_dropShadow_53_320"/>
<feColorMatrix in="SourceAlpha" type="matrix" values="0 0 0 0 0 0 0 0 0 0 0 0 0 0 0 0 0 0 127 0" result="hardAlpha"/>
<feOffset/>
<feGaussianBlur stdDeviation="1.95"/>
<feColorMatrix type="matrix" values="0 0 0 0 0.716667 0 0 0 0 0 0 0 0 0 1 0 0 0 0.67 0"/>
<feBlend mode="normal" in2="effect1_dropShadow_53_320" result="effect2_dropShadow_53_320"/>
<feBlend mode="normal" in="SourceGraphic" in2="effect2_dropShadow_53_320" result="shape"/>
</filter>
<filter id="filter1_ddd_53_320" x="126.773" y="0" width="476.325" height="123.117" filterUnits="userSpaceOnUse" color-interpolation-filters="sRGB">
<feFlood flood-opacity="0" result="BackgroundImageFix"/>
<feColorMatrix in="SourceAlpha" type="matrix" values="0 0 0 0 0 0 0 0 0 0 0 0 0 0 0 0 0 0 127 0" result="hardAlpha"/>
<feOffset/>
<feGaussianBlur stdDeviation="5"/>
<feColorMatrix type="matrix" values="0 0 0 0 0.8 0 0 0 0 0 0 0 0 0 0.8 0 0 0 1 0"/>
<feBlend mode="normal" in2="BackgroundImageFix" result="effect1_dropShadow_53_320"/>
<feColorMatrix in="SourceAlpha" type="matrix" values="0 0 0 0 0 0 0 0 0 0 0 0 0 0 0 0 0 0 127 0" result="hardAlpha"/>
<feOffset/>
<feGaussianBlur stdDeviation="12.5"/>
<feColorMatrix type="matrix" values="0 0 0 0 0.8 0 0 0 0 0 0 0 0 0 0.8 0 0 0 0.25 0"/>
<feBlend mode="normal" in2="effect1_dropShadow_53_320" result="effect2_dropShadow_53_320"/>
<feColorMatrix in="SourceAlpha" type="matrix" values="0 0 0 0 0 0 0 0 0 0 0 0 0 0 0 0 0 0 127 0" result="hardAlpha"/>
<feOffset/>
<feGaussianBlur stdDeviation="12.5"/>
<feColorMatrix type="matrix" values="0 0 0 0 0.8 0 0 0 0 0 0 0 0 0 0.8 0 0 0 0.25 0"/>
<feBlend mode="normal" in2="effect2_dropShadow_53_320" result="effect3_dropShadow_53_320"/>
<feBlend mode="normal" in="SourceGraphic" in2="effect3_dropShadow_53_320" result="shape"/>
</filter>
<filter id="filter2_ddd_53_320" x="126.773" y="0" width="476.325" height="123.117" filterUnits="userSpaceOnUse" color-interpolation-filters="sRGB">
<feFlood flood-opacity="0" result="BackgroundImageFix"/>
<feColorMatrix in="SourceAlpha" type="matrix" values="0 0 0 0 0 0 0 0 0 0 0 0 0 0 0 0 0 0 127 0" result="hardAlpha"/>
<feOffset/>
<feGaussianBlur stdDeviation="5"/>
<feColorMatrix type="matrix" values="0 0 0 0 0.8 0 0 0 0 0 0 0 0 0 0.8 0 0 0 1 0"/>
<feBlend mode="normal" in2="BackgroundImageFix" result="effect1_dropShadow_53_320"/>
<feColorMatrix in="SourceAlpha" type="matrix" values="0 0 0 0 0 0 0 0 0 0 0 0 0 0 0 0 0 0 127 0" result="hardAlpha"/>
<feOffset/>
<feGaussianBlur stdDeviation="12.5"/>
<feColorMatrix type="matrix" values="0 0 0 0 0.8 0 0 0 0 0 0 0 0 0 0.8 0 0 0 0.25 0"/>
<feBlend mode="normal" in2="effect1_dropShadow_53_320" result="effect2_dropShadow_53_320"/>
<feColorMatrix in="SourceAlpha" type="matrix" values="0 0 0 0 0 0 0 0 0 0 0 0 0 0 0 0 0 0 127 0" result="hardAlpha"/>
<feOffset/>
<feGaussianBlur stdDeviation="12.5"/>
<feColorMatrix type="matrix" values="0 0 0 0 0.8 0 0 0 0 0 0 0 0 0 0.8 0 0 0 0.25 0"/>
<feBlend mode="normal" in2="effect2_dropShadow_53_320" result="effect3_dropShadow_53_320"/>
<feBlend mode="normal" in="SourceGraphic" in2="effect3_dropShadow_53_320" result="shape"/>
</filter>
<filter id="filter3_ddd_53_320" x="126.773" y="0" width="476.325" height="123.117" filterUnits="userSpaceOnUse" color-interpolation-filters="sRGB">
<feFlood flood-opacity="0" result="BackgroundImageFix"/>
<feColorMatrix in="SourceAlpha" type="matrix" values="0 0 0 0 0 0 0 0 0 0 0 0 0 0 0 0 0 0 127 0" result="hardAlpha"/>
<feOffset/>
<feGaussianBlur stdDeviation="12.5"/>
<feComposite in2="hardAlpha" operator="out"/>
<feColorMatrix type="matrix" values="0 0 0 0 0.846154 0 0 0 0 1 0 0 0 0 0.923077 0 0 0 1 0"/>
<feBlend mode="normal" in2="BackgroundImageFix" result="effect1_dropShadow_53_320"/>
<feColorMatrix in="SourceAlpha" type="matrix" values="0 0 0 0 0 0 0 0 0 0 0 0 0 0 0 0 0 0 127 0" result="hardAlpha"/>
<feOffset dy="4"/>
<feGaussianBlur stdDeviation="2"/>
<feColorMatrix type="matrix" values="0 0 0 0 0.8 0 0 0 0 0 0 0 0 0 0.8 0 0 0 0.25 0"/>
<feBlend mode="normal" in2="effect1_dropShadow_53_320" result="effect2_dropShadow_53_320"/>
<feColorMatrix in="SourceAlpha" type="matrix" values="0 0 0 0 0 0 0 0 0 0 0 0 0 0 0 0 0 0 127 0" result="hardAlpha"/>
<feOffset/>
<feGaussianBlur stdDeviation="1.7"/>
<feComposite in2="hardAlpha" operator="out"/>
<feColorMatrix type="matrix" values="0 0 0 0 0.8 0 0 0 0 0 0 0 0 0 0.8 0 0 0 1 0"/>
<feBlend mode="normal" in2="effect2_dropShadow_53_320" result="effect3_dropShadow_53_320"/>
<feBlend mode="normal" in="SourceGraphic" in2="effect3_dropShadow_53_320" result="shape"/>
</filter>
</defs>
</svg>
